<?xml version="1.0" encoding="UTF-8"?>
<svg xmlns="http://www.w3.org/2000/svg" viewBox="0 0 20 20" width="20px" height="20px">
<defs>
<linearGradient id="linear0" gradientUnits="userSpaceOnUse" x1="83.309807" y1="43" x2="83.309807" y2="148.731628" gradientTransform="matrix(0.14186,0,0,0.14186,-2.2,-2.2)">
<stop offset="0" style="stop-color:rgb(28.627452%,37.254903%,47.450981%);stop-opacity:1;"/>
<stop offset="1" style="stop-color:rgb(83.137256%,99.607843%,98.431373%);stop-opacity:1;"/>
</linearGradient>
<linearGradient id="linear1" gradientUnits="userSpaceOnUse" x1="86" y1="13.4375" x2="86" y2="159.011307" gradientTransform="matrix(0.14186,0,0,0.14186,-2.2,-2.2)">
<stop offset="0" style="stop-color:rgb(12.156863%,15.686275%,20%);stop-opacity:1;"/>
<stop offset="1" style="stop-color:rgb(40.000001%,98.823529%,94.509804%);stop-opacity:1;"/>
</linearGradient>
</defs>
<g id="surface4030602">
<path style=" stroke:none;fill-rule:nonzero;fill:url(#linear0);" d="M 7.335938 19.152344 C 7.332031 19.011719 7.332031 18.40625 7.332031 17.835938 L 7.328125 17.246094 C 4.765625 17.59375 4.144531 15.804688 4.136719 15.785156 C 3.78125 14.882812 3.292969 14.625 3.273438 14.613281 L 3.226562 14.585938 C 3.046875 14.464844 2.582031 14.144531 2.714844 13.722656 C 2.832031 13.34375 3.300781 13.304688 3.511719 13.308594 C 4.683594 13.390625 5.277344 14.445312 5.300781 14.492188 C 5.898438 15.515625 6.8125 15.410156 7.402344 15.195312 C 7.457031 14.929688 7.539062 14.691406 7.652344 14.476562 C 5.761719 14.140625 3.621094 13.136719 3.621094 9.480469 C 3.621094 8.476562 3.933594 7.589844 4.550781 6.839844 C 4.414062 6.378906 4.257812 5.441406 4.722656 4.261719 L 4.789062 4.09375 L 4.960938 4.039062 C 5.121094 3.984375 5.984375 3.800781 7.765625 4.964844 C 8.5 4.777344 9.28125 4.679688 10.082031 4.675781 C 10.890625 4.679688 11.667969 4.777344 12.402344 4.964844 C 14.183594 3.800781 15.046875 3.988281 15.207031 4.039062 L 15.378906 4.09375 L 15.445312 4.261719 C 15.910156 5.441406 15.753906 6.378906 15.617188 6.839844 C 16.234375 7.589844 16.546875 8.476562 16.546875 9.480469 C 16.546875 13.136719 14.402344 14.140625 12.507812 14.472656 C 12.722656 14.875 12.839844 15.386719 12.839844 15.949219 C 12.839844 16.589844 12.839844 18.695312 12.835938 19.152344 L 12.074219 19.148438 C 12.074219 18.691406 12.078125 16.589844 12.078125 15.949219 C 12.078125 15.019531 11.71875 14.605469 11.5625 14.472656 L 10.902344 13.902344 L 11.769531 13.804688 C 13.753906 13.585938 15.785156 12.898438 15.785156 9.480469 C 15.785156 8.59375 15.488281 7.820312 14.902344 7.179688 L 14.738281 7 L 14.832031 6.777344 C 14.894531 6.625 15.171875 5.847656 14.816406 4.761719 C 14.527344 4.777344 13.835938 4.914062 12.6875 5.691406 L 12.539062 5.792969 L 12.371094 5.746094 C 11.660156 5.546875 10.867188 5.441406 10.082031 5.4375 C 9.300781 5.441406 8.507812 5.546875 7.800781 5.746094 L 7.632812 5.792969 L 7.484375 5.691406 C 6.332031 4.914062 5.640625 4.777344 5.351562 4.757812 C 4.996094 5.847656 5.273438 6.625 5.335938 6.777344 L 5.429688 7 L 5.265625 7.179688 C 4.679688 7.820312 4.382812 8.59375 4.382812 9.480469 C 4.382812 12.894531 6.40625 13.585938 8.386719 13.8125 L 9.246094 13.910156 L 8.59375 14.476562 C 8.453125 14.601562 8.203125 14.902344 8.117188 15.519531 L 8.089844 15.726562 L 7.894531 15.8125 C 7.390625 16.039062 5.667969 16.636719 4.636719 14.867188 C 4.632812 14.855469 4.429688 14.507812 4.0625 14.273438 C 4.3125 14.515625 4.609375 14.910156 4.851562 15.527344 C 4.878906 15.597656 5.371094 16.90625 7.628906 16.417969 L 8.089844 16.316406 L 8.09375 17.835938 C 8.09375 18.402344 8.09375 19.007812 8.097656 19.148438 Z M 7.335938 19.152344 "/>
<path style=" stroke:none;fill-rule:nonzero;fill:url(#linear1);" d="M 10 19.914062 C 4.535156 19.914062 0.0859375 15.464844 0.0859375 10 C 0.0859375 4.535156 4.535156 0.0859375 10 0.0859375 C 15.464844 0.0859375 19.914062 4.535156 19.914062 10 C 19.914062 15.464844 15.464844 19.914062 10 19.914062 Z M 10 0.851562 C 4.953125 0.851562 0.851562 4.953125 0.851562 10 C 0.851562 15.046875 4.953125 19.148438 10 19.148438 C 15.046875 19.148438 19.148438 15.046875 19.148438 10 C 19.148438 4.953125 15.046875 0.851562 10 0.851562 Z M 10 0.851562 "/>
</g>
</svg>
