<?xml version="1.0" encoding="UTF-8"?>
<svg xmlns="http://www.w3.org/2000/svg" viewBox="0 0 20 20" width="20px" height="20px">
<defs>
<linearGradient id="linear0" gradientUnits="userSpaceOnUse" x1="113" y1="23.542839" x2="113" y2="204.360504" gradientTransform="matrix(0.112389,0,0,0.112389,-2.7,-2.7)">
<stop offset="0" style="stop-color:rgb(12.156863%,15.686275%,20%);stop-opacity:1;"/>
<stop offset="1" style="stop-color:rgb(40.000001%,98.823529%,94.509804%);stop-opacity:1;"/>
</linearGradient>
<linearGradient id="linear1" gradientUnits="userSpaceOnUse" x1="113" y1="64.152222" x2="113" y2="161.30397" gradientTransform="matrix(0.112389,0,0,0.112389,-2.7,-2.7)">
<stop offset="0" style="stop-color:rgb(28.627452%,37.254903%,47.450981%);stop-opacity:1;"/>
<stop offset="1" style="stop-color:rgb(83.137256%,99.607843%,98.431373%);stop-opacity:1;"/>
</linearGradient>
<linearGradient id="linear2" gradientUnits="userSpaceOnUse" x1="162.4375" y1="45.023441" x2="162.4375" y2="81.391777" gradientTransform="matrix(0.112389,0,0,0.112389,-2.7,-2.7)">
<stop offset="0" style="stop-color:rgb(28.627452%,37.254903%,47.450981%);stop-opacity:1;"/>
<stop offset="1" style="stop-color:rgb(83.137256%,99.607843%,98.431373%);stop-opacity:1;"/>
</linearGradient>
</defs>
<g id="surface4028882">
<path style=" stroke:none;fill-rule:nonzero;fill:url(#linear0);" d="M 14.761719 19.921875 L 5.238281 19.921875 C 2.394531 19.921875 0.078125 17.605469 0.078125 14.761719 L 0.078125 5.238281 C 0.078125 2.394531 2.394531 0.078125 5.238281 0.078125 L 14.761719 0.078125 C 17.605469 0.078125 19.921875 2.394531 19.921875 5.238281 L 19.921875 14.761719 C 19.921875 17.605469 17.605469 19.921875 14.761719 19.921875 Z M 5.238281 0.871094 C 2.832031 0.871094 0.871094 2.832031 0.871094 5.238281 L 0.871094 14.761719 C 0.871094 17.167969 2.832031 19.128906 5.238281 19.128906 L 14.761719 19.128906 C 17.167969 19.128906 19.128906 17.167969 19.128906 14.761719 L 19.128906 5.238281 C 19.128906 2.832031 17.167969 0.871094 14.761719 0.871094 Z M 5.238281 0.871094 "/>
<path style=" stroke:none;fill-rule:nonzero;fill:url(#linear1);" d="M 10 15.160156 C 7.15625 15.160156 4.839844 12.84375 4.839844 10 C 4.839844 7.15625 7.15625 4.839844 10 4.839844 C 12.84375 4.839844 15.160156 7.15625 15.160156 10 C 15.160156 12.84375 12.84375 15.160156 10 15.160156 Z M 10 6.429688 C 8.03125 6.429688 6.429688 8.03125 6.429688 10 C 6.429688 11.96875 8.03125 13.570312 10 13.570312 C 11.96875 13.570312 13.570312 11.96875 13.570312 10 C 13.570312 8.03125 11.96875 6.429688 10 6.429688 Z M 10 6.429688 "/>
<path style=" stroke:none;fill-rule:nonzero;fill:url(#linear2);" d="M 15.554688 3.253906 C 14.898438 3.253906 14.367188 3.785156 14.367188 4.445312 C 14.367188 5.101562 14.898438 5.632812 15.554688 5.632812 C 16.214844 5.632812 16.746094 5.101562 16.746094 4.445312 C 16.746094 3.785156 16.214844 3.253906 15.554688 3.253906 Z M 15.554688 3.253906 "/>
</g>
</svg>
