<?xml version="1.0" encoding="UTF-8"?>
<svg xmlns="http://www.w3.org/2000/svg" viewBox="0 0 20 20" width="20px" height="20px">
<defs>
<linearGradient id="linear0" gradientUnits="userSpaceOnUse" x1="86" y1="26.702999" x2="86" y2="140.274063" gradientTransform="matrix(0.14186,0,0,0.14186,-2.2,-2.2)">
<stop offset="0" style="stop-color:rgb(12.156863%,15.686275%,20%);stop-opacity:1;"/>
<stop offset="1" style="stop-color:rgb(40.000001%,98.823529%,94.509804%);stop-opacity:1;"/>
</linearGradient>
<linearGradient id="linear1" gradientUnits="userSpaceOnUse" x1="104.551811" y1="26.702999" x2="104.551811" y2="140.274063" gradientTransform="matrix(0.14186,0,0,0.14186,-2.2,-2.2)">
<stop offset="0" style="stop-color:rgb(12.156863%,15.686275%,20%);stop-opacity:1;"/>
<stop offset="1" style="stop-color:rgb(40.000001%,98.823529%,94.509804%);stop-opacity:1;"/>
</linearGradient>
<linearGradient id="linear2" gradientUnits="userSpaceOnUse" x1="112.875" y1="48.318562" x2="112.875" y2="57.856499" gradientTransform="matrix(0.38125,0,0,0.38125,-2.2,-2.2)">
<stop offset="0" style="stop-color:rgb(28.627452%,37.254903%,47.450981%);stop-opacity:1;"/>
<stop offset="1" style="stop-color:rgb(83.137256%,99.607843%,98.431373%);stop-opacity:1;"/>
</linearGradient>
</defs>
<g id="surface3955411">
<path style=" stroke:none;fill-rule:nonzero;fill:url(#linear0);" d="M 19.757812 3.933594 C 19.648438 3.804688 19.46875 3.761719 19.3125 3.828125 C 19.078125 3.933594 18.835938 4.023438 18.589844 4.105469 C 18.90625 3.710938 19.148438 3.257812 19.304688 2.773438 C 19.355469 2.621094 19.304688 2.457031 19.179688 2.359375 C 19.058594 2.257812 18.886719 2.246094 18.75 2.328125 C 18.074219 2.722656 17.351562 3.007812 16.597656 3.175781 C 15.8125 2.421875 14.746094 1.992188 13.644531 1.992188 C 11.289062 1.992188 9.378906 3.890625 9.378906 6.222656 C 9.378906 6.378906 9.386719 6.535156 9.402344 6.6875 C 6.578125 6.417969 3.953125 5.03125 2.148438 2.835938 C 2.070312 2.738281 1.949219 2.6875 1.824219 2.699219 C 1.699219 2.707031 1.589844 2.777344 1.527344 2.882812 C 1.148438 3.523438 0.945312 4.261719 0.945312 5.015625 C 0.945312 5.949219 1.253906 6.839844 1.804688 7.5625 C 1.691406 7.515625 1.582031 7.464844 1.476562 7.40625 C 1.355469 7.34375 1.214844 7.34375 1.097656 7.414062 C 0.984375 7.484375 0.914062 7.605469 0.914062 7.742188 L 0.914062 7.785156 C 0.914062 9.199219 1.625 10.484375 2.738281 11.257812 C 2.734375 11.257812 2.726562 11.253906 2.722656 11.253906 C 2.589844 11.230469 2.457031 11.277344 2.371094 11.378906 C 2.28125 11.480469 2.253906 11.621094 2.292969 11.746094 C 2.746094 13.136719 3.875 14.175781 5.253906 14.542969 C 4.109375 15.21875 2.816406 15.570312 1.460938 15.570312 C 1.160156 15.570312 0.863281 15.554688 0.578125 15.519531 C 0.402344 15.496094 0.234375 15.601562 0.175781 15.769531 C 0.113281 15.9375 0.179688 16.125 0.328125 16.21875 C 2.175781 17.386719 4.304688 18.007812 6.488281 18.007812 C 13.644531 18.007812 17.921875 12.242188 17.921875 6.667969 C 17.921875 6.566406 17.921875 6.464844 17.917969 6.359375 C 18.644531 5.816406 19.269531 5.15625 19.785156 4.390625 C 19.878906 4.25 19.867188 4.0625 19.757812 3.933594 Z M 17.308594 5.859375 C 17.199219 5.9375 17.140625 6.058594 17.148438 6.191406 C 17.152344 6.347656 17.160156 6.507812 17.160156 6.667969 C 17.160156 11.867188 13.167969 17.242188 6.488281 17.242188 C 4.96875 17.242188 3.480469 16.921875 2.105469 16.308594 C 3.714844 16.1875 5.230469 15.605469 6.519531 14.605469 C 6.644531 14.507812 6.695312 14.335938 6.644531 14.183594 C 6.59375 14.03125 6.453125 13.925781 6.292969 13.921875 C 5.003906 13.898438 3.851562 13.179688 3.261719 12.078125 C 3.6875 12.09375 4.101562 12.042969 4.511719 11.929688 C 4.679688 11.882812 4.796875 11.726562 4.789062 11.546875 C 4.785156 11.371094 4.65625 11.222656 4.484375 11.1875 C 3.046875 10.902344 1.957031 9.75 1.722656 8.347656 C 2.148438 8.503906 2.597656 8.589844 3.042969 8.601562 C 3.21875 8.605469 3.367188 8.5 3.417969 8.335938 C 3.472656 8.175781 3.410156 8 3.265625 7.902344 C 2.292969 7.257812 1.710938 6.175781 1.710938 5.015625 C 1.710938 4.582031 1.789062 4.15625 1.945312 3.761719 C 3.972656 5.984375 6.816406 7.332031 9.839844 7.484375 C 9.964844 7.492188 10.078125 7.441406 10.152344 7.347656 C 10.230469 7.253906 10.257812 7.132812 10.230469 7.015625 C 10.171875 6.753906 10.140625 6.488281 10.140625 6.226562 C 10.140625 4.3125 11.710938 2.757812 13.644531 2.757812 C 14.609375 2.757812 15.542969 3.15625 16.199219 3.851562 C 16.289062 3.945312 16.417969 3.988281 16.546875 3.964844 C 17.074219 3.863281 17.589844 3.707031 18.089844 3.503906 C 17.8125 3.886719 17.457031 4.214844 17.039062 4.460938 C 16.882812 4.554688 16.8125 4.742188 16.871094 4.914062 C 16.929688 5.082031 17.101562 5.191406 17.28125 5.167969 C 17.640625 5.125 18 5.058594 18.347656 4.96875 C 18.027344 5.296875 17.683594 5.597656 17.308594 5.859375 Z M 17.308594 5.859375 "/>
<path style=" stroke:none;fill-rule:nonzero;fill:url(#linear1);" d="M 9.53125 15.257812 L 9.769531 15.980469 C 12.484375 15.09375 14.65625 12.964844 15.730469 10.136719 L 15.019531 9.863281 C 14.4375 11.398438 12.949219 14.140625 9.53125 15.257812 Z M 9.53125 15.257812 "/>
<path style=" stroke:none;fill-rule:nonzero;fill:url(#linear2);" d="M 14.574219 5.425781 C 14.574219 5.847656 14.234375 6.1875 13.8125 6.1875 C 13.390625 6.1875 13.050781 5.847656 13.050781 5.425781 C 13.050781 5.003906 13.390625 4.664062 13.8125 4.664062 C 14.234375 4.664062 14.574219 5.003906 14.574219 5.425781 Z M 14.574219 5.425781 "/>
</g>
</svg>
