<?xml version="1.0" encoding="UTF-8"?><svg version="1.1" id="Layer_1" xmlns="http://www.w3.org/2000/svg" xmlns:xlink="http://www.w3.org/1999/xlink" x="0px" y="0px" viewBox="0 0 56 99" style="enable-background:new 0 0 56 99;" xml:space="preserve" width="56px" height="99px">

<title>Smartphone_1</title>
<g>
	<path d="M50,99H6c-3.3,0-6-2.7-6-6V6c0-3.3,2.7-6,6-6h44c3.3,0,6,2.7,6,6v87C56,96.3,53.3,99,50,99z" style="fill:#90A4AE;"/>
	<path d="M53,86H3V10h50V86z" style="fill:#0D47A1;"/>
	<path d="M33,6H23c-0.6,0-1-0.4-1-1s0.4-1,1-1h10c0.6,0,1,0.4,1,1S33.6,6,33,6z" style="fill:#37474F;"/>
	<circle cx="37" cy="5" r="1" style="fill:#37474F;"/>
	<path d="M33.5,94h-11c-0.8,0-1.5-0.7-1.5-1.5s0.7-1.5,1.5-1.5h11c0.8,0,1.5,0.7,1.5,1.5S34.3,94,33.5,94z" style="fill:#37474F;"/>
	<g>
		<path d="M26,18h4c1.1,0,2,0.9,2,2v4c0,1.1-0.9,2-2,2h-4c-1.1,0-2-0.9-2-2v-4C24,18.9,24.9,18,26,18z" style="fill:#CFD8DC;"/>
		<path d="M11,18h4c1.1,0,2,0.9,2,2v4c0,1.1-0.9,2-2,2h-4c-1.1,0-2-0.9-2-2v-4C9,18.9,9.9,18,11,18z" style="fill:#CFD8DC;"/>
		<path d="M41,18h4c1.1,0,2,0.9,2,2v4c0,1.1-0.9,2-2,2h-4c-1.1,0-2-0.9-2-2v-4C39,18.9,39.9,18,41,18z" style="fill:#CFD8DC;"/>
		<path d="M26,31h4c1.1,0,2,0.9,2,2v4c0,1.1-0.9,2-2,2h-4c-1.1,0-2-0.9-2-2v-4C24,31.9,24.9,31,26,31z" style="fill:#CFD8DC;"/>
		<path d="M41,31h4c1.1,0,2,0.9,2,2v4c0,1.1-0.9,2-2,2h-4c-1.1,0-2-0.9-2-2v-4C39,31.9,39.9,31,41,31z" style="fill:#CFD8DC;"/>
		<path d="M41,44h4c1.1,0,2,0.9,2,2v4c0,1.1-0.9,2-2,2h-4c-1.1,0-2-0.9-2-2v-4C39,44.9,39.9,44,41,44z" style="fill:#CFD8DC;"/>
		<path d="M11,31h4c1.1,0,2,0.9,2,2v4c0,1.1-0.9,2-2,2h-4c-1.1,0-2-0.9-2-2v-4C9,31.9,9.9,31,11,31z" style="fill:#CFD8DC;"/>
		<path d="M26,44h4c1.1,0,2,0.9,2,2v4c0,1.1-0.9,2-2,2h-4c-1.1,0-2-0.9-2-2v-4C24,44.9,24.9,44,26,44z" style="fill:#CFD8DC;"/>
		<path d="M11,44h4c1.1,0,2,0.9,2,2v4c0,1.1-0.9,2-2,2h-4c-1.1,0-2-0.9-2-2v-4C9,44.9,9.9,44,11,44z" style="fill:#CFD8DC;"/>
		<path d="M26,57h4c1.1,0,2,0.9,2,2v4c0,1.1-0.9,2-2,2h-4c-1.1,0-2-0.9-2-2v-4C24,57.9,24.9,57,26,57z" style="fill:#CFD8DC;"/>
		<path d="M11,57h4c1.1,0,2,0.9,2,2v4c0,1.1-0.9,2-2,2h-4c-1.1,0-2-0.9-2-2v-4C9,57.9,9.9,57,11,57z" style="fill:#CFD8DC;"/>
		<path d="M21,74h3c1.1,0,2,0.9,2,2v3c0,1.1-0.9,2-2,2h-3c-1.1,0-2-0.9-2-2v-3C19,74.9,19.9,74,21,74z" style="fill:#EF5350;"/>
		<path d="M10,74h3c1.1,0,2,0.9,2,2v3c0,1.1-0.9,2-2,2h-3c-1.1,0-2-0.9-2-2v-3C8,74.9,8.9,74,10,74z" style="fill:#FFCA28;"/>
		<path d="M43,74h3c1.1,0,2,0.9,2,2v3c0,1.1-0.9,2-2,2h-3c-1.1,0-2-0.9-2-2v-3C41,74.9,41.9,74,43,74z" style="fill:#4FC3F7;"/>
		<path d="M32,74h3c1.1,0,2,0.9,2,2v3c0,1.1-0.9,2-2,2h-3c-1.1,0-2-0.9-2-2v-3C30,74.9,30.9,74,32,74z" style="fill:#7CB342;"/>
	</g>
</g>
</svg>