<?xml version="1.0" encoding="UTF-8"?><svg version="1.1" xmlns="http://www.w3.org/2000/svg" xmlns:xlink="http://www.w3.org/1999/xlink" viewBox="0 0 1200 800" width="1200" height="800" x="0px" y="0px">
    
    
    <!-- ITEM 0 -->
    <g>
        <defs>
            <clipPath id="clip-path-id-viewbox-item-0">
                <rect x="0.0" y="0.0" width="309.5" height="303.0"/>
            </clipPath>
        </defs>
        <g transform="translate(487.0 120.0) rotate(0.0 186.5 182.5) scale(1.2051696284329563 1.2046204620462047)">
            <g clip-path="url(#clip-path-id-viewbox-item-0)" transform="translate(-0.0 -0.0)">
                <title>pc_display_front</title><g id="fe0ed4a3-7c31-4897-8043-f7b0162255f4-i0" data-name="Layer 2"><g id="e15ce87c-93ea-4455-a7eb-2988c101eeef-i0" data-name="pc_display_front"><rect x="121.5" y="171.5" width="85" height="130" fill="#5cdb95"/><path d="M208,303H120V170h88Zm-85-3h82V173H123Z" fill="#1a1a1a"/><path d="M121.5,239.326s52.67-3.166,85,26.834c.659-22,.163-49.334.163-49.334H121.5Z" fill="#1a1a1a"/><rect x="25.5" y="1.5" width="282.5" height="224.5" rx="20" fill="#5cdb95"/><path d="M288,227.5H45.5A21.525,21.525,0,0,1,24,206V21.5A21.525,21.525,0,0,1,45.5,0H288a21.525,21.525,0,0,1,21.5,21.5V206A21.525,21.525,0,0,1,288,227.5ZM45.5,3A18.521,18.521,0,0,0,27,21.5V206a18.521,18.521,0,0,0,18.5,18.5H288A18.521,18.521,0,0,0,306.5,206V21.5A18.521,18.521,0,0,0,288,3Z" fill="#1a1a1a"/><rect x="1.5" y="1.5" width="282.5" height="224.5" rx="20" fill="#5cdb95"/><path d="M264,227.5H21.5A21.525,21.525,0,0,1,0,206V21.5A21.525,21.525,0,0,1,21.5,0H264a21.525,21.525,0,0,1,21.5,21.5V206A21.525,21.525,0,0,1,264,227.5ZM21.5,3A18.521,18.521,0,0,0,3,21.5V206a18.521,18.521,0,0,0,18.5,18.5H264A18.521,18.521,0,0,0,282.5,206V21.5A18.521,18.521,0,0,0,264,3Z" fill="#1a1a1a"/><rect x="53.5" y="-4.5" width="178.5" height="236.5" rx="10.5" transform="translate(256.5 -29) rotate(90)" fill="#1a1a1a"/><rect x="77.5" y="289.5" width="164" height="12" rx="6" fill="#5cdb95"/><path d="M235.5,303H83.5a7.5,7.5,0,0,1,0-15h152a7.5,7.5,0,0,1,0,15Zm-152-12a4.5,4.5,0,0,0,0,9h152a4.5,4.5,0,0,0,0-9Z" fill="#1a1a1a"/></g></g>
            </g>
        </g>
    </g>
    
    <!-- ITEM 1 -->
    <g>
        <defs>
            <clipPath id="clip-path-id-viewbox-item-1">
                <rect x="0.0" y="0.0" width="496.204" height="515.9"/>
            </clipPath>
        </defs>
        <g transform="translate(85.0 60.0) rotate(0.0 169.5 176.0) scale(0.6831867538351162 0.6823027718550106)">
            <g clip-path="url(#clip-path-id-viewbox-item-1)" transform="translate(-0.0 -0.0)">
                <title>woman_in_a_suit_sitting</title><g id="Layer_2-i1" data-name="Layer 2"><g id="woman_in_a_suit_sitting-i1"><path d="M242.771,315.081c17.589-.918,70.05,5.965,70.05,5.965s68.52,14.224,91.309,26.765,29.06,40.531,21.107,64.85-45.731,36.095-77.544,32.578-49.555-21.566-49.555-21.566l-83.05-51.7-36.86-44.2C178.228,327.622,226.406,316,242.771,315.081Z" fill="#5cdb95"/><path d="M404.13,347.964c-12.848-7.035-40.072-14.682-61.485-20.036a4.933,4.933,0,0,0-1.07,3.059c-.459,9.177,11.93,11.93,18.659,13.154,6.73,1.376,13.46,2.753,20.189,4.435a85.269,85.269,0,0,1,13.46,4.13c18.506,7.647,32.118,26.46,33.5,46.5a4.057,4.057,0,0,0,.918-.765C429.978,378.248,422.331,358.059,404.13,347.964Z" fill="#fff"/><path d="M173.18,356.988s-5.812,26.154-21.565,30.9-69.132-24.166-69.132-24.166-15.907,23.86-9.024,50.472C80.342,440.65,101.3,440.5,101.3,440.5S91.507,464.816,91.2,490.052l72.955,8.565s96.663,15.3,125.264,15.754c28.448.458,55.825-4.895,60.108-46.037s-37.472-74.18-65.614-91.157c-27.99-16.824-32.578-15.753-32.578-15.753s-25.083,5.506-40.684,0l-2.141,5.353C208.664,367.083,182.357,359.894,173.18,356.988Z" fill="#5cdb95"/><path d="M75.6,359.282s22.942,15.142,40.378,22.331c17.283,7.188,29.978,9.176,41.3,3.823,11.318-5.2,15.753-28.6,15.753-28.6l17.9,4.436s7.8-29.825,17.436-33.8L184.8,313.7s10.4-39.154,12.848-68.214c2.294-29.06,3.823-79.226-7.036-104.921,0,0-51.543-5.048-95.744,32.271-44.2,37.472-50.167,63.014-52.155,76.78s-.306,48.637,44.507,74.332Z" fill="#5cdb95"/><path d="M237.265,158.616s26.154,13.307,45.578,33.954c19.424,20.5,40.684,66.226,61.179,60.414,9.483-2.753,19.271-9.023,45.731-27.53,0,0,13.765,26.46,28.754,33.342,0,0-31.66,44.355-57.049,57.508-25.236,13.154-66.838,2.142-66.838,2.142s-39.919-16.977-48.484-29.825c0,0-2.753-63.932-4.589-82.438C239.712,187.37,237.265,158.616,237.265,158.616Z" fill="#5cdb95"/><path d="M390.824,225.3l22.636-16.212s13.765,25.695,19.271,29.824l-14.224,19.578C418.507,258.644,396.941,246.255,390.824,225.3Z" fill="#fff"/><path d="M413.46,209.089l20.5-16.977,12.541-8.107,13.46-22.177a6.323,6.323,0,0,1,4.894,3.824l6.882-7.189s3.518,1.224,1.071,6.577l11.012-4.435s2.294,5.2,0,7.341l10.248-2.294s1.376,4.435-8.412,9.177c-9.636,4.741-23.86,12.388-18.966,24.318s25.237,6.73,25.237,14.683l-13.46,1.988-27.224,4.589-18.507,18.506C432.731,239.066,415.448,219.03,413.46,209.089Z" fill="#5cdb95"/><path d="M208.511,327.622l13.765,5.812s-11.165,18.66-12.694,32.119l-18.66-3.976C191.075,361.577,197.958,336.952,208.511,327.622Z" fill="#fff"/><path d="M222.276,333.434s17.13,0,28.907,6.577,21.566,21.107,23.554,31.966l-23.248-10.4a108.142,108.142,0,0,1-40.684,0S216.923,341.541,222.276,333.434Z" fill="#5cdb95"/><path d="M242.771,313.551s3.977-46.5,1.071-79.685-4.9-59.343-4.9-59.343l-10.094,5.659L220.9,158.31l-9.177,21.107L197.04,168.252s4.588,51.237.459,79.379-13.612,64.7-12.542,66.226,13.154,8.565,13.154,8.565Z" fill="#fff"/><polygon points="220.9 158.157 236.347 151.122 238.947 174.523 229.006 180.182 220.9 158.157" fill="#fff"/><polygon points="220.9 158.157 211.876 179.417 197.193 168.252 190.769 140.874 197.958 131.239 220.9 158.157" fill="#fff"/><path d="M236.347,151.122l5.2-15.6s17.131,5.659,25.084-11.624c0,0,9.635.459,10.094-5.2.306-5.659-3.365-6.577-3.365-6.577s4.13-14.529,3.365-27.224c-.612-12.7-34.26-22.024-34.566-21.871-.459.3-11.165,18.047-11.165,18.047l-21.871-1.223s-12.389,12.694,4.282,21.412l-15.447,29.825L220.9,158.157Z" fill="#5cdb95"/><polygon points="101.295 440.497 93.189 470.781 61.988 465.275 55.717 448.145 75.6 439.732 90.436 436.674 101.295 440.497" fill="#5cdb95"/><path d="M93.5,341.541c-.459,3.517-.765,7.035,0,10.247a13.425,13.425,0,0,0,.765,2.294,13.959,13.959,0,0,0,1.223,1.989,9.7,9.7,0,0,0,3.671,2.753,15.391,15.391,0,0,0,9.483.458,70.53,70.53,0,0,0,9.941-3.517,32.521,32.521,0,0,1,11.012-2.906,9.257,9.257,0,0,1,2.906,0,10.59,10.59,0,0,1,3.059.459,13.918,13.918,0,0,1,5.659,2.753,18.655,18.655,0,0,1,3.977,4.588,15.279,15.279,0,0,1,2.141,5.506,23.75,23.75,0,0,1,.612,5.659,35.286,35.286,0,0,1-.459,5.659,1.52,1.52,0,0,1-1.529,1.071,1.34,1.34,0,0,1-1.071-1.377h0v-5.2a25.18,25.18,0,0,0-.918-4.894,16.42,16.42,0,0,0-1.988-4.436,13.514,13.514,0,0,0-3.212-3.365,10.1,10.1,0,0,0-4.129-1.835,11.81,11.81,0,0,0-2.3-.306H129.9a30.346,30.346,0,0,0-4.894.918c-1.529.458-3.212,1.07-4.894,1.682-3.365,1.224-6.73,2.753-10.554,3.518a18.345,18.345,0,0,1-5.812.306,15.611,15.611,0,0,1-5.812-1.53,13.315,13.315,0,0,1-4.894-3.823,24.659,24.659,0,0,1-1.529-2.753,20.4,20.4,0,0,1-.765-2.906,24.644,24.644,0,0,1-.153-5.812c.153-1.836.459-3.671.765-5.506a1.19,1.19,0,0,1,1.376-.918,1.053,1.053,0,0,1,.765,1.224Z" fill="#fff"/><path d="M284.067,377.33c-1.224-.765-2.447-1.529-3.671-2.141-8.718-4.741-13.918-6.118-13.918-6.118s-1.071,12.695,19.424,25.695,51.237,31.354,53.837,59.038c3.824,41.6-33.8,60.108-33.8,60.108h0c21.871-2.448,40.225-12.389,43.743-45.426C353.963,427.344,312.209,394.307,284.067,377.33Z" fill="#fff"/><path d="M342.951,260.938c1.989-.612,4.13-1.377,6.271-1.836a25,25,0,0,1,3.365-.306,8.716,8.716,0,0,1,3.365.612,15.337,15.337,0,0,1,3.212,1.53,8.579,8.579,0,0,1,2.447,2.753,7.68,7.68,0,0,1,.917,3.67,21.076,21.076,0,0,1-.305,3.365,24.808,24.808,0,0,0-.459,3.059,5.958,5.958,0,0,0,.306,2.447,4.845,4.845,0,0,0,3.212,2.753,7.445,7.445,0,0,0,4.435-.305,17.846,17.846,0,0,0,4.283-2.6,12.859,12.859,0,0,0,4.129-9.176c0-1.836-.306-3.824-.459-6.118a16.327,16.327,0,0,1,.918-7.5,9.161,9.161,0,0,1,2.447-3.517,12.282,12.282,0,0,1,3.671-1.989,18.669,18.669,0,0,1,7.035-.459c1.071,0,2.142.153,3.059.153h2.906a6.572,6.572,0,0,0,4.742-2.141h0a1.176,1.176,0,0,1,1.529-.153.968.968,0,0,1,.153,1.377,8.9,8.9,0,0,1-2.6,2.753,15.6,15.6,0,0,1-3.365,1.376,12.736,12.736,0,0,1-3.365.459,23.669,23.669,0,0,1-3.212.153,15.39,15.39,0,0,0-5.506.918,3.909,3.909,0,0,0-1.835,1.223,5.291,5.291,0,0,0-1.071,1.836,10.392,10.392,0,0,0-.306,2.294,18.553,18.553,0,0,0,.153,2.753c.153,1.988.765,4.129.918,6.577a17.721,17.721,0,0,1-5.812,13.612,17.208,17.208,0,0,1-6.73,3.824,11.538,11.538,0,0,1-8.106-.765,10.491,10.491,0,0,1-3.212-2.6,7.226,7.226,0,0,1-1.682-3.824,10.424,10.424,0,0,1,.153-3.824c.306-1.07.612-2.294.918-3.211a7.18,7.18,0,0,0,0-5.354,7.069,7.069,0,0,0-4.13-3.364,8.658,8.658,0,0,0-2.753-.459,18.5,18.5,0,0,0-2.906.153,44.3,44.3,0,0,0-5.965,1.835c-.612.153-1.223,0-1.376-.612s0-1.223.611-1.376Z" fill="#fff"/><path d="M288.961,307.586a10.726,10.726,0,0,1-.459-4.435,16.324,16.324,0,0,1,1.071-4.13,16.087,16.087,0,0,1,2.294-3.67,18.15,18.15,0,0,1,3.059-2.906,20.494,20.494,0,0,1,7.647-3.518,37.13,37.13,0,0,1,8.106-1.224c1.377-.153,2.753-.153,4.13-.306,1.377,0,2.753-.153,4.13-.153a19.866,19.866,0,0,1,8.718,1.53,13.916,13.916,0,0,1,4.129,2.753,10.355,10.355,0,0,1,2.753,4.435,13.639,13.639,0,0,1,.459,4.9c0,1.529-.153,2.753-.153,3.976a16.643,16.643,0,0,0,.153,2.906c0,.153.153.306.153.459s.153.306.306.459a1.844,1.844,0,0,0,.765.765,6.3,6.3,0,0,0,2.294,1.07,9.242,9.242,0,0,0,2.906,0A22.975,22.975,0,0,0,348,308.045a37.776,37.776,0,0,0,6.424-4.129c2.141-1.53,4.283-3.212,6.424-4.742,1.071-.764,2.294-1.529,3.365-2.294s2.294-1.529,3.518-2.294a16.637,16.637,0,0,1,4.129-1.682,9.876,9.876,0,0,1,4.742-.306,8.539,8.539,0,0,1,4.282,1.988,6.459,6.459,0,0,1,2.447,4.13c.153.611-.306,1.07-.917,1.223-.612,0-1.071-.153-1.224-.765h0c-.612-1.988-2.906-3.211-5.047-3.364a7.984,7.984,0,0,0-3.212.611,16.208,16.208,0,0,0-3.212,1.683c-1.071.612-1.988,1.529-3.059,2.294s-1.988,1.682-3.059,2.447c-1.988,1.682-4.129,3.518-6.118,5.2a54.783,54.783,0,0,1-6.882,4.742c-1.224.764-2.6,1.376-3.824,1.988a19.956,19.956,0,0,1-4.283,1.376,13.073,13.073,0,0,1-4.894.153,10.216,10.216,0,0,1-6.882-3.976,14.112,14.112,0,0,1-.765-1.224c-.153-.459-.459-.917-.612-1.376a15.163,15.163,0,0,1-.612-5.048,32.556,32.556,0,0,1,.306-4.129,9.469,9.469,0,0,0-.153-3.059,5.033,5.033,0,0,0-1.07-2.447,7.188,7.188,0,0,0-2.3-1.988c-3.67-2.3-9.329-2.448-14.53-2.6a31.655,31.655,0,0,0-7.647.765,33.212,33.212,0,0,0-3.671,1.071,14.38,14.38,0,0,0-3.364,1.835,15.438,15.438,0,0,0-4.742,5.659,9.4,9.4,0,0,0-.459,7.036,1.149,1.149,0,0,1-.611,1.376c-.459.153-1.377,0-1.53-.612Z" fill="#fff"/><path d="M283.149,199.606a32,32,0,0,1,2.447,11.93v4.588l-.153,1.53-.153,1.529-.153.765-.153.765-.306,1.529-.458,1.53a33.543,33.543,0,0,1-5.659,10.859c-2.448,3.212-5.506,5.965-7.954,8.871a39.074,39.074,0,0,0-5.965,9.635,37.055,37.055,0,0,0-1.835,5.354,35.661,35.661,0,0,0-.918,5.353,19.339,19.339,0,0,0,.153,5.2,11.452,11.452,0,0,0,.612,2.447c.306.765.612,1.377.918,2.141a7.4,7.4,0,0,0,3.212,2.906,21.354,21.354,0,0,0,4.435,1.377,12.037,12.037,0,0,0,4.742-.306,4.171,4.171,0,0,0,1.835-.918,4.325,4.325,0,0,0,1.529-1.376,9.264,9.264,0,0,0,1.836-4.13,13.381,13.381,0,0,0,.306-2.447v-2.6c-.153-3.671-.918-7.647-.918-11.93a17.673,17.673,0,0,1,1.376-6.73,14.413,14.413,0,0,1,4.283-5.811,11.869,11.869,0,0,1,3.365-1.836,10.275,10.275,0,0,1,3.67-.612,14.152,14.152,0,0,1,6.73,1.683,17.717,17.717,0,0,1,5.2,4.282,40.061,40.061,0,0,1,3.671,5.2l1.377,2.753c.458.918.917,1.836,1.223,2.6a12.645,12.645,0,0,0,3.059,4.129c1.988,1.836,8.106,1.988,7.342,0v-.153c-.153-.612,0-1.223.611-1.376a1.234,1.234,0,0,1,1.377.459,2.471,2.471,0,0,1,.153,2.294,3.046,3.046,0,0,1-1.224,1.835A5.444,5.444,0,0,1,319.091,264a25.9,25.9,0,0,1-3.364-.153,8.526,8.526,0,0,1-3.212-1.377,16.555,16.555,0,0,1-4.436-4.894c-.611-.918-1.07-1.835-1.529-2.6a13.172,13.172,0,0,0-1.53-2.447,32.007,32.007,0,0,0-3.364-4.283,12.713,12.713,0,0,0-4.13-2.906,10.244,10.244,0,0,0-4.588-.917,6.114,6.114,0,0,0-3.977,1.529c-2.141,1.835-3.212,5.353-3.212,8.718,0,3.518.918,7.341,1.071,11.624a24.669,24.669,0,0,1,0,3.365,12.742,12.742,0,0,1-.459,3.365,16.738,16.738,0,0,1-2.906,6.576,12.551,12.551,0,0,1-6.271,4.283,34.111,34.111,0,0,1-3.518.612h-3.518a17.938,17.938,0,0,1-6.729-1.989,15.36,15.36,0,0,1-5.2-5.2,15.6,15.6,0,0,1-1.377-3.365,25.9,25.9,0,0,1-.612-3.365,31.106,31.106,0,0,1,.306-6.576,40.017,40.017,0,0,1,1.683-6.118,37.058,37.058,0,0,1,2.447-5.659,47.164,47.164,0,0,1,7.188-9.942c2.753-2.906,5.812-5.506,8.259-8.412l.918-1.07c.306-.459.612-.765.765-1.071l.765-1.224a9.133,9.133,0,0,1,.611-1.223l.306-.612c.153-.153.153-.459.306-.612l.612-1.376.459-1.377.153-.612c0-.153.153-.458.153-.611l.459-1.377.305-1.376.153-.612.153-.612.153-1.376.153-1.377v-5.812l-.153-1.376-.153-1.377-.153-.612-.153-.611a22.117,22.117,0,0,0-1.835-5.354h0c-.153-.611,0-1.223.612-1.376s2.141-1.836,2.447-1.224Z" fill="#fff"/><path d="M58.164,301.01A87.03,87.03,0,0,1,95.33,283.88l1.224-.306,1.224-.153c.917-.153,1.682-.306,2.6-.459s1.682-.153,2.6-.306l1.376-.153h1.377a36.266,36.266,0,0,1,10.706.918,21.929,21.929,0,0,1,5.2,2.141c.459.306.765.459,1.224.765l1.07.918,1.071,1.07c.459.459.612.765.918,1.071a5.378,5.378,0,0,1,.764,1.223c.153.459.459.918.612,1.377l.306.612a.92.92,0,0,1,.153.612l.153.611.153.612a17.635,17.635,0,0,1,.306,5.659,29.711,29.711,0,0,1-3.365,10.4l-1.224,2.294a9.378,9.378,0,0,0-1.07,2.141,5.64,5.64,0,0,0-.612,3.671,3.075,3.075,0,0,0,.612,1.224,2.968,2.968,0,0,0,1.376.764,10.13,10.13,0,0,0,4.436.306c3.365,0,6.882,0,10.247.153s6.883.459,10.248.765c1.682.153,3.365.459,5.047.612a13.027,13.027,0,0,1,5.506,1.529,6.143,6.143,0,0,1,2.447,1.988,7.272,7.272,0,0,1,1.377,2.906,9.9,9.9,0,0,1-.306,5.965,16.468,16.468,0,0,1-2.906,4.742,43.326,43.326,0,0,1-3.824,3.67,1.259,1.259,0,0,1-1.835-.152,1.393,1.393,0,0,1,0-1.836c1.223-1.223,2.294-2.447,3.365-3.671a11.241,11.241,0,0,0,2.141-3.976,6.361,6.361,0,0,0,0-4.13,3.172,3.172,0,0,0-.918-1.529,5.5,5.5,0,0,0-1.529-1.071,12.55,12.55,0,0,0-4.283-.918c-1.529-.152-3.365-.305-5.047-.458-3.365-.306-6.73-.459-10.095-.612s-6.729-.153-10.094-.153a18.429,18.429,0,0,1-5.659-.459,7.141,7.141,0,0,1-3.059-1.835,6.53,6.53,0,0,1-1.682-3.212,12.378,12.378,0,0,1,0-3.365,11.6,11.6,0,0,1,.917-2.753c.459-.918.765-1.682,1.224-2.447l1.223-2.294a23.817,23.817,0,0,0,3.059-8.718,11.975,11.975,0,0,0-1.988-8.259c-.153-.306-.459-.612-.612-.918l-.764-.765-.918-.612c-.306-.153-.612-.458-.918-.611a19.98,19.98,0,0,0-4.129-1.836,40.568,40.568,0,0,0-4.589-.918c-1.529-.152-3.212-.152-4.894-.152a27.757,27.757,0,0,0-4.894.458,13.391,13.391,0,0,0-2.448.306l-1.223.153-1.224.153a94.975,94.975,0,0,0-19.118,5.812,84.429,84.429,0,0,0-17.283,9.942h0a1.1,1.1,0,0,1-1.682-.306C57.552,302.08,57.705,301.316,58.164,301.01Z" fill="#fff"/><path d="M148.862,152.345c1.835-.458,3.67-1.07,5.506-1.682a9.872,9.872,0,0,1,2.906-.612,6.358,6.358,0,0,1,3.365.306,3.176,3.176,0,0,1,1.529.918,6,6,0,0,1,1.224,1.529,5.686,5.686,0,0,1,.459,3.518,4.527,4.527,0,0,1-.306,1.53c-.153.458-.306,1.07-.459,1.529l-1.377,2.753a57.619,57.619,0,0,1-3.365,5.047c-1.07,1.53-2.141,3.212-3.058,4.742a26.455,26.455,0,0,0-2.142,4.741,27.693,27.693,0,0,0-1.376,4.741,14.233,14.233,0,0,0,.153,4.436,7.319,7.319,0,0,0,1.988,3.518c1.682,1.682,5.506,1.988,8.718,1.682a27.376,27.376,0,0,0,9.942-3.365,39.924,39.924,0,0,0,4.588-3.059,12.325,12.325,0,0,0,2.141-1.835,6.655,6.655,0,0,1,1.071-.918l.459-.459a.474.474,0,0,0-.153.306v.153a1.184,1.184,0,0,0,.153.459l.306.306a.916.916,0,0,0,.611.153h.306a.15.15,0,0,0,.153-.153l.153-.153a1.081,1.081,0,0,1-1.529-1.529l.153-.153.153-.153h.305a1.379,1.379,0,0,1,.765.153l.306.3a3.927,3.927,0,0,0,.306.765v.612a1.16,1.16,0,0,1-.306.612l-.459.612a6.737,6.737,0,0,1-.917,1.07c-.612.765-1.377,1.53-1.989,2.294a38.933,38.933,0,0,1-4.588,3.977,31.054,31.054,0,0,1-5.353,3.212,20.3,20.3,0,0,1-6.118,1.835,22.668,22.668,0,0,1-6.424.306,13.356,13.356,0,0,1-3.365-.765,14.37,14.37,0,0,1-3.365-1.835,13.641,13.641,0,0,1-4.129-6.118,15.7,15.7,0,0,1-.459-7.035,21.488,21.488,0,0,1,1.988-6.271,20.738,20.738,0,0,1,3.518-5.2c1.377-1.53,2.753-2.906,4.13-4.283a29.665,29.665,0,0,0,3.67-4.129l1.377-2.3c.153-.458.306-.764.459-1.223a3.6,3.6,0,0,0,.306-1.224,3.359,3.359,0,0,0-.153-2.141,2.321,2.321,0,0,0-1.53-1.377,5.589,5.589,0,0,0-2.294-.3,15.991,15.991,0,0,0-2.6.611c-1.835.612-3.671,1.071-5.506,1.836a1.066,1.066,0,1,1-.765-1.989Z" fill="#fff"/><path d="M115.978,159.993a80.817,80.817,0,0,0-8.259,7.953,101.893,101.893,0,0,0-7.036,9.024c-1.07,1.529-1.988,3.212-3.058,4.894-.459.765-.918,1.683-1.377,2.447-.153.459-.459.765-.612,1.224s-.306.765-.459,1.224a7.173,7.173,0,0,0-.306,2.447,3.28,3.28,0,0,0,.612,1.835c.153.153.459.306.612.459.306,0,.612.153.918,0a9.454,9.454,0,0,0,2.447-.612c3.518-1.376,6.883-3.212,10.4-4.894a27.725,27.725,0,0,1,12.083-3.212,10.856,10.856,0,0,1,3.671.612,7.685,7.685,0,0,1,3.365,2.447,8.648,8.648,0,0,1,1.682,3.823,10.7,10.7,0,0,1,0,3.824,11.536,11.536,0,0,1-1.224,3.671l-.458.918a3.335,3.335,0,0,0-.459.764c-.459.459-.765.918-1.224,1.377a23.226,23.226,0,0,1-5.353,3.823c-1.835.918-3.671,1.683-5.353,2.448l-5.2,2.447c-3.518,1.529-7.036,3.212-10.554,4.894-7.035,3.212-14.071,6.424-21.106,9.483l-1.377.612a4.586,4.586,0,0,0-1.223.611c-.765.459-1.53.765-2.3,1.224A8.923,8.923,0,0,0,73,227.289a10.64,10.64,0,0,0-1.223,1.53,2.642,2.642,0,0,0-.153,1.529,4.237,4.237,0,0,0,.764,1.836,13.789,13.789,0,0,0,.765,1.376c.306.612.459,1.071.765,1.683a8.967,8.967,0,0,1,.612,3.517,13.406,13.406,0,0,1-1.683,6.424,14.326,14.326,0,0,1-1.835,2.753,32.427,32.427,0,0,1-2.294,2.294,26.486,26.486,0,0,1-5.2,3.212c-1.835.918-3.67,1.53-5.353,2.295-.612.152-1.223,0-1.376-.612a1.132,1.132,0,0,1,.612-1.377c1.682-.917,3.364-1.682,5.047-2.6a23.469,23.469,0,0,0,4.435-3.212,11.65,11.65,0,0,0,3.059-4.129,10.49,10.49,0,0,0,.918-4.742,4.886,4.886,0,0,0-.459-2.141l-.459-.918c-.153-.306-.459-.611-.765-1.07l-.917-1.377a4.345,4.345,0,0,1-.612-1.835,7.527,7.527,0,0,1,.306-4.13,11.38,11.38,0,0,1,1.988-3.212c.765-.917,1.683-1.529,2.447-2.294a26.7,26.7,0,0,1,2.753-1.682c.459-.153.918-.459,1.377-.612l1.376-.612c6.883-3.365,13.919-6.729,20.8-10.094,3.518-1.683,7.036-3.365,10.4-4.9l5.2-2.447c1.682-.917,3.518-1.682,5.047-2.447a19.454,19.454,0,0,0,4.13-2.753c.305-.153.458-.459.764-.765l.306-.459.306-.458a5.106,5.106,0,0,0,.765-1.836,4.855,4.855,0,0,0-.306-3.365c-.153-.458-.612-.611-1.071-.917a3.824,3.824,0,0,0-1.988-.459,13.074,13.074,0,0,0-2.447,0,17.011,17.011,0,0,0-2.6.306,35.129,35.129,0,0,0-5.353,1.529c-3.518,1.224-7.036,2.906-10.86,4.13a9.99,9.99,0,0,1-3.212.612,9.407,9.407,0,0,1-1.988-.153,5.727,5.727,0,0,1-1.835-1.071,3.673,3.673,0,0,1-1.071-1.835,7.68,7.68,0,0,1-.306-1.836,7.523,7.523,0,0,1,.612-3.212,10.588,10.588,0,0,1,.612-1.529,6.2,6.2,0,0,1,.765-1.377,13.181,13.181,0,0,1,1.529-2.447c1.071-1.682,2.141-3.365,3.212-4.894a107.115,107.115,0,0,1,7.341-9.177,54.755,54.755,0,0,1,4.13-4.282c1.377-1.377,2.906-2.753,4.282-3.977a1.033,1.033,0,0,1,1.53.153c-.153-.306-.153.306-.612.765Z" fill="#fff"/><path d="M179.451,233.56a53.038,53.038,0,0,0-9.024,8.565c-.612.765-1.376,1.53-1.988,2.447s-1.224,1.683-1.835,2.448a19.845,19.845,0,0,0-1.224,2.6,4.455,4.455,0,0,0-.306,1.376c0,.459-.153.918-.153,1.377a4.488,4.488,0,0,0,.612,2.447,3.253,3.253,0,0,0,1.529,1.376,5.365,5.365,0,0,0,2.448.459l3.211.306c2.142.153,4.283.459,6.271.765l1.53.153h.917c.306,0,.612.153.918.153a11.827,11.827,0,0,1,2.294.917,5.336,5.336,0,0,1,2.142,2.6,7.678,7.678,0,0,1,.305,1.836,4.71,4.71,0,0,1-.153,1.529,2.211,2.211,0,0,1-.305,1.071c-.153.306-.153.612-.306.918a9.716,9.716,0,0,1-2.142,3.364,22.6,22.6,0,0,1-5.659,4.589c-3.823,2.294-7.8,3.824-9.482,6.271a2.469,2.469,0,0,0-.612,1.529,3.42,3.42,0,0,0,.459,1.53,3.909,3.909,0,0,0,1.682,1.376c.306.153.765.459,1.071.612a10.5,10.5,0,0,1,1.529.612,5.184,5.184,0,0,1,1.836.917,5.3,5.3,0,0,1,1.529,1.683,6.815,6.815,0,0,1,.918,4.129,8,8,0,0,1-1.224,3.518c-.612,1.071-1.376,1.836-1.988,2.753a1.111,1.111,0,0,1-1.835-1.224,23.166,23.166,0,0,0,1.376-2.753,4.939,4.939,0,0,0,.459-2.447,3.826,3.826,0,0,0-.612-1.988c-.153-.153-.459-.306-.612-.459a7.392,7.392,0,0,0-1.07-.459l-1.53-.458c-.611-.153-1.223-.459-1.835-.612a11,11,0,0,1-3.365-2.294A8.637,8.637,0,0,1,164,285.1a6.13,6.13,0,0,1-.459-2.294,8.852,8.852,0,0,1,1.07-4.282,11.977,11.977,0,0,1,2.447-3.059c.459-.459.918-.765,1.377-1.224l1.377-.918c1.835-1.223,3.823-2.294,5.353-3.364.764-.612,1.529-1.071,2.294-1.683a20.749,20.749,0,0,0,1.835-1.835,14.016,14.016,0,0,0,1.224-1.988c.153-.306.153-.765.306-.918v0c0,.153.153.306.153.153l-.612-.306c-.612-.153-1.836-.459-2.753-.612-1.989-.459-4.13-1.071-6.118-1.682l-3.059-.918a13.673,13.673,0,0,1-3.518-1.529,7.248,7.248,0,0,1-1.529-1.53,5.167,5.167,0,0,1-.918-1.835,10.559,10.559,0,0,1-.612-3.824,12.013,12.013,0,0,1,2.6-6.577c1.377-1.835,2.753-3.364,4.13-5.047a71.683,71.683,0,0,1,9.177-8.871,1.021,1.021,0,0,1,1.529.153c.612,1.377.612,1.988.153,2.447Z" fill="#fff"/><path d="M242.465,4.293C239.1,1.387,234.206-.142,228.394.01a32.931,32.931,0,0,0-15.3,4.436c-7.188,4.435-10.247,11.318-8.259,18.812,4.589,16.672,20.342,22.942,20.954,23.248.153,0,.459.153.612.153h.459l16.824-4.894a1.51,1.51,0,0,0,1.07-1.071C245.218,39.471,253.936,14.54,242.465,4.293Z" fill="#191919"/><path d="M236.347,152.8h-.459a1.552,1.552,0,0,1-1.07-1.988l5.2-16.824a1.552,1.552,0,0,1,1.988-1.071,1.682,1.682,0,0,1,1.071,1.989l-5.2,16.824A1.52,1.52,0,0,1,236.347,152.8Z" fill="#191919"/><ellipse cx="251.431" cy="98.549" rx="4.283" ry="9.024" transform="translate(62.964 291.965) rotate(-67.145)" fill="#fff"/><path d="M253.783,93a17.733,17.733,0,0,0-7.035-1.529q-3.9.23-5.048,2.753c-.611,1.682-.153,3.67,1.53,5.506a17.889,17.889,0,0,0,5.965,4.129,18.521,18.521,0,0,0,6.577,1.53c2.753,0,4.741-.918,5.659-2.753h0C262.654,99.579,259.289,95.449,253.783,93Zm-8.106,4.589c-.918-.918-1.071-1.683-.918-1.989s.918-.612,2.142-.612h.306a14.906,14.906,0,0,1,5.353,1.224,7.491,7.491,0,0,1,1.07.459,2.814,2.814,0,0,0-2.6,1.682,3.35,3.35,0,0,0,.612,3.059,7.459,7.459,0,0,1-1.071-.459A13.751,13.751,0,0,1,245.677,97.591Z" fill="#191919"/><path d="M241.7,115.791l9.177,7.8s-4.894,3.059-8.718.153C238.947,121.45,241.7,115.791,241.7,115.791Z" fill="#fff"/><path d="M245.83,126.65a8.287,8.287,0,0,1-4.741-1.529c-3.365-2.447-1.989-7.494-.765-10.095a1.619,1.619,0,0,1,1.071-.917,1.466,1.466,0,0,1,1.376.306l9.177,7.8a1.661,1.661,0,0,1,.612,1.376,1.363,1.363,0,0,1-.765,1.224A10.931,10.931,0,0,1,245.83,126.65Zm-3.365-7.953c-.306,1.377-.459,3.059.612,3.824a5.353,5.353,0,0,0,4.741.612Z" fill="#191919"/><path d="M282.69,90.708c-5.506-1.988-11.777.459-15.906,5.659A14.246,14.246,0,0,0,245.677,84.9a18.059,18.059,0,0,0-8.106,22.024,13.882,13.882,0,0,0,8.412,8.412,13.046,13.046,0,0,0,4.741.918c6.424,0,12.542-4.435,15.142-11.318h0c.153-.459.306-.765.459-1.224a1.376,1.376,0,0,0,.918-.917c2.6-6.883,9.023-11.012,14.377-9.024s7.647,9.177,5.2,16.212c-1.989,5.2-6.271,9.024-10.707,9.483a1.713,1.713,0,0,0-1.529,1.835,1.572,1.572,0,0,0,1.682,1.53h.153c5.812-.612,11.165-5.047,13.46-11.624C292.938,102.638,289.726,93.308,282.69,90.708Zm-20.036,13.153c-2.6,6.883-9.635,10.707-15.753,8.565A11.078,11.078,0,0,1,240.477,106a14.334,14.334,0,0,1,0-10.095,15.073,15.073,0,0,1,6.577-7.8,12.093,12.093,0,0,1,5.353-1.377,10.275,10.275,0,0,1,3.67.612C262.348,89.484,265.254,96.826,262.654,103.861Z" fill="#191919"/><path d="M217.535,42.683a2.937,2.937,0,0,1-2.447-1.377,2.871,2.871,0,0,1,.917-3.824c.612-.3,14.377-8.412,30.131-7.647a2.757,2.757,0,0,1-.306,5.506c-14.224-.612-27.072,6.883-27.072,7.036C218.453,42.377,217.994,42.683,217.535,42.683Z" fill="#fff"/><path d="M277.337,46.659c-6.271-6.271-18.048-13.306-38.084-11.012-14.53,1.682-24.777,7.341-30.436,16.824-6.73,11.471-4.436,24.472-2.141,29.825a13.608,13.608,0,0,0-2.906,9.024c0,5.812,4.129,9.176,7.494,10.859l-15.448,28.142a1.727,1.727,0,0,0,.612,2.294,1.147,1.147,0,0,0,.765.153,1.861,1.861,0,0,0,1.529-.917l16.366-29.825a1.463,1.463,0,0,0,0-1.377,1.619,1.619,0,0,0-1.071-.917c-.306,0-7.035-2.141-7.035-8.412a10.762,10.762,0,0,1,2.905-7.648,7.96,7.96,0,0,1,5.812-2.294c4.436.153,7.189,4.741,7.648,5.659,1.682,7.8,5.506,8.565,6.271,8.718h.306c2.294,0,3.823-3.212,6.423-9.024,2.6-5.659,6.577-14.224,10.095-14.224,3.365,0,6.882,3.824,10.094,7.648,3.518,3.976,7.189,8.106,11.777,9.023a18.219,18.219,0,0,0,7.036.153,64.04,64.04,0,0,1-3.977,22.331c-4.741-3.671-4.129-6.73-3.977-6.883a1.449,1.449,0,0,0-1.07-1.988,1.782,1.782,0,0,0-2.141,1.07c-.153.306-2.448,7.495,9.788,13.307.765.459,1.224.918,1.224,1.529s-.459,1.071-1.224,1.53c-2.753,1.376-8.106.612-11.165-3.518a1.654,1.654,0,0,0-2.753,1.835,15.637,15.637,0,0,0,5.2,4.283c-1.682,3.518-6.576,10.859-16.671,10.859a18.956,18.956,0,0,1-6.118-1.071c-.153,0-.306-.153-.459-.153a.475.475,0,0,1-.306-.152,21.262,21.262,0,0,1-10.094-7.954h0a.15.15,0,0,0-.153-.153l-.153-.153a.15.15,0,0,1-.153-.153H229.77a6.027,6.027,0,0,0-2.753,2.753,6.855,6.855,0,0,0,.153,5.2c.612,1.682,2.3,3.212,3.977,4.894,3.518,3.365,5.812,6.118,5.2,9.789l-.459,1.529a1.449,1.449,0,0,0,1.071,1.988c.153,0,.306.153.612.153a1.663,1.663,0,0,0,1.529-1.07c.153-.612.459-1.224.612-1.836l3.365-10.859a24.458,24.458,0,0,0,5.965.765h0c12.388,0,18.047-9.177,19.883-13.154a13.15,13.15,0,0,0,2.447.153,9.991,9.991,0,0,0,4.435-.917,4.745,4.745,0,0,0,0-8.871,9.127,9.127,0,0,1-1.223-.612c2.906-7.036,4.435-15.3,4.435-25.236a24.654,24.654,0,0,0,2.753-1.53c3.977-2.906,6.271-7.494,7.036-13.459C288.961,66.542,285.9,55.224,277.337,46.659Z" fill="#191919"/><ellipse cx="274.018" cy="108.03" rx="4.283" ry="9.024" transform="translate(68.042 318.577) rotate(-67.145)" fill="#fff"/><path d="M276.266,102.638a17.735,17.735,0,0,0-7.035-1.53q-3.9.229-5.047,2.753c-1.377,3.059,1.988,7.189,7.494,9.636a18.518,18.518,0,0,0,6.577,1.529h.459q3.9-.229,5.047-2.753C285.137,109.062,281.925,104.932,276.266,102.638Zm-9.023,2.447c.153-.306.917-.612,2.141-.612h.306a14.906,14.906,0,0,1,5.353,1.224,7.514,7.514,0,0,1,1.07.458,2.813,2.813,0,0,0-2.6,1.683,3.35,3.35,0,0,0,.612,3.059,7.392,7.392,0,0,1-1.07-.459C268.925,108.6,266.937,106,267.243,105.085Z" fill="#191919"/><path d="M218.758,84.59a8.976,8.976,0,0,0-5.353.918h0a3.676,3.676,0,0,0-1.223.917q-2.295,2.3-1.836,6.424a1.668,1.668,0,0,0,1.683,1.53h.153a1.581,1.581,0,0,0,1.376-1.836,7.872,7.872,0,0,1,.153-2.753l1.836,3.365a1.68,1.68,0,0,0,1.529.918,1.379,1.379,0,0,0,.765-.153,1.689,1.689,0,0,0,.612-2.294l-1.989-3.671a5.944,5.944,0,0,1,1.683,0,1.51,1.51,0,0,0,1.835-1.377A1.561,1.561,0,0,0,218.758,84.59Z" fill="#191919"/><path d="M494.674,164.887c-.611-.765-1.07-1.376-7.647.918a6.415,6.415,0,0,0,.153-3.824,3.592,3.592,0,0,0-2.753-2.906c-.612-.153-1.224-.153-9.33,4.894a.15.15,0,0,1,.153-.153,5.037,5.037,0,0,0-2.447-6.729,1.876,1.876,0,0,0-1.988.306l-5.353,5.659a7.371,7.371,0,0,0-4.742-2.753,1.552,1.552,0,0,0-1.529.765c-4.895,7.953-12.848,20.8-13.765,21.871-.153.153-.153.306-.306.459-2.142.917-3.671,1.835-4.742,2.294-6.729,3.671-25.695,20.342-27.683,22.024-3.671,1.836-10.248,6.577-18.66,12.542-12.235,8.718-28.6,20.342-41.3,26.613-.918.458-1.683.764-2.6,1.223-4.436,1.988-8.259,3.212-11.013,3.212h-.458c-9.177-.459-21.413-17.283-33.343-33.5-8.565-11.777-17.589-23.86-26.307-31.966-19.424-17.589-36.248-26.766-39.919-28.6-.459-4.13-.612-6.424-.612-6.577v-.612h0V149.9a.15.15,0,0,0-.152-.153l-.153-.153-.153-.153h-.153a.15.15,0,0,1-.153-.152h-1.377l-14.377,6.576-22.789-26a1.661,1.661,0,0,0-1.376-.612,1.56,1.56,0,0,0-1.224.765l-5.812,8.718c-6.118-.153-39.919-.459-68.52,14.683C89.977,170.546,41.8,212.607,41.34,258.491c-.306,31.965,24.624,54.143,45.884,67.143L74.835,358.518a1.673,1.673,0,0,0,.612,1.988s2.294,1.53,5.659,3.671q-2.752,5.506-5.047,10.553c-3.671,8.106-5.506,19.73-4.894,30.131a52.927,52.927,0,0,0,3.67,16.977c-14.377,10.094-46.954,18.047-59.343,21.106a23.629,23.629,0,0,0-2.294.612Q2.185,446.31.35,451.356a5.826,5.826,0,0,0,1.071,5.812c2.753,3.671,14.836,5.048,34.566,6.883,3.059.306,6.118.612,9.024.918C63.67,466.8,86,470.781,92.118,471.851c-1.376,9.789-1.835,17.283-1.835,17.895a1.666,1.666,0,0,0,1.529,1.682c.918.153,84.121,9.177,118.84,14.836l2.447.459c23.707,3.977,55.214,9.177,80.6,9.177,14.377,0,26.766-1.682,34.719-6.118,11.471-6.424,20.189-20.954,22.789-37.778a71.467,71.467,0,0,0-.918-25.695h5.354c39,0,61.331-9.635,70.355-29.977a62.345,62.345,0,0,0,3.518-36.555c-2.294-11.471-9.33-27.071-29.213-36.248-16.518-7.647-43.437-14.683-65.92-19.577,11.93-.459,22.33-2.906,30.283-7.648,12.542-7.494,28.143-22.636,46.343-45.119,13-16.059,22.636-30.13,23.554-31.354,7.953-8.565,16.212-16.212,17.589-17.436,2.447-.918,22.636-3.824,40.684-5.965a1.58,1.58,0,0,0,1.376-1.835c-.764-6.577-6.423-7.342-11.471-7.953-5.965-.765-12.082-1.683-14.53-9.636-3.364-9.789,9.33-16.06,18.66-20.8,1.988-1.071,3.977-1.988,5.506-2.906,2.294-1.376,3.518-2.906,3.824-4.741A9.492,9.492,0,0,0,494.674,164.887Zm-11.012-2.447a2.211,2.211,0,0,1,.306,1.071,1.4,1.4,0,0,1-.459,1.223l-3.364,3.212-.306.306c-3.059,1.223-6.73,2.753-11.318,4.588-1.683.612-3.365,1.377-5.048,2.142C472.65,169.323,481.215,163.816,483.662,162.44ZM472.038,160.6c.153.458.459.917,0,1.529-1.07,2.141-5.812,6.73-7.8,8.412-1.835,1.071-3.518,2.294-5.2,3.365Zm-10.859,3.211a2,2,0,0,1,1.53,1.377c0,.153,0,.153.153.306l-7.648,7.953C457.661,169.475,459.956,165.652,461.179,163.816Zm-214.125,44.2c.458,2.294,2.753,3.671,4.894,4.894,3.365,1.989,4.894,3.059,4.129,5.354a48.682,48.682,0,0,1-2.906,6.576,126.853,126.853,0,0,0-8.106,20.495c-1.376-30.895-3.976-61.485-5.659-79.073,8.565,15.906,16.366,31.813,16.518,34.719-.611.764-2.294,1.223-3.67,1.682C250.113,203.43,246.442,204.5,247.054,208.018Zm-1.071,82.438c9.636,10.095,23.707,18.966,39.766,25.084a282.534,282.534,0,0,0-40.99-1.53C245.218,306.822,245.677,298.869,245.983,290.456ZM234.971,153.569c.306,3.365,1.07,10.247,1.988,19.577l-7.188,4.436-6.73-18.507Zm-14.53,36.86c0-3.365.153-6.729.459-10.247.153-3.365.459-6.883.764-10.248.153-1.376.153-2.906.306-4.282l5.506,15.142a1.849,1.849,0,0,0,1.071,1.07c.153,0,.306.153.459.153.306,0,.612-.153.918-.153l7.494-4.741c3.212,35.331,7.8,99.109,3.977,137.193a283.694,283.694,0,0,0-34.108,3.824,39.407,39.407,0,0,1-.917-8.412,42.178,42.178,0,0,1,1.529-9.789,70,70,0,0,1,3.365-9.483c1.377-3.212,2.906-6.118,4.435-9.176l4.895-9.177a92.469,92.469,0,0,0,4.435-9.636,47.925,47.925,0,0,0,3.059-10.4,44.41,44.41,0,0,0,.612-11.012,47.9,47.9,0,0,0-2.141-10.554c-1.071-3.365-2.142-6.729-3.212-9.941-.459-1.683-1.071-3.212-1.377-4.9-.153-.764-.459-1.682-.611-2.447-.153-.917-.306-1.682-.459-2.447a74.729,74.729,0,0,1-.765-10.094C220.288,197.159,220.288,193.794,220.441,190.429Zm2.753,144.841,10.553,1.07c5.506.918,11.777,2.448,16.671,5.048,8.871,4.894,18.966,17.894,22.025,27.683a196.468,196.468,0,0,0-20.495-9.177h-.765c-.153,0-.153,0-.306.153h0c-6.882,3.365-23.859,2.141-33.5,1.071h-.153l-4.894-.612C215.394,349.953,221.359,338.482,223.194,335.27Zm-15.6,29.672-14.683-3.824c1.836-5.506,8.26-23.707,15.907-31.507l11.165,4.588C217.382,339.093,210.193,353.165,207.593,364.942ZM223.806,241.36a40.846,40.846,0,0,1-.612,9.636,51.3,51.3,0,0,1-2.6,9.483c-1.224,3.059-2.447,6.271-3.824,9.33s-2.906,6.117-4.435,9.329c-3.059,6.271-6.118,12.7-7.8,19.577a40.959,40.959,0,0,0-1.529,10.554,37.389,37.389,0,0,0,.918,9.177l-6.883,1.376c-3.059-1.682-6.577-3.671-10.095-5.659,4.283-17.589,7.648-35.178,10.248-51.543h0v-.459a365.872,365.872,0,0,0,4.435-42.519,252.84,252.84,0,0,0-2.141-48.178l12.083,9.788a2.211,2.211,0,0,0,1.071.306h.458a1.512,1.512,0,0,0,1.071-1.07l3.977-10.554c-.612,3.212-1.071,6.424-1.53,9.636-.459,3.518-.765,7.035-.918,10.4a61.054,61.054,0,0,0,.459,10.554l.306,2.6.459,2.6c.153.918.306,1.682.459,2.6s.306,1.682.459,2.6c.612,3.518,1.529,6.883,2.294,10.247C221.817,228.207,223.5,234.937,223.806,241.36Zm-26.46-107.521,21.718,24.624-7.035,18.813-13.154-10.554a161.822,161.822,0,0,0-6.118-25.848Zm-5.812,14.836c3.212,11.471,8.412,36.1,6.73,70.967-.306,8.412-1.224,17.742-2.448,27.683-2.753-9.788-8.106-19.118-11.624-25.083a40.96,40.96,0,0,1-2.906-5.506c0-.765,2.295-2.6,3.671-3.824,2.447-1.988,5.2-4.282,5.506-7.035a3.694,3.694,0,0,0-.764-2.906c-1.53-1.836-4.436-1.988-7.5-1.988a16.231,16.231,0,0,1-3.212-.306c-.153-1.071,1.071-4.742,2.141-8.107,1.224-3.517,2.6-7.8,3.977-13A219.251,219.251,0,0,0,191.534,148.675ZM71.624,311.257c-18.507-15.6-27.837-33.342-27.684-52.461.153-24.93,15.3-47.107,27.989-61.484,14.072-16.06,33.19-31.2,51.085-40.684,26.765-14.224,58.425-14.377,66.073-14.224a248.452,248.452,0,0,1-7.036,36.554c-1.376,5.047-2.753,9.33-3.976,12.695a48.938,48.938,0,0,0-2.142,7.341c-.459,2.6.153,4.283,1.836,4.894a17.193,17.193,0,0,0,4.435.612c1.683,0,4.436.153,5.047.918v.306c-.153,1.376-2.447,3.365-4.282,4.741-2.6,2.141-5.047,4.13-4.742,6.577.153,1.223,1.071,2.906,3.365,6.883,5.048,8.718,14.377,24.777,12.389,37.93-2.447,16.06-5.812,33.343-9.942,50.779a102.835,102.835,0,0,1-13-9.024c-2.141-1.683-4.741-3.824-7.8-6.271-13-10.553-30.437-24.93-40.99-29.519,1.988-3.365,6.73-11.012,11.471-18.965,12.695-21.719,11.93-23.248,11.471-24.472a5.367,5.367,0,0,0-4.741-2.906,12.608,12.608,0,0,0-11.013,5.66,34.732,34.732,0,0,0-3.517,8.412c-1.989,6.117-3.824,11.929-11.318,13.306-1.071.153-2.142.459-3.365.612-10.554,1.835-23.554,4.129-27.684,9.941a7.318,7.318,0,0,0-1.223,5.659c1.376,8.26,14.377,9.483,26.766,10.554a87.9,87.9,0,0,1,10.553,1.223,73.062,73.062,0,0,1,22.789,8.718l4.741,3.059c4.9,3.824,9.636,7.8,13.765,11.165,3.059,2.447,5.66,4.589,7.8,6.271a119.19,119.19,0,0,0,15.142,10.248.149.149,0,0,1,.152.152c4.589,2.754,9.177,5.354,13,7.342a.15.15,0,0,1,.153.153h.153c3.365,1.835,6.271,3.212,8.106,4.129-7.953,8.871-14.224,26.613-16.059,32.119-9.024-2.753-54.3-16.212-74.333-23.859C107.872,333.587,88.448,325.481,71.624,311.257Zm5.965,47.414,11.623-31.049a167.587,167.587,0,0,0,24.931,11.93c13.765,5.2,39.154,13.154,56.743,18.507-1.988,5.812-3.824,10.553-5.353,14.224-3.059,6.882-7.189,11.318-12.848,13.459-4.435,1.683-9.635,1.836-15.141.918a95.389,95.389,0,0,1-11.012-2.753,156.912,156.912,0,0,1-18.2-7.5C97.319,371.365,81.871,361.424,77.589,358.671Zm20.036,82.438c-2.448,3.059-8.107,11.471-11.013,26.613-5.047-.918-12.541-2.141-20.647-3.365a10.893,10.893,0,0,0-1.989-5.659c-1.376-2.447-1.988-3.824-.917-5.965,1.835-3.671,17.588-10.706,27.377-14.377A43.913,43.913,0,0,0,97.625,441.109Zm249.609,30.742c-2.447,15.6-10.707,29.519-21.107,35.331-21.107,11.93-78.615,2.294-113.028-3.365l-2.447-.459c-32.119-5.353-105.686-13.459-117.463-14.836.459-6.117,2.294-29.212,9.177-46.037a179.338,179.338,0,0,0,20.954,4.436c8.106,8.106,19.883,12.389,36.4,13.153,13,.612,28.907-1.07,48.484-5.2,21.107-4.282,44.508-.917,66.073,9.636,2.447,1.07,11.624,5.353,19.424,5.353,3.365,0,6.271-.765,8.565-2.753a8.119,8.119,0,0,0,2.906-6.271,7.866,7.866,0,0,0-3.67-5.965h0c-17.895-12.236-80.6-11.012-115.016-8.259-23.095,1.835-60.873-.918-84.274-7.647-.153,0-.153,0-.306-.153a86.869,86.869,0,0,1-10.247-3.671.15.15,0,0,1-.153-.153,33.929,33.929,0,0,1-6.271-3.824C71.777,420,71.93,393.237,78.2,377.789a154.193,154.193,0,0,0,60.108,12.389h.153a39.3,39.3,0,0,0,5.965.458,28,28,0,0,0,10.095-1.682c6.424-2.447,11.471-7.647,14.836-15.3a156.389,156.389,0,0,0,5.506-14.683c9.329,2.907,15.906,4.742,16.059,4.895h0l17.9,4.588a7.278,7.278,0,0,0,2.753.612,7.546,7.546,0,0,0,2.294-.459,8.47,8.47,0,0,0,4.589-4.129c4.741.458,11.012,1.07,17.13,1.07,6.423,0,12.541-.612,16.671-2.294,4.894,1.835,38.084,14.836,67.3,41.6l9.636,9.482a73.04,73.04,0,0,1,17.436,30.743.559.559,0,0,0,.153.458A85.4,85.4,0,0,1,347.234,471.851Zm-7.5-142.7a.92.92,0,0,0,.612-.153c35.025,8.106,51.7,14.836,58.12,17.742,18.506,8.718,25.083,23.248,27.224,33.954,2.753,13.612.153,26.766-3.364,34.566-8.871,20.036-32.272,28.907-73.721,27.989a74.669,74.669,0,0,0-14.989-27.836,104.412,104.412,0,0,0,11.013.459,135.008,135.008,0,0,0,16.518-1.071c13.765-1.835,21.871-9.33,23.554-15.6a9.494,9.494,0,0,0-3.212-10.094c-7.189-5.812-16.213-.459-24.166,4.283-2.447,1.376-4.741,2.753-7.035,3.823-8.565,4.13-26.307,4.436-29.978,4.589a221.976,221.976,0,0,0-44.2-30.743c-1.988-10.859-13.765-26.765-24.318-32.73a56.967,56.967,0,0,0-14.377-4.895c-.918-2.447-.918-4.588.306-6.576,1.988-3.365,7.341-6.118,15.294-7.8a83.693,83.693,0,0,1,11.93-1.682h.612c3.824-.306,7.953.459,13.459,2.753,1.53.612,2.906,1.224,4.436,1.835a62.245,62.245,0,0,0,9.33,3.671,73.3,73.3,0,0,0,13.918,2.294c9.635.918,18.048,1.224,25.848,1.224C335.151,329.305,337.445,329.152,339.739,329.152ZM362.528,313.7c-13.459,8.107-35.636,9.483-59.037,3.824-23.248-5.659-44.508-17.283-56.743-31.2-.153-.153-.459-.306-.612-.459.153-8.106,0-16.518-.153-25.236h0c1.224-14.53,6.883-26.307,10.553-34.26a70.289,70.289,0,0,0,3.059-7.036c1.53-5.047-2.753-7.647-5.659-9.177-1.376-.764-3.212-1.835-3.365-2.6-.153-.612.918-1.07,3.212-1.682,2.141-.612,4.589-1.377,5.659-3.365.612-1.071,1.377-2.753-9.635-24.166-2.906-5.812-6.118-11.471-8.107-15.447a208.427,208.427,0,0,1,35.025,25.848c8.718,7.953,17.436,19.883,26,31.507.612.917,1.377,1.835,1.988,2.753,3.059,5.659,10.554,21.565,9.177,28.295-1.07,4.894-3.517,8.718-5.659,11.93-2.906,4.435-5.659,8.565-1.835,13a4.429,4.429,0,0,0,3.518,1.53c4.435,0,11.471-5.2,20.189-11.777A198.584,198.584,0,0,1,348,253.443a30.685,30.685,0,0,0,6.73-3.518c10.553-5.353,23.4-13.918,34.566-22.024,1.377,2.447,4.283,7.189,8.106,12.542q9.865,13.766,18.813,18.812C401.683,277.609,380.27,303.151,362.528,313.7ZM417.9,256.655c-11.93-6.424-23.248-25.542-26.154-30.742,1.377-.918,2.753-1.835,3.977-2.753,7.035-5.047,13.306-9.483,16.977-11.624,2.447,4.741,10.553,19.271,17.895,27.683C428.907,241.666,424.319,248.243,417.9,256.655Zm74.485-88.25c-.153.765-.917,1.529-2.294,2.447a53.629,53.629,0,0,1-5.2,2.753c-9.789,4.894-24.472,12.236-20.342,24.777,3.212,9.942,11.318,11.166,17.283,11.93,4.435.612,7.188,1.071,8.259,3.518-3.365.459-10.859,1.377-18.2,2.294-20.8,2.753-21.565,3.518-22.33,4.13-.918.765-8.871,7.953-16.824,16.518-7.189-8.412-14.989-22.789-17.283-27.072,4.13-3.67,20.5-17.741,26.307-20.953,7.494-4.283,44.354-19.883,50.472-21.107A1.147,1.147,0,0,1,492.38,168.405Z" fill="#181818"/></g></g>
            </g>
        </g>
    </g>
    
    <!-- ITEM 2 -->
    <g>
        <defs>
            <clipPath id="clip-path-id-viewbox-item-2">
                <rect x="0.0" y="0.0" width="197.0" height="96.378"/>
            </clipPath>
        </defs>
        <g transform="translate(693.0 455.0) rotate(224.2720200865257 61.5 30.0) scale(0.6243654822335025 0.6225487144369047)">
            <g clip-path="url(#clip-path-id-viewbox-item-2)" transform="translate(-0.0 -0.0)">
                <title>big_brush</title><g id="b53ee694-f12f-4416-b8a6-08e6405c5284-i2" data-name="Layer 2"><g id="e413ddad-fb4f-4b95-89c6-a2e1338b30e2-i2" data-name="big_brush"><path d="M155.443,1.5H114.6V15.35a17.244,17.244,0,0,1-12.976,16.73C92,34.546,81.313,37.405,73.757,37.405c-17.215,0-28.04-8.687-52.828-8.828C10.985,28.529,2.314,36.023,1.56,45.935A18.841,18.841,0,0,0,20.348,66.278c25.133,0,36.051-8.829,53.409-8.829,7.556,0,18.238,2.859,27.867,5.326A17.242,17.242,0,0,1,114.6,79.5v13.85h40.843ZM12.493,47.427a9.426,9.426,0,1,1,9.425,9.425A9.432,9.432,0,0,1,12.493,47.427Z" fill="#5cdb95"/><path d="M155.443,94.854H114.6a1.5,1.5,0,0,1-1.5-1.5V79.5a15.739,15.739,0,0,0-11.846-15.276l-1.634-.419c-8.869-2.278-18.92-4.86-25.863-4.86-7.674,0-13.934,1.738-21.184,3.75C44,65.08,34.278,67.777,20.348,67.777A20.417,20.417,0,0,1,5.4,61.244,20.166,20.166,0,0,1,.064,45.818c.8-10.526,9.914-18.741,20.769-18.741h.1c13.658.078,23.23,2.737,31.676,5.083,7.233,2.01,13.48,3.745,21.145,3.745,6.941,0,16.99-2.581,25.857-4.858l1.638-.421A15.737,15.737,0,0,0,113.1,15.35V1.5A1.5,1.5,0,0,1,114.6,0h40.843a1.5,1.5,0,0,1,1.5,1.5V93.354A1.5,1.5,0,0,1,155.443,94.854Zm-39.343-3h37.843V3H116.1V15.35a18.735,18.735,0,0,1-14.106,18.183l-1.633.42c-9.481,2.434-19.284,4.952-26.6,4.952-8.074,0-14.813-1.872-21.949-3.854-8.264-2.3-17.631-4.9-30.888-4.974h-.088c-9.294,0-17.094,7-17.776,15.972a17.2,17.2,0,0,0,4.55,13.158,17.408,17.408,0,0,0,12.742,5.57c13.522,0,23.032-2.639,31.422-4.968,7.151-1.985,13.9-3.86,21.987-3.86,7.321,0,17.127,2.519,26.609,4.954l1.63.418A18.737,18.737,0,0,1,116.1,79.5Zm-94.182-33.5A10.926,10.926,0,1,1,32.844,47.427,10.938,10.938,0,0,1,21.918,58.353Zm0-18.851a7.926,7.926,0,1,0,7.926,7.925A7.934,7.934,0,0,0,21.918,39.5Z" fill="#1a1a1a"/><rect x="104.017" y="40.358" width="91.854" height="15.709" transform="translate(198.157 -101.732) rotate(90)" fill="#1a1a1a"/><path d="M171.151,30.561s19.678,6.681,22.406,10.017c-.107,26.666.153,45.351,1.943,54.3,0,0-28.276-7.854-42.414-1.571,0-26.7,1.571-87.88,1.571-87.88L157.8,4.118s14.138-4.974,36.13-.262c0,0-.183,10.4-.3,24.741A64.827,64.827,0,0,0,171.151,30.561Z" fill="#fff"/><path d="M195.5,96.378a1.486,1.486,0,0,1-.4-.055c-.277-.076-27.923-7.636-41.4-1.645a1.5,1.5,0,0,1-2.11-1.371c0-26.419,1.556-87.307,1.572-87.918a1.5,1.5,0,0,1,.922-1.347l3.142-1.309c.672-.239,14.871-5.089,37.022-.343a1.5,1.5,0,0,1,1.185,1.493c0,.1-.184,10.561-.3,24.726a1.5,1.5,0,0,1-1.645,1.48,63.393,63.393,0,0,0-16.924.792c6.309,2.307,16.05,6.171,18.157,8.747a1.5,1.5,0,0,1,.339.955c-.108,26.89.174,45.3,1.914,54a1.5,1.5,0,0,1-1.471,1.8Zm-27.747-7.016c10.392,0,21.246,2.351,25.876,3.485-1.422-9.561-1.668-27.07-1.574-51.662-2.668-2.316-14.3-6.8-21.386-9.2a1.5,1.5,0,0,1,.048-2.856,65.974,65.974,0,0,1,21.427-2.157c.091-10.587.216-18.869.265-21.895-20.646-4.143-33.978.412-34.112.46l-2.165.9c-.194,7.714-1.47,59.246-1.542,84.688A42.832,42.832,0,0,1,167.753,89.362Z" fill="#1a1a1a"/></g></g>
            </g>
        </g>
    </g>
    
    <!-- ITEM 3 -->
    <g>
        <defs>
            <clipPath id="clip-path-id-viewbox-item-3">
                <rect x="0.0" y="0.0" width="606.0" height="553.95"/>
            </clipPath>
        </defs>
        <g transform="translate(745.0 380.0) rotate(11.3163638663203 193.0 176.5) scale(0.636963696369637 0.6372416283058038)">
            <g clip-path="url(#clip-path-id-viewbox-item-3)" transform="translate(-0.0 -0.0)">
                <title>man_in_a_suit_sitting</title><g id="Layer_2-i3" data-name="Layer 2"><g id="man_in_a_suit_sitting-i3"><path d="M327.443,10.542c-9.059,0-18.448.659-26.519,4.777-2.142.988-4.283,2.635-4.613,4.941s1.483,4.283,2.965,5.93l-6.424,4.942a14.284,14.284,0,0,0-2.306,2.141c-1.647,2.636,0,6.589,2.636,8.236s6.094,1.812,9.224,1.977l33.108.988c3.459.165,7.577,0,9.719-2.965a10.707,10.707,0,0,0,1.482-3.788c1.318-4.777,2.965-9.554,4.777-14.331,1.647-4.118,6.095-13.013-1.647-13.507-3.624-.165-7.577.494-11.2.494C335.02,10.707,331.232,10.542,327.443,10.542Z" fill="#5cdb95"/><path d="M396.131,354.805s-67.864-2.636-98.831-2.965-105.75,8.73-131.776,25.2-43.65,26.355-46.45,59.3,23.719,59.134,84.5,62.1c0,0,.495,37.391,36.9,48.592,36.567,11.2,70.335,2.306,70.335,2.306s55.51-12.189,70.664-18.778c14.99-6.589,55.51-13.672,55.51-13.672l62.594-12.848s1.647-33.108-16.966-55.51c0,0,21.578-23.061,20.754-57.981s-9.389-35.909-9.389-35.909H396.131Z" fill="#5cdb95"/><path d="M165.524,377.207c-26.025,16.471-43.65,26.355-46.45,59.3a59.455,59.455,0,0,0,.164,10.872,14.93,14.93,0,0,0,1.318-2.142,46.508,46.508,0,0,1,13.013-15.318c7.083-5.436,15.648-9.06,21.413-15.978,1.318-1.647,2.636-3.624,2.8-5.765s-.659-4.612-2.636-5.436c-1.153-.494-2.8-.494-3.788-1.318-1.483-.988-1.483-3.129-.659-4.777a9.6,9.6,0,0,1,3.788-3.459c9.225-5.6,20.425-7.083,30.967-9.059,10.707-2.142,21.743-5.271,28.991-13.178,1.647-1.812,3.294-4.447,2.306-6.753-.659-1.647-2.471-2.471-4.283-2.636C192.868,365.512,175.572,370.782,165.524,377.207Z" fill="#fff"/><path d="M357.916,174.932l15.319-3.954s-3.624,44.145-.164,68.359,24.048,115.632,24.048,115.632-32.779-1.482-33.437-1.482S329.914,352,329.914,352l-3.788-42.827-2.471-47.933,2.635-39.368,4.118-41.179,10.048-10.872Z" fill="#fff"/><path d="M86.624,219.57,57.3,207.381s-6.918-14-7.083-14.66-2.635-8.4-2.635-8.4-5.765-.659-4.612,9.059L29.631,180.367s-6.094,2.471,2.636,13.013l-15.813-7.412s-4.942,2.965,3.294,8.73,18.119,12.518,18.119,12.518l-35.744-.164s-3.459,4.612,5.93,6.918c9.389,2.141,30.967,3.624,37.227,8.9s7.741,17.295,5.106,19.272c-2.471,1.977-20.26,13.836-20.26,13.836s-6.26,5.93-4.613,9.06l12.354-2.965,15.978-1.977,13.178-.823,7.741-21.084Z" fill="#5cdb95"/><path d="M86.624,219.57l14.825,7.577a290.567,290.567,0,0,0-20.59,45.133l-15.154-7.741,4.941-16.307Z" fill="#fff"/><path d="M101.449,227.147,156.3,254.491l35.579,15.648s17.3,3.459,21.743,2.141,18.943-11.2,18.943-11.2l21.743-27.838,17.954-25.2,21.908-26.52s25.367-21.413,38.38-23.225l-.659,9.883-4.448,37.556-2.8,46.945L325.8,304.4s-25.531,24.872-58.64,34.426c-33.273,9.718-45.792,7.083-45.792,7.083s-35.414-1.977-70.994-21.578S79.541,278.54,79.541,278.54,87.448,249.385,101.449,227.147Z" fill="#5cdb95"/><path d="M253.32,234.725a1.844,1.844,0,0,0-2.471.494l-17.3,22.237c0,.165-8.565,10.871-20.26,13.342-11.695,2.306-31.626-7.248-31.791-7.412a1.772,1.772,0,0,0-2.306.659,1.859,1.859,0,0,0,.659,2.47c.165,0,10.872,6.424,14.5,15.978,1.977,5.271.824,8.895,0,12.189-.823,2.636-1.647,5.436.33,8.072a8.218,8.218,0,0,0,6.918,3.459h.659c8.73-.659,21.084-12.684,30.308-29.156,7.248-12.848,21.084-39.532,21.249-39.7C254.308,236.207,254.143,235.219,253.32,234.725Z" fill="#fff"/><polygon points="346.715 162.083 330.079 183.662 332.55 158.295 346.715 162.083" fill="#fff"/><polygon points="346.715 162.083 363.187 180.861 373.07 173.449 376.694 137.705 346.715 162.083" fill="#fff"/><path d="M376.694,137.705l-22.4-36.568s12.848-6.259,10.212-20.095S350.669,70.17,350.669,70.17l-10.213,8.4-17.3-12.683L294.17,73.135l-8.9,16.307s-1.976,15.484,11.366,29.65c0,0-8.236,6.094-3.624,10.871l6.424-.165s8.236,13.178,20.1,13.178h10.377s.659,15.813,2.636,15.319,14.165,3.953,14.165,3.953Z" fill="#5cdb95"/><polygon points="342.762 187.615 333.703 305.883 346.057 318.567 365.493 292.212 351.492 185.803 342.762 187.615" fill="#5cdb95"/><path d="M357.587,173.12,351.492,185.8l-8.73,1.812s-6.259-12.519-5.436-12.683c.989-.165,9.389-12.848,9.389-12.848Z" fill="#5cdb95"/><path d="M507.811,338.168,478.491,267.5s-10.707-24.214-6.589-37.556,23.061-54.028,23.061-54.028L514.4,125.186l4.283-25.7s-4.118-57.816-20.919-73.135c-16.637-15.319-28-9.389-28-9.389L400.579,7.248,356.1,2.141l-14.5,53.7,53.7,10.212,43.98,10.213s-2.306,35.25-24.048,50.9c-10.872,7.742-15.978,10.872-15.978,10.872H379l-2.47,5.271-3.624,30.473s-.824,48.1,1.647,76.594c2.635,28.5,22.072,104.267,22.237,105.091.165.659,11.366,57.487,30.308,58.31,19.108.824,38.545-27.343,38.545-27.343Z" fill="#5cdb95"/><polygon points="356.269 1.977 341.609 55.675 368.458 60.617 384.107 5.93 356.269 1.977" fill="#fff"/><path d="M487.88,17.625c-.33,0-30.309-6.589-49.746-9.06-18.942-2.306-52.051-4.447-53.863-4.612L359.893.494C357.916.165,356.434,0,356.269,0a1.957,1.957,0,0,0-1.977,1.647,1.7,1.7,0,0,0,1.483,1.977l3.13.494c5.435.988,17.13,3.624,23.554,10.377,7.907,8.4,12.684,12.684,18.284,14a16.572,16.572,0,0,0,4.118.5c4.612,0,9.883-1.483,17.625-3.624,1.977-.494,3.789-.989,5.6-1.483,17.3-4.777,30.8-8.73,58.8-2.635a1.891,1.891,0,0,0,2.142-1.318A1.625,1.625,0,0,0,487.88,17.625Z" fill="#fff"/><path d="M272.427,403.562c-9.883,3.623-20.59,12.518-28,19.766A253.355,253.355,0,0,0,219.552,451.5c-4.447,5.765-8.73,11.86-11.036,18.778-2.635,7.906-2.635,16.472-5.106,24.378-.33,1.153-.824,2.471-1.318,3.789h1.483s.494,37.391,36.9,48.592a88.435,88.435,0,0,0,8.895,2.306l.164-.165c-12.354-7.083-25.366-15.813-29.814-29.32-3.129-9.389-1.647-20.095,2.965-28.99s12.025-16.143,20.261-21.743c2.635-1.812,5.435-3.624,7.082-6.259s1.483-6.754-1.317-8.566a20.19,20.19,0,0,0-2.8-1.153c-3.788-1.977-4.612-7.248-2.8-11.2s5.436-6.424,8.73-9.059c5.766-4.118,11.366-8.566,16.8-13.013,3.953-3.13,11.695-7.577,13.836-12.354C285.934,399.444,278.028,401.585,272.427,403.562Z" fill="#fff"/><path d="M379,136.058,358.246,101.3a21.543,21.543,0,0,0,7.577-11.53,19.82,19.82,0,0,0-1.812-15.319c-1.977-3.294-4.777-5.6-7.907-6.095a11.679,11.679,0,0,0-4.776,0c-.165-2.635-.824-8.565-1.812-14.989-1.977-11.695-4.448-19.437-7.577-22.567-2.306-2.47-4.777-3.459-7.248-2.965-3.13.5-5.271,2.965-6.589,4.777-3.624-2.47-8.236-3.624-14-3.459-15.484.824-35.579,12.025-43.815,21.578a25.733,25.733,0,0,0-6.259,21.084,25.308,25.308,0,0,0,11.365,17.461c5.271,3.129,11.695,3.623,19.437,1.482a55.061,55.061,0,0,0,15.648-7.577,42.691,42.691,0,0,0,9.554-9.224,20.551,20.551,0,0,1,2.141-2.471h0c1.977.824,5.271,7.412,7.577,16.472,1.318,5.271,3.459,10.707,8.731,10.707h.494c4.612-.165,5.106-6.919,5.765-18.12v-.329a9.248,9.248,0,0,1,3.953-6.753,7.994,7.994,0,0,1,12.189,2.965,16.117,16.117,0,0,1,1.483,12.353c-2.306,7.578-7.248,10.378-7.413,10.378a1.741,1.741,0,0,0-.988,1.153,2.321,2.321,0,0,0,.165,1.482l21.743,36.238a2.181,2.181,0,0,0,1.647.989,2.085,2.085,0,0,0,.988-.165A2.242,2.242,0,0,0,379,136.058Z" fill="#191919"/><path d="M87.283,217.923c-2.471-.988-23.39-9.883-28.991-11.365-4.776-6.754-9.059-22.567-9.059-22.732a1.754,1.754,0,0,0-2.141-1.317,8.273,8.273,0,0,0-5.107,2.965,5.141,5.141,0,0,0-.823,4.118v.329L30.949,178.885a1.579,1.579,0,0,0-1.647-.494,4.755,4.755,0,0,0-3.624,2.965c-.824,2.141-.165,4.941,1.977,8.565l-10.213-5.6a1.859,1.859,0,0,0-2.471.658c-1.153,1.812-2.635,6.095.989,9.06,2.141,1.812,10.212,7.412,15.648,11.2h-3.13c-7.083-.165-13.342-.165-17.954-.165-9.224,0-9.224.165-9.883,1.153a7.544,7.544,0,0,0,0,6.095,6.21,6.21,0,0,0,5.271,3.294l1.317.165c20.59,2.635,33.109,5.436,37.062,8.565,3.3,2.636,8.071,10.707,5.107,16.308-.5.988-4.448,3.459-7.742,5.271-9.225,5.6-20.92,12.683-17.625,19.766a1.81,1.81,0,0,0,1.647.988h.494c21.908-5.765,37.556-7.577,39.862-6.094a2.056,2.056,0,0,0,2.636-.5,1.889,1.889,0,0,0-.494-2.635c-1.648-1.153-6.095-2.471-24.214,1.153-6.918,1.318-13.507,2.965-16.8,3.788.824-4.118,10.378-9.883,16.308-13.507,5.271-3.294,8.236-5.106,9.059-6.753,2.471-4.777,1.153-14.989-6.094-20.919-6.095-4.777-25.038-7.577-38.874-9.389l-1.318-.165a2.652,2.652,0,0,1-2.306-1.153,4.185,4.185,0,0,1-.329-1.977c4.118-.165,20.589,0,33.932.33h.329c9.224.164,17.3.659,18.778.823,2.636.494,18.778,7.083,28.826,11.366a1.942,1.942,0,0,0,2.471-.988C88.765,219.406,88.271,218.253,87.283,217.923ZM46.1,194.863s-.494-2.636-1.153-5.93a2.065,2.065,0,0,1,.165-1.483,3.577,3.577,0,0,1,1.153-.988A142.294,142.294,0,0,0,51.045,200.3L46.1,194.863Zm-16.8-12.19a.161.161,0,0,1,.165-.164l15.648,16.8L35.726,194.2C28.643,186.132,29.137,183.168,29.3,182.673ZM18.43,191.239a2.5,2.5,0,0,1-.823-2.636l15.648,8.566a3.635,3.635,0,0,0,.824.494L49.068,205.9c-3.13-.165-6.753-.165-10.542-.33C35.891,203.428,21.231,193.545,18.43,191.239Z" fill="#191919"/><path d="M482.609,448.859s1.811,1.153,4.612-5.93c0,0,30.473,5.107,33.273,13.343,2.965,8.236-2.141,14.989-2.141,14.989l-22.4,5.765S484.585,449.848,482.609,448.859Z" fill="#5cdb95"/><path d="M605.654,444.577c-1.483-5.107-8.4-9.06-15.978-9.06h0a40.311,40.311,0,0,0-4.118.165c-8.236.494-23.555,1.318-36.074-4.942-15.977-8.071-41.179-12.683-53.039-6.753a1.74,1.74,0,0,0-.824,2.471,1.987,1.987,0,0,0,.824.823c-1.812,3.13-6.589,9.554-8.73,13.837h-.494a1.747,1.747,0,1,0-.494,3.459c9.224,1.317,24.707,5.271,27.014,10.212a2.72,2.72,0,0,1-.5,2.8c-3.129,4.941-3.953,8.894-2.306,11.7a3.587,3.587,0,0,0,1.153,1.482l-16.8,4.283a1.648,1.648,0,0,0-1.318,2.141,1.93,1.93,0,0,0,1.812,1.483h.494l24.543-6.26c3.954,4.283,18.778,19.931,28.826,19.931h.989a7.205,7.205,0,0,0,5.929-3.953,8.477,8.477,0,0,0,1.318-4.447H559.2a13.015,13.015,0,0,0,6.589-1.483,6.316,6.316,0,0,0,2.964-6.095,7.927,7.927,0,0,0-3.459-6.753c-2.8-2.141-7.247-3.294-12.189-3.789,19.931-4.118,43.651-9.718,49.416-13.507C605.489,450.507,606.642,447.542,605.654,444.577Zm-52.381,42a3.866,3.866,0,0,1-3.13,2.141c-3.623.33-9.553-2.965-16.8-9.224-1.318-1.153-2.635-2.471-3.953-3.459,6.918,2.965,16.636,6.424,24.543,7.742A4.019,4.019,0,0,1,553.273,486.58ZM534.66,474.226c.494.165.988.165,1.482.33a55.8,55.8,0,0,1,13.837,4.612A136.5,136.5,0,0,1,534.66,474.226Zm30.308,2.471a3.173,3.173,0,0,1-1.318,2.965c-1.482.988-3.953,1.153-6.918.823-3.294-5.435-13.836-8.565-22.566-10.047,10.542-1.153,23.554-1.648,28.661,2.47A4.36,4.36,0,0,1,564.968,476.7Z" fill="#191919"/><ellipse cx="291.072" cy="112.805" rx="9.554" ry="4.447" transform="translate(-21.092 114.124) rotate(-21.426)" fill="#fff"/><path d="M301.582,108.55c-1.317-3.459-6.918-4.118-13.012-1.647a18.73,18.73,0,0,0-6.589,4.118c-1.977,1.976-2.471,4.118-1.812,5.929s2.635,2.965,5.436,3.13h.823a17.286,17.286,0,0,0,6.754-1.482,18.763,18.763,0,0,0,6.588-4.118C301.747,112.5,302.406,110.362,301.582,108.55Zm-4.447,3.459a17.08,17.08,0,0,1-5.106,3.294c-.33.165-.659.165-.989.33.824-1.153,1.154-2.142.659-3.13-.329-.988-1.317-1.482-2.635-1.812l.988-.494a15.32,15.32,0,0,1,5.436-1.153c1.647,0,2.635.494,2.8.824A3.294,3.294,0,0,1,297.135,112.009Z" fill="#191919"/><ellipse cx="316.412" cy="101.004" rx="9.554" ry="4.447" transform="translate(-15.029 122.564) rotate(-21.426)" fill="#fff"/><path d="M327.114,96.855C325.8,93.4,320.2,92.737,314.1,95.208a18.739,18.739,0,0,0-6.589,4.118c-1.976,1.976-2.471,4.117-1.812,5.929.824,1.977,3.13,3.13,6.26,3.13a21.539,21.539,0,0,0,13.342-5.6C327.114,100.808,327.937,98.667,327.114,96.855Zm-4.448,3.459a17.068,17.068,0,0,1-5.106,3.294c-.329.165-.659.165-.988.33.823-1.153,1.153-2.142.659-3.13A3.554,3.554,0,0,0,314.6,99c.33-.165.659-.165.989-.494a15.316,15.316,0,0,1,5.435-1.153c1.648,0,2.636.494,2.8.824C323.819,98.5,323.655,99.161,322.666,100.314Z" fill="#191919"/><path d="M306.524,95.208a7.975,7.975,0,0,0,1.977,0,30.869,30.869,0,0,0,6.588-2.142,3.888,3.888,0,0,0,1.483-.988c3.13-3.459-5.106-4.118-7.083-3.459C307.348,89.113,302.077,94.384,306.524,95.208Z" fill="#191919"/><path d="M283.628,103.938a7.975,7.975,0,0,0,1.977,0,30.757,30.757,0,0,0,6.588-2.142,3.876,3.876,0,0,0,1.483-.988c3.13-3.459-5.106-4.118-7.083-3.459C284.452,98.008,279.181,103.279,283.628,103.938Z" fill="#191919"/><path d="M340.456,127.328s2.636-5.765,4.118.988c1.153,5.436-3.953,10.542-8.73,14.99-5.436,5.435-2.471,14.824-2.471,14.824l-3.624-15.813,5.6-5.271,4.118-5.765Z" fill="#181818"/><path d="M290.382,105.75a36.1,36.1,0,0,1-3.3-13.507,1.812,1.812,0,0,0-3.624,0,39.766,39.766,0,0,0,3.624,15.154,1.812,1.812,0,0,0,1.647.988,1.788,1.788,0,0,0,.824-.165A2.111,2.111,0,0,0,290.382,105.75Z" fill="#191919"/><path d="M346.386,127.822c-.165-1.153-.988-4.283-3.294-4.612-2.306-.165-3.789,2.471-4.118,3.294h0c0,.165-5.271,12.848-14.99,14.331-8.73,1.318-16.8-2.306-22.237-10.048a53.51,53.51,0,0,0,6.095-3.13c.329-.164.659-.494.823-.494a1.886,1.886,0,0,0,1.153-2.141,1.861,1.861,0,0,0-2.141-1.483c-.494,0-.659.165-1.812.824-1.976,1.153-8.236,4.941-11.365,4.118a1.844,1.844,0,0,1-1.318-1.153c-.988-1.812-.165-2.636,2.8-5.271,2.471-2.142,5.6-4.777,5.6-9.389a1.9,1.9,0,1,0-3.789-.165c0,2.965-2.141,4.612-4.447,6.589-2.636,2.306-5.93,5.106-3.624,9.718a5.1,5.1,0,0,0,3.624,2.965,8.328,8.328,0,0,0,2.141.33,16.382,16.382,0,0,0,2.635-.33c5.271,8.071,13.343,12.684,22.238,12.684a31.945,31.945,0,0,0,3.953-.33,22.076,22.076,0,0,0,3.13-.823l4.447,14.495a.576.576,0,0,0,.165.329v.659l.164.165v.165l.165.164h2.141a.161.161,0,0,0,.165-.164c0-.165,0,0,.164-.165l.165-.165.165-.165a.161.161,0,0,1,.164-.164v-1.318L334.855,155c-.494-2.8-.659-7.742,2.471-10.872C342.433,139.682,347.7,134.081,346.386,127.822Z" fill="#191919"/><path d="M357.093,78.571h0l-.659-.659a6.73,6.73,0,0,0-6.259-.988,1.823,1.823,0,1,0,1.153,3.459,3.96,3.96,0,0,1,2.141,0L349.186,87.3a1.86,1.86,0,0,0,.659,2.471,2.087,2.087,0,0,0,.988.165,2.291,2.291,0,0,0,1.648-.824l3.623-5.765c.165.988.33,1.976.5,3.459a1.828,1.828,0,0,0,1.811,1.812h0a1.828,1.828,0,0,0,1.812-1.812C359.893,83.018,358.905,80.218,357.093,78.571Z" fill="#191919"/><path d="M322.008,115.468l-8.236,16.8s7.741,0,10.706-4.612S322.008,115.468,322.008,115.468Z" fill="#fff"/><path d="M313.772,134.081a1.731,1.731,0,0,1-1.483-.823,1.5,1.5,0,0,1,0-1.648l8.236-16.8a1.669,1.669,0,0,1,1.483-.988,2.113,2.113,0,0,1,1.647.659c.659.823,6.094,8.73,2.635,14.165C322.5,133.917,314.1,134.081,313.772,134.081Zm8.4-14.824L316.9,130.128c2.306-.494,4.942-1.482,6.26-3.459C324.314,124.692,323.325,121.563,322.172,119.257Z" fill="#191919"/><ellipse cx="401.103" cy="307.909" rx="6.919" ry="8.401" transform="translate(-48.236 75.99) rotate(-10.212)" fill="#191919"/><ellipse cx="412.143" cy="340.024" rx="6.919" ry="8.401" transform="translate(-53.755 78.456) rotate(-10.212)" fill="#191919"/><path d="M506.987,36.073c-6.424-10.871-14.5-17.625-24.214-19.931C450.488,8.071,357.422.329,356.434.329h-.988a.162.162,0,0,0-.165.165h-.165l-.164.165V.824a.161.161,0,0,1-.165.164v.494h0L352.81,8.565c-6.094-.164-28.661-.659-40.356,1.153-11.86,1.812-15.813,7.248-16.966,9.389a6.518,6.518,0,0,0-.164,6.26,2.214,2.214,0,0,0,.988,1.153c-3.13,1.482-6.754,3.624-8.236,6.589a5.13,5.13,0,0,0-.165,4.118,1.985,1.985,0,0,0,1.647,1.153.989.989,0,0,0,.659-.165,1.76,1.76,0,0,0,.989-2.471c-.165-.329-.165-.659.164-1.318,1.153-2.47,6.424-4.941,9.719-6.259a43.926,43.926,0,0,0,8.236.659A38.467,38.467,0,0,0,317.89,28c3.13-.659,4.612-1.976,4.612-3.953,0-4.942-9.554-6.918-13.672-7.577a1.842,1.842,0,1,0-.658,3.624c5.765.823,9.718,2.635,10.377,3.624-1.153.658-5.271,1.482-10.871,1.153-6.095-.165-8.895-1.318-9.225-1.812a4.218,4.218,0,0,1,.165-2.8c1.483-2.8,5.765-6.094,14.166-7.412,10.707-1.647,31.791-1.318,38.873-1.153l-11.53,42.827v.494a.989.989,0,0,0-.165.659,1.862,1.862,0,0,0,1.483,2.141c.824.165,66.217,9.883,96.031,18.614-6.259,30.637-15.319,46.45-31.132,54.686-13.342,6.919-24.049,5.436-27.837,3.624h-1.318c-.165,0-.165.165-.329.165l-29.814,24.378-12.19-3.953h-.988c-.823.165-22.072,6.095-44.474,28.332-7.742,7.742-16.307,19.931-25.2,32.779-16.472,23.719-35.415,50.569-52.381,53.039-20.919,3.13-107.891-44.144-108.879-44.639h0l-14.825-7.577a1.774,1.774,0,0,0-2.306.495c-.658.823-15.154,20.919-21.248,45.791a1.982,1.982,0,0,0,.988,2.142l13.836,7.083c-.494,1.647-.823,3.129-1.153,4.612a1.891,1.891,0,0,0,.659,1.976,530.23,530.23,0,0,0,43.651,30.144c33.273,20.59,60.781,32.779,81.865,36.238a123.431,123.431,0,0,0,19.272,1.483,149.255,149.255,0,0,0,45.627-7.413c2.142-.659,4.118-1.482,6.26-2.141a40.538,40.538,0,0,0,4.777-1.812A156.082,156.082,0,0,0,319.7,312.637c2.306-1.647,4.282-3.459,5.929-4.777.494,14.166,1.648,28.332,3.13,42.168-13.672-.33-90.1-1.153-139.846,15.813-55.675,19.107-77.583,46.615-69.182,86.477,3.788,17.3,16.636,30.968,37.061,39.368a126.955,126.955,0,0,0,45.133,8.73h1.648a74.938,74.938,0,0,0,2.965,16.8c5.765,19.272,22.566,31.3,49.745,35.25a139.913,139.913,0,0,0,21.907,1.482,238.428,238.428,0,0,0,45.3-4.777c16.8-3.459,34.1-8.895,50.9-14,20.1-6.259,41.015-12.683,60.287-15.648,35.086-5.271,65.723-13.342,66.053-13.342a1.786,1.786,0,0,0,1.317-1.812c0-1.483.165-34.756-16.8-55.84,8.73-8.73,14.825-20.1,18.119-34.756a99.346,99.346,0,0,0-4.777-59.463c-.164-.165-.329-.494-.494-.659,6.589-7.907,11.2-13.507,11.86-14.331a1.726,1.726,0,0,0,.165-1.976c-.165-.659-27.179-61.276-35.086-90.761-1.811-6.918-1.317-14.165.659-21.907a176.731,176.731,0,0,1,6.754-17.955c2.8-6.094,6.094-12.683,9.389-19.272,8.071-15.813,17.3-33.767,22.731-53.533.988-3.789,1.977-7.742,2.635-11.7.989-3.789,1.318-5.93,1.483-6.26a2.085,2.085,0,0,0-.165-.988C522.141,85.489,518.023,55.016,506.987,36.073ZM343.75,55.181,357.587,3.953c3.459.33,12.683,1.153,24.543,2.306l-15.154,52.71C356.269,56.993,347.539,55.675,343.75,55.181Zm34.262,89.607c9.389,28.332,17.79,57.157,16.8,60.617-.823,1.647-3.953,1.811-6.588,1.976-3.13.165-7.577.165-7.577,4.118,0,3.3,3.788,5.271,7.906,7.577,2.141,1.153,6.424,3.459,6.259,4.777,0,.824-1.812,3.459-3.294,5.93-4.118,6.424-10.707,16.8-13.507,30.144-1.483-9.554-2.471-18.778-3.13-27.509C371.917,194.533,375.871,159.613,378.012,144.788Zm-3.13-3.13c-.988,5.93-2.47,16.966-3.459,30.967l-7.412,6.425-14.5-16.472Zm-28,23.39,8.4,9.719-5.106,9.718-6.1,1.977-4.612-11.036Zm16.637,126.669-17.131,24.708-10.872-11.2,9.389-115.3,5.107-1.647ZM335.185,160.272l8.565,2.635-10.542,14.66C334.032,169.331,334.856,163.4,335.185,160.272ZM67.846,263.715c5.106-20.1,16.143-37.062,19.272-41.674l11.7,6.095c-3.129,5.6-13.342,23.719-19.107,41.838ZM316.572,282c-6.424,25.2-19.6,42.168-38.874,50.9-3.459,1.318-6.918,2.636-10.377,3.789-21.414,6.918-43.157,9.059-63.087,5.765-20.426-3.13-48.263-15.484-80.548-35.744-21.414-13.342-38.215-26.026-42.333-29.155,4.942-19.6,17.46-42,20.919-48.1,11.86,6.424,83.513,44.474,107.068,44.474a12.453,12.453,0,0,0,2.471-.165c18.613-2.636,37.061-29.155,54.851-54.522,8.9-12.683,17.3-24.708,24.708-32.285,15.484-15.484,30.638-22.9,38.05-25.861-2.141,3.624-5.436,9.224-8.565,14.66-11.531,20.26-10.872,21.084-10.048,22.4a10.035,10.035,0,0,0,3.953,2.306c.988.494,3.13,1.318,3.459,1.812h0c-.165.494-2.141.988-3.13,1.153-2.47.494-6.753,1.318-6.094,5.765.164,1.318,1.153,3.624,2.471,7.248a202.167,202.167,0,0,1,8.894,27.178C320.69,246.584,321.349,263.386,316.572,282Zm-1.647-66.711a55.686,55.686,0,0,1-2.306-6.424c0-.659-.165-.989,3.129-1.483,2.142-.494,5.106-.988,5.93-3.459,1.483-3.953-2.965-5.6-5.6-6.589a7.119,7.119,0,0,1-1.977-.823c1.153-3.459,8.565-16.472,16.472-29.979-1.647,14-4.612,43.65-6.095,79.394A162.911,162.911,0,0,0,314.925,215.288Zm17.625-30.309,4.612-6.259,4.282,10.213-9.389,116.95a2.664,2.664,0,0,0,.494,1.483l13.178,13.342a1.872,1.872,0,0,0,1.318.494h.164a1.677,1.677,0,0,0,1.318-.824L367.305,293.2a3.1,3.1,0,0,0,.33-1.318L353.8,186.132l4.612-8.565,4.448,4.942a1.6,1.6,0,0,0,1.482.658,1.493,1.493,0,0,0,1.153-.494l6.1-5.106a381.534,381.534,0,0,0,.165,54.851c.988,13.672,3.129,28.826,5.765,44.145h0v.165c4.612,26.355,11.036,53.534,17.3,76.1l-62.593-2.635C324.478,289.411,328.926,221.547,332.55,184.979Zm-129.8,311.814c-20.1.329-71.982-6.919-80.383-44.969-4.118-18.942-.823-34.755,9.883-48.1,10.872-13.507,29.485-24.708,56.828-34.1,53.863-18.448,139.847-15.648,140.67-15.648l48.922,2.141a321.462,321.462,0,0,0-96.525,39.039q-33.851,20.508-53.369,42.5c-4.448-.164-22.732-.988-37.062,3.459-9.883,3.13-17.46,10.213-18.778,17.625a11,11,0,0,0,4.283,11.2,11.63,11.63,0,0,0,7.083,2.142c6.094,0,13.507-2.965,19.766-5.6,2.141-.824,4.612-1.812,6.424-2.471A80.9,80.9,0,0,0,202.751,496.793ZM500.4,377.042h0a95.069,95.069,0,0,1-1.153,35.744c-6.589,28.167-22.9,43.98-51.227,49.91-10.048,2.141-23.226,3.129-38.545,4.447-23.719,1.977-50.733,3.953-76.265,10.872-41.344,11.2-52.38,19.436-56,28.5,0,.165-.165.329-.165.494a10.791,10.791,0,0,0,.989,8.73,10.4,10.4,0,0,0,9.059,4.942h.824c11.2,0,25.7-6.589,36.9-17.131,7.577-7.083,27.673-24.049,50.9-29.485,11.695-1.482,23.225-2.306,33.932-3.129,15.319-1.154,28.661-2.307,38.874-4.448,13.671-2.965,24.543-7.906,33.273-15.484,14,17.79,15.648,45.3,15.813,51.887-6.259,1.647-33.438,8.236-64.24,13.013-19.6,2.965-40.521,9.389-60.946,15.813-16.637,5.106-33.932,10.542-50.569,14-11.036,2.306-39.7,7.248-66.052,3.294-25.7-3.953-41.345-14.824-46.616-32.779-6.095-20.1-2.635-40.521,10.213-60.452,12.683-19.766,34.426-39.038,64.734-57.487,55.346-33.6,103.773-40.521,111.021-41.509,3.13,11.2,6.259,21.084,8.9,28.826,5.6,16.472,12.189,26.025,19.931,28.99a14.2,14.2,0,0,0,5.6,1.153,20.287,20.287,0,0,0,9.389-2.635c4.448-2.306,11.2-8.071,18.613-15.648,10.543-9.719,28.826-24.379,38.38-23.226A5.915,5.915,0,0,1,500.4,377.042Zm13.013-257.291-1.647,6.259c-4.283,12.848-14.825,37.062-39.862,69.511-25.037,32.285-18.284,43.486-7.742,53.864,5.106,4.941,10.707,15.483,14.989,25.2,3.3,8.565,6.424,15.483,7.577,18.119,8.4,21.084,16.8,40.521,18.943,45.133-3.624,4.447-21.084,25.531-37.885,43.98l-16.966,17.46c-5.436,5.106-10.213,9.059-13.507,10.707-3.13,1.647-7.248,3.129-11.86,1.317-6.589-2.635-12.519-11.695-17.79-26.849-8.236-24.049-19.931-67.2-27.178-108.22-1.812-19.931,8.565-35.909,14-44.474,2.306-3.624,3.788-5.766,3.953-7.577.33-3.624-3.953-6.095-8.236-8.4-2.141-1.153-5.93-3.294-5.93-4.448h0a12.168,12.168,0,0,1,3.954-.494c3.623-.164,8.236-.164,9.883-4.118.494-1.317,1.812-3.953-8.566-37.885-3.624-11.86-7.412-23.555-9.224-29.155,4.942,1.153,14.66,1.647,27.343-4.942,2.965-.659,17.955-4.612,22.4-14,6.918-15.484,14.825-21.413,20.1-25.2,2.635-1.977,4.777-3.459,5.765-5.6,3.624-7.248-.494-9.554-4.612-11.531a.576.576,0,0,0-.33-.165c-11.036-6.259-51.721-13.836-80.218-18.777L385.918,6.589C416.227,9.554,461.36,14.5,481.785,19.6c8.73,2.141,16.142,8.235,22.072,18.283C515.223,57.322,518.847,89.607,513.411,119.751Z" fill="#191919"/></g></g>
            </g>
        </g>
    </g>
    
    <!-- ITEM 4 -->
    <g>
        <defs>
            <clipPath id="clip-path-id-viewbox-item-4">
                <rect x="0.0" y="0.0" width="213.6" height="187.6"/>
            </clipPath>
        </defs>
        <g transform="translate(409.0 179.0) rotate(0.0 128.0 112.5) scale(1.198501872659176 1.199360341151386)">
            <g clip-path="url(#clip-path-id-viewbox-item-4)" transform="translate(-0.0 -0.0)">
                <title>interface_element_1</title><g id="Layer_2-i4" data-name="Layer 2"><g id="interface_element_1-i4"><rect x="107" y="28.9" width="52.7" height="52.7" fill="#4d4d4d"/><rect x="54" y="28.9" width="52.7" height="52.7" fill="#333"/><rect x="1" y="134" width="52.7" height="52.7" fill="#ccc"/><rect x="160" y="28.9" width="52.7" height="52.7" fill="#666"/><path d="M212.7,29H1V9.3A8.28,8.28,0,0,1,9.3,1H204.4a8.28,8.28,0,0,1,8.3,8.3V29Z" fill="#5cdb95"/><rect x="54" y="28.9" width="52.7" height="52.7" fill="none"/><rect x="1" y="81.4" width="52.7" height="52.7" fill="gray"/><rect x="54" y="81.4" width="52.7" height="52.7" fill="#999"/><path d="M213.6,9.3A9.282,9.282,0,0,0,204.3,0H9.3A9.282,9.282,0,0,0,0,9.3V186.6a1,1,0,0,0,1,1H53.7a1,1,0,0,0,1-1V135h52a1,1,0,0,0,1-1V82.5H212.6a1,1,0,0,0,1-1V9.3ZM9.3,1.9H204.4a7.341,7.341,0,0,1,7.3,7.3V27.8H107a.6.6,0,0,0-.4.1H54.2a.6.6,0,0,0-.4-.1H2V9.2A7.341,7.341,0,0,1,9.3,1.9ZM52.8,185.7H2V135.1H52.8Zm0-52.7H2V82.5H52.8Zm52.9.2H54.9V82.4h50.8Zm-51-52.8V29.9H106V80.4Zm53.3.2V30h50.8V80.7L108,80.6Zm52.9,0V30h50.8V80.7l-50.8-.1Z" fill="#1a1a1a"/><path d="M9.9,21.9a1.135,1.135,0,0,1-.8-.3,1.217,1.217,0,0,1,0-1.6L21,8.1a1.217,1.217,0,0,1,1.6,0,1.217,1.217,0,0,1,0,1.6L10.7,21.6A1.135,1.135,0,0,1,9.9,21.9Z" fill="#1a1a1a"/><path d="M21.8,21.9a1.135,1.135,0,0,1-.8-.3L9.1,9.7a1.217,1.217,0,0,1,0-1.6,1.217,1.217,0,0,1,1.6,0L22.6,20a1.217,1.217,0,0,1,0,1.6A1.135,1.135,0,0,1,21.8,21.9Z" fill="#1a1a1a"/><polygon points="196.1 21 188.6 15.3 196.1 9.6 196.1 21" fill="#1a1a1a"/><polygon points="204 21 196.5 15.3 204 9.6 204 21" fill="#1a1a1a"/></g></g>
            </g>
        </g>
    </g>
    
    <!-- ITEM 5 -->
    <g>
        <defs>
            <clipPath id="clip-path-id-viewbox-item-5">
                <rect x="0.0" y="0.0" width="118.576" height="271.302"/>
            </clipPath>
        </defs>
        <g transform="translate(608.0 538.0) rotate(0.0 40.0 91.5) scale(0.6746727836999056 0.6745250680053961)">
            <g clip-path="url(#clip-path-id-viewbox-item-5)" transform="translate(-0.0 -0.0)">
                <title>art_supplies_cup</title><g id="ee863e14-460c-4917-a634-f64b7934a84f-i5" data-name="Layer 2"><g id="aa95deff-9d8a-4d94-bead-c3caa5ca0dea-i5" data-name="art_supplies_cup"><path d="M29.3,105.639s4.849,23.709,5.107,27.309c1.832,25.6,10.513,133.982,10.513,133.982a2.522,2.522,0,0,1-2.264,2.684h0a2.522,2.522,0,0,1-2.754-2.178S26.78,159.5,23.468,134.051c-.466-3.58-.446-27.779-.446-27.779Z" fill="#5cdb95"/><path d="M42.39,271.128a4,4,0,0,1-3.976-3.5c-.133-1.1-13.161-108.237-16.434-133.389-.473-3.634-.459-26.981-.458-27.973a1.5,1.5,0,0,1,1.35-1.491l6.277-.633a1.5,1.5,0,0,1,1.62,1.192c.2.972,4.871,23.846,5.133,27.5,1.81,25.3,10.425,132.884,10.512,133.968a4.009,4.009,0,0,1-3.609,4.3C42.665,271.12,42.527,271.128,42.39,271.128Zm-17.869-163.5c0,8.649.094,23.616.434,26.228,3.275,25.164,16.3,132.319,16.435,133.4a1.023,1.023,0,0,0,2.032-.222c-.085-1.067-8.7-108.666-10.512-133.978-.188-2.627-3.086-17.311-4.809-25.787Z" fill="#1a1a1a"/><path d="M23.02,106.272l6.281-.633s2.614,12.769,4.108,20.989l-10.226,1.031C23.007,119.305,23.02,106.272,23.02,106.272Z" fill="#1a1a1a"/><path d="M22.545,105.309c-.431-4.277-8.292-16.138-2.529-30.4,4.027-9.963,7.358-6.772,4.265-17.516,0,0,8.22,13.413,8.586,28.874.221,9.339-3.2,11.124-3.194,18.323" fill="#fff"/><path d="M22.543,106.809a1.5,1.5,0,0,1-1.491-1.35,21.97,21.97,0,0,0-1.245-4.024c-2.154-5.894-5.76-15.758-1.181-27.088a32.1,32.1,0,0,1,3.838-7.014c1.7-2.433,2.206-3.167.376-9.525a1.5,1.5,0,0,1,2.72-1.2c.344.561,8.435,13.938,8.806,29.622a28.914,28.914,0,0,1-1.794,11.082,20.568,20.568,0,0,0-1.4,7.276,1.5,1.5,0,0,1-1.5,1.5h0a1.5,1.5,0,0,1-1.5-1.5,23.647,23.647,0,0,1,1.552-8.225A26.01,26.01,0,0,0,31.367,86.3,59.1,59.1,0,0,0,26.7,65.778a11.393,11.393,0,0,1-1.779,3.27,29.1,29.1,0,0,0-3.518,6.423c-4.146,10.26-.918,19.091,1.217,24.934a22.412,22.412,0,0,1,1.414,4.753A1.5,1.5,0,0,1,22.7,106.8C22.644,106.806,22.593,106.809,22.543,106.809Z" fill="#1a1a1a"/><path d="M104.047,68.392s-2.927,37.284-4.082,42.742c-8.214,38.8-29.2,135.059-29.2,135.059a3.9,3.9,0,0,1-4.509,3.02h0A3.9,3.9,0,0,1,63.1,244.8s14.2-97.49,20.149-136.7c.837-5.516,11.2-41.449,11.2-41.449Z" fill="#1a1a1a"/><path d="M66.975,250.778a5.514,5.514,0,0,1-.984-.089,5.374,5.374,0,0,1-4.375-6.11c.141-.969,14.265-97.937,20.149-136.705.842-5.549,10.822-40.169,11.247-41.64a1.5,1.5,0,0,1,1.709-1.06l9.594,1.742a1.5,1.5,0,0,1,1.228,1.594c-.12,1.526-2.948,37.444-4.111,42.935-8.121,38.362-28.989,134.105-29.2,135.067A5.37,5.37,0,0,1,66.975,250.778ZM95.52,68.368c-1.864,6.494-10.065,35.187-10.789,39.956-5.883,38.759-20,135.718-20.148,136.693a2.4,2.4,0,0,0,4.718.862c.211-.968,21.077-96.7,29.2-135.056,1-4.719,3.409-34.463,3.947-41.2Z" fill="#1a1a1a"/><path d="M94.451,66.65l9.6,1.743s-1.573,20.081-2.865,32.928L85.556,98.483C88.863,86,94.451,66.65,94.451,66.65Z" fill="#5cdb95"/><path d="M101.185,102.821a1.517,1.517,0,0,1-.268-.024L85.288,99.959a1.5,1.5,0,0,1-1.182-1.86c3.273-12.355,8.848-31.672,8.9-31.865a1.5,1.5,0,0,1,1.709-1.06l9.6,1.743a1.5,1.5,0,0,1,1.227,1.593c-.016.2-1.588,20.244-2.867,32.961a1.5,1.5,0,0,1-1.493,1.35ZM87.424,97.3l12.429,2.256c1.047-10.7,2.237-25.437,2.594-29.928l-6.93-1.258C94.273,72.7,90.2,86.916,87.424,97.3Z" fill="#1a1a1a"/><path d="M94.316,66.708c1.072-5.9-11.183-11.178,2.051-28.085,9.245-11.812,20.118-26.838,13.855-37.122,0,0,10.761,22.765,5.287,43.647C112.2,57.76,106.926,58.834,104.155,68.5" fill="#1a1a1a"/><path d="M104.156,70a1.521,1.521,0,0,1-.414-.058,1.5,1.5,0,0,1-1.029-1.856,32.5,32.5,0,0,1,5.175-10.262,36.807,36.807,0,0,0,6.17-13.052c2.9-11.055,1.076-22.762-1.172-31.105-2.137,8.349-8.764,17.486-15.338,25.885-8.639,11.038-5.8,16.535-3.509,20.951,1.115,2.155,2.168,4.19,1.753,6.478a1.5,1.5,0,0,1-2.952-.536c.233-1.282-.517-2.729-1.466-4.563-2.395-4.629-6.015-11.624,3.812-24.179,6.264-8,17.4-22.229,15.024-32.3-.773-2.024-1.321-3.2-1.344-3.252A1.5,1.5,0,0,1,111.5.72a14.128,14.128,0,0,1,1.631,3.868c2.831,7.405,8.114,24.587,3.826,40.94a39.859,39.859,0,0,1-6.6,13.988,29.584,29.584,0,0,0-4.765,9.392A1.5,1.5,0,0,1,104.156,70Z" fill="#1a1a1a"/><polyline points="9.9 105.59 1.375 86.194 1.238 107.483" fill="#5cdb95"/><polygon points="1.238 107.483 9.9 105.59 41.866 254.158 33.204 256.05 1.238 107.483" fill="#1a1a1a"/><path d="M33.417,257.26l8.662-1.892a1.266,1.266,0,0,0,.959-1.467L11.144,105.5a.8.8,0,0,0-.1-.419l-8.525-19.4a1.277,1.277,0,0,0-1.4-.707,1.275,1.275,0,0,0-.979,1.136c0,.041,0,.041-.044.038L0,107.447a.243.243,0,0,0,.031.167l-.008.123L31.95,256.3a1.168,1.168,0,0,0,.529.776A1.263,1.263,0,0,0,33.417,257.26Zm-3.155-20.793,6.237-1.384,2.686,12.468-6.237,1.384Zm5.728-3.81-6.236,1.384L2.749,108.4l6.234-1.343ZM8.181,104.7l-5.692,1.254.092-13.987ZM33.5,251.363l6.236-1.384.706,3.222-6.234,1.343Z" fill="#1a1a1a"/><path d="M11.517,146.222h94.125a2.937,2.937,0,0,1,2.937,2.937v18.125a2.938,2.938,0,0,1-2.938,2.938H11.517a2.937,2.937,0,0,1-2.937-2.937V149.16a2.937,2.937,0,0,1,2.937-2.937Z" transform="translate(-104.055 203.122) rotate(-85.117)" fill="#5cdb95"/><path d="M63.606,210.323c-.126,0-.253,0-.381-.016l-18.059-1.543a4.441,4.441,0,0,1-4.043-4.8l8.011-93.783a4.442,4.442,0,0,1,4.8-4.044l18.058,1.542a4.443,4.443,0,0,1,4.044,4.8l-8.011,93.783h0A4.445,4.445,0,0,1,63.606,210.323Zm-10.051-101.2a1.439,1.439,0,0,0-1.432,1.315L44.112,204.22a1.439,1.439,0,0,0,1.31,1.555l18.058,1.543a1.444,1.444,0,0,0,1.556-1.31l8.011-93.784a1.437,1.437,0,0,0-1.31-1.554l-18.059-1.543C53.637,109.124,53.6,109.122,53.555,109.122ZM66.53,206.135h0Z" fill="#1a1a1a"/><path d="M73.254,109.8l-20.923-1.788,7.756-18.885a4,4,0,0,1,7.562.452Z" fill="#5cdb95"/><path d="M73.254,111.3c-.042,0-.085,0-.127-.006L52.2,109.5a1.5,1.5,0,0,1-1.26-2.065L58.7,88.553a5.5,5.5,0,0,1,10.394.621L74.7,109.4a1.5,1.5,0,0,1-1.446,1.9ZM54.5,106.687l16.737,1.43L66.2,89.975a2.5,2.5,0,0,0-4.729-.282Z" fill="#1a1a1a"/><line x1="43.275" y1="196.392" x2="67.188" y2="198.434" fill="#5cdb95"/><path d="M67.189,199.934c-.042,0-.085,0-.128,0l-23.914-2.043A1.5,1.5,0,1,1,43.4,194.9l23.914,2.043a1.5,1.5,0,0,1-.127,2.994Z" fill="#1a1a1a"/><line x1="44.78" y1="184.644" x2="68.693" y2="186.686" fill="#5cdb95"/><rect x="52.237" y="173.665" width="9" height="24" transform="translate(-133.083 226.395) rotate(-85.118)" fill="#1a1a1a"/><line x1="49.547" y1="128.847" x2="73.46" y2="130.89" fill="#5cdb95"/><rect x="57.003" y="117.868" width="9" height="24" transform="translate(-73.129 180.094) rotate(-85.117)" fill="#1a1a1a"/><line x1="49.985" y1="117.844" x2="73.898" y2="119.887" fill="#5cdb95"/><path d="M73.9,121.387c-.042,0-.085,0-.129,0l-23.913-2.043a1.5,1.5,0,1,1,.255-2.989l23.913,2.042a1.5,1.5,0,0,1-.126,3Z" fill="#1a1a1a"/><polygon points="76.672 269.803 21.808 269.803 5.195 163.303 93.286 163.303 76.672 269.803" fill="#5cdb95"/><polygon points="25.395 163.303 36.969 269.627 21.552 268.16 4.695 163.303 25.395 163.303" fill="#fff"/><path d="M76.672,271.3H21.809a1.5,1.5,0,0,1-1.482-1.269L3.713,163.533A1.5,1.5,0,0,1,5.2,161.8H93.286a1.5,1.5,0,0,1,1.482,1.731l-16.614,106.5A1.5,1.5,0,0,1,76.672,271.3Zm-53.579-3h52.3L91.534,164.8H6.947Z" fill="#1a1a1a"/></g></g>
            </g>
        </g>
    </g>
    
</svg>