<?xml version="1.0" encoding="UTF-8"?><svg version="1.1" xmlns="http://www.w3.org/2000/svg" xmlns:xlink="http://www.w3.org/1999/xlink" viewBox="0 0 1200 800" width="1200" height="800" x="0px" y="0px">
              
              <!-- ITEM 0 -->
<g>
    <defs>
        
        <clipPath id="clip-path-id-viewbox-item-0">
            <rect x="0.0" y="0.0" width="150.50952" height="239.23633"/>
        </clipPath>
    </defs>
    <g transform="translate(91.0 397.0) rotate(0.0 86.0 137.0) scale(1.1427848550709616 1.145310998542738)">
        <g clip-path="url(#clip-path-id-viewbox-item-0)" transform="translate(-0.0 -0.0)">

  <path d="M138.73462,239.23633c-39.16162,0-72.957-.0791-97.217-2.05762C12.80444,234.83789,0,229.92969,0,221.26465c0-8.6709,9.09326-15.05664,19.62256-22.45117,12.90259-9.06153,27.52685-19.332,27.52685-35.90137,0-16.876-9.06128-26.49707-19.55322-37.63672C15.10205,112.00977.94092,96.97412.94092,66.18311c0-14.89258,8.35937-31.55127,22.36133-44.563C38.08765,7.88037,57.24146,0,75.85254,0a1.5,1.5,0,0,1,0,3C37.124,3,3.94092,37.7417,3.94092,66.18311c0,29.60107,13.13574,43.54785,25.83911,57.03564,10.4751,11.12109,20.36938,21.62695,20.36938,39.69336,0,18.12891-15.302,28.875-28.80273,38.35644C11.502,208.18164,3,214.15332,3,221.26465c0,6.56933,12.679,10.79687,38.76123,12.9248,25.17749,2.05274,60.79639,2.04883,102.0415,2.0459h5.20679a1.5,1.5,0,0,1,0,3H143.803C142.1062,239.23535,140.41211,239.23633,138.73462,239.23633Z"/>

        </g>
    </g>
</g>

<!-- ITEM 1 -->
<g>
    <defs>
        
        <clipPath id="clip-path-id-viewbox-item-1">
            <rect x="0.0" y="0.0" width="756.54028" height="419.21973"/>
        </clipPath>
    </defs>
    <g transform="translate(176.0 116.0) rotate(0.0 434.5 241.0) scale(1.1486500097522896 1.1497550461186548)">
        <g clip-path="url(#clip-path-id-viewbox-item-1)" transform="translate(-0.0 -0.0)">

  
  <g>
    <g>
      <path d="M739.79.7501a15.99559,15.99559,0,0,1,16,16v385.72a15.99559,15.99559,0,0,1-16,16H678.2V.7501Z" style="         fill: #fad86e;       "/>
      <path d="M678.2.7501v417.72H580.21v-135.63a52.13077,52.13077,0,0,0-52.13-52.13H212.37a52.13077,52.13077,0,0,1-52.13-52.13V.7501Z" style="         fill: #fed3d5;       "/>
      <path d="M580.21,282.8401v135.63H16.75a16.002,16.002,0,0,1-16-16V16.7501a16.002,16.002,0,0,1,16-16H160.24v177.83a52.13077,52.13077,0,0,0,52.13,52.13H528.08A52.13077,52.13077,0,0,1,580.21,282.8401Z" style="         fill: #ffe4e9;       "/>
    </g>
    <g>
      <path d="M678.19995,419.21973H16.75A16.76869,16.76869,0,0,1,0,402.46973V16.75A16.769,16.769,0,0,1,16.75,0H678.19995a.75.75,0,0,1,0,1.5H16.75A15.26735,15.26735,0,0,0,1.5,16.75V402.46973a15.267,15.267,0,0,0,15.25,15.25H678.19995a.75.75,0,0,1,0,1.5Z"/>
      <path d="M580.21,418.71973a.25033.25033,0,0,1-.25-.25V282.83984A51.93876,51.93876,0,0,0,528.08008,230.96h-315.71A52.439,52.439,0,0,1,159.99,178.58008V.75a.25.25,0,0,1,.5,0V178.58008A51.939,51.939,0,0,0,212.37012,230.46h315.71A52.43894,52.43894,0,0,1,580.46,282.83984V418.46973A.25033.25033,0,0,1,580.21,418.71973Z"/>
      <path d="M678.19995,418.96973a.49972.49972,0,0,1-.5-.5V.75a.5.5,0,0,1,1,0V418.46973A.49972.49972,0,0,1,678.19995,418.96973Z"/>
      <path d="M739.79028,419.21973H678.19995a.75.75,0,0,1,0-1.5h61.59033a15.2672,15.2672,0,0,0,15.25-15.25V16.75a15.26751,15.26751,0,0,0-15.25-15.25H678.19995a.75.75,0,0,1,0-1.5h61.59033a16.76915,16.76915,0,0,1,16.75,16.75V402.46973A16.76884,16.76884,0,0,1,739.79028,419.21973Z"/>
    </g>
  </g>

        </g>
    </g>
</g>

<!-- ITEM 2 -->
<g>
    <defs>
        
        <clipPath id="clip-path-id-viewbox-item-2">
            <rect x="0.0" y="0.0" width="259.83643" height="235.67822"/>
        </clipPath>
    </defs>
    <g transform="translate(566.0 263.0) rotate(0.0 150.0 136.0) scale(1.1545725131768474 1.1541159806790802)">
        <g clip-path="url(#clip-path-id-viewbox-item-2)" transform="translate(-0.0 -0.0)">

  
  <g>
    <g>
      <path d="M259.08646,188.74939V218.9331A15.99938,15.99938,0,0,1,243.082,234.92836H16.75461A15.99939,15.99939,0,0,1,.75017,218.9331V30.787H31.099V86.86215a33.9637,33.9637,0,0,0,33.96241,33.96241h41.905A33.9637,33.9637,0,0,1,140.92882,154.787a33.9598,33.9598,0,0,0,33.96241,33.96242Z" style="         fill: #fcecb9;       "/>
      <path d="M259.08646,30.787V188.74939H174.89123A33.9598,33.9598,0,0,1,140.92882,154.787a33.9637,33.9637,0,0,0-33.96241-33.96241h-41.905A33.9637,33.9637,0,0,1,31.099,86.86215V30.787Z" style="         fill: #ffedc5;       "/>
      <path d="M259.08646,16.75448V30.787H31.099V.75005H243.082A16.00721,16.00721,0,0,1,259.08646,16.75448Z" style="         fill: #5e95ce;       "/>
      <path d="M31.099.75005V30.787H.75017V16.75448A16.00722,16.00722,0,0,1,16.75461.75005Z" style="         fill: #4377a5;       "/>
    </g>
    <g>
      <path d="M243.082,235.67822H16.75439A16.76873,16.76873,0,0,1,0,218.93311V16.75439A16.77352,16.77352,0,0,1,16.75439,0H243.082a16.77353,16.77353,0,0,1,16.7544,16.75439V218.93311A16.76874,16.76874,0,0,1,243.082,235.67822ZM16.75439,1.5A15.27188,15.27188,0,0,0,1.5,16.75439V218.93311a15.26709,15.26709,0,0,0,15.25439,15.24511H243.082a15.2671,15.2671,0,0,0,15.2544-15.24511V16.75439A15.27189,15.27189,0,0,0,243.082,1.5Z"/>
      <path d="M259.08643,31.03711H.75a.25.25,0,0,1,0-.5H259.08643a.25.25,0,0,1,0,.5Z"/>
      <path d="M259.1416,188.99951H174.89111a34.20965,34.20965,0,0,1-34.2124-34.21289,33.75043,33.75043,0,0,0-33.7124-33.71191H65.06152A34.2512,34.2512,0,0,1,30.84912,86.8623V.75a.25.25,0,0,1,.5,0V86.8623a33.75055,33.75055,0,0,0,33.7124,33.71241h41.90479a34.25109,34.25109,0,0,1,34.2124,34.21191,33.70952,33.70952,0,0,0,33.7124,33.71289h84.19532a.275.275,0,0,1,.27734.25A.22788.22788,0,0,1,259.1416,188.99951Z"/>
    </g>
  </g>

        </g>
    </g>
</g>

<!-- ITEM 3 -->
<g>
    <defs>
        
        <clipPath id="clip-path-id-viewbox-item-3">
            <rect x="0.0" y="0.0" width="164.37555" height="164.36448"/>
        </clipPath>
    </defs>
    <g transform="translate(621.0 322.0) rotate(0.0 94.5 94.5) scale(1.1498060386718096 1.1498834784741814)">
        <g clip-path="url(#clip-path-id-viewbox-item-3)" transform="translate(-0.0 -0.0)">

  
  <g>
    <g>
      <path d="M157.79468,52.0588a81.13507,81.13507,0,0,1-1.229,63.14643l-32.495-13.97751a45.89,45.89,0,0,0,.86213-36.08106Z" style="         fill: #f46a3d;       "/>
      <path d="M157.79468,52.0588,124.93286,65.14666A45.89285,45.89285,0,0,0,99.5,39.53957L113.47754,7.05379A81.07658,81.07658,0,0,1,157.79468,52.0588Z" style="         fill: #fe9b19;       "/>
      <path d="M124.07073,101.22772l32.495,13.97751a81.08642,81.08642,0,0,1-44.26212,42.58371c-.42189.16509-.82544.33017-1.24733.47692L97.96837,125.404c.41272-.14675.82545-.30266,1.24734-.46775a45.71028,45.71028,0,0,0,18.37987-13.363h.09172l-.02752-.0642A46.04072,46.04072,0,0,0,124.07073,101.22772Z" style="         fill: #f85750;       "/>
      <path d="M113.47754,7.05379,99.5,39.53957a45.86906,45.86906,0,0,0-34.35679-.11006c-.41273.16509-.82545.33935-1.229.51361l-13.097-32.871c.41272-.17426.82544-.33935,1.23816-.50444A81.06932,81.06932,0,0,1,113.47754,7.05379Z" style="         fill: #ffd14a;       "/>
      <path d="M97.96837,125.404l13.08787,32.86182A81.1023,81.1023,0,0,1,49.148,156.56911l13.97751-32.49495A45.8561,45.8561,0,0,0,97.96837,125.404Z" style="         fill: #db968e;       "/>
      <path d="M50.81721,7.07213l13.097,32.871A45.85347,45.85347,0,0,0,39.54532,64.86235L7.04119,50.87566A81.1125,81.1125,0,0,1,50.81721,7.07213Z" style="         fill: #fcecb9;       "/>
      <path d="M63.12549,124.07416,49.148,156.56911A81.11621,81.11621,0,0,1,6.56426,112.307L39.42609,99.21914a46.20079,46.20079,0,0,0,7.27307,12.2991l-.02751.055H46.745A45.80369,45.80369,0,0,0,63.12549,124.07416Z" style="         fill: #f9baba;       "/>
      <path d="M7.04119,50.87566,39.54532,64.86235a45.82376,45.82376,0,0,0-.11923,34.35679L6.56426,112.307A81.17964,81.17964,0,0,1,7.04119,50.87566Z" style="         fill: #fed3d5;       "/>
    </g>
    <g>
      <path d="M82.14985,164.36448A82.16433,82.16433,0,0,1,50.52875,6.38011c.41358-.17481.83057-.3418,1.24854-.50879A82.137,82.137,0,0,1,157.25141,115.51v-.001A81.64444,81.64444,0,0,1,112.581,158.48558l-.2749.10839c-.335.13282-.66407.2627-1.00391.38086A81.88589,81.88589,0,0,1,82.14985,164.36448ZM82.1894,1.5012A80.60117,80.60117,0,0,0,52.33295,7.2639c-.40722.16308-.81543.32617-1.22314.499A80.641,80.641,0,0,0,49.45209,155.884a80.08267,80.08267,0,0,0,61.3374,1.68067c.34083-.11817.6504-.24121.96583-.36524l.2749-.1084a80.15382,80.15382,0,0,0,43.8501-42.18945v-.001A80.73074,80.73074,0,0,0,82.1894,1.5012Z"/>
      <path d="M82.16449,128.72581a46.46393,46.46393,0,0,1-19.24609-4.19629h.001A46.57221,46.57221,0,0,1,46.3603,111.8928c-.01026-.01269-.02735-.03418-.04541-.05859l-.00147.002a46.59475,46.59475,0,0,1-7.231-47.16211A46.17308,46.17308,0,0,1,63.71625,39.4846c.40723-.17676.82422-.35254,1.24121-.51856a46.54042,46.54042,0,0,1,53.08789,72.86133,1.01846,1.01846,0,0,1-.07568.07813,46.457,46.457,0,0,1-18.56885,13.49609c-.42968.168-.84668.32422-1.26465.47363A46.34046,46.34046,0,0,1,82.16449,128.72581Zm.01026-92.08008a45.31078,45.31078,0,0,0-16.84668,3.249c-.40772.16308-.81592.335-1.21533.50781A45.52916,45.52916,0,0,0,39.89057,99.0344a45.70124,45.70124,0,0,0,7.19434,12.165.50871.50871,0,0,1,.06152.09473,45.72735,45.72735,0,0,0,16.18506,12.32519h.001a45.211,45.211,0,0,0,34.46387,1.31543c.41211-.14648.82031-.30078,1.23731-.46386a45.43884,45.43884,0,0,0,18.17627-13.21582.51437.51437,0,0,1,.105-.09571,45.99513,45.99513,0,0,0,6.30078-10.13867,45.54039,45.54039,0,0,0-41.44092-64.375Z"/>
      <path d="M124.93305,65.39671a.25.25,0,0,1-.09229-.48242L157.70258,51.8264a.25007.25007,0,1,1,.18457.46484L125.02533,65.37913A.25561.25561,0,0,1,124.93305,65.39671Z"/>
      <path d="M6.5644,112.55686a.25.25,0,0,1-.09229-.48242L39.33393,98.98655a.25008.25008,0,1,1,.18457.46485L6.65668,112.53929A.2556.2556,0,0,1,6.5644,112.55686Z"/>
      <path d="M111.0561,158.51585a.25061.25061,0,0,1-.23243-.15723L97.73578,125.49729a.25026.25026,0,0,1,.46485-.18554l13.08789,32.86133a.25046.25046,0,0,1-.14014.32519A.25561.25561,0,0,1,111.0561,158.51585Z"/>
      <path d="M63.914,40.19358a.25062.25062,0,0,1-.23243-.15722L50.58491,7.16526a.25025.25025,0,1,1,.46484-.18554L64.14643,39.85081a.251.251,0,0,1-.13965.3252A.26036.26036,0,0,1,63.914,40.19358Z"/>
      <path d="M49.14789,156.81956a.25024.25024,0,0,1-.22949-.34863l13.97754-32.49512a.24979.24979,0,1,1,.459.19727L49.37739,156.66819A.24964.24964,0,0,1,49.14789,156.81956Z"/>
      <path d="M99.49994,39.78929a.25024.25024,0,0,1-.22949-.34864L113.248,6.9553a.24979.24979,0,1,1,.459.19727L99.72944,39.63792A.24964.24964,0,0,1,99.49994,39.78929Z"/>
      <path d="M39.54535,65.11253a.25158.25158,0,0,1-.09863-.02051L6.94233,51.10472a.24979.24979,0,0,1,.19726-.459L39.644,64.633a.24993.24993,0,0,1-.09864.47949Z"/>
      <path d="M156.56586,115.4553a.25141.25141,0,0,1-.09863-.02051l-32.49512-13.97753a.24979.24979,0,1,1,.19727-.459l32.49511,13.97754a.24993.24993,0,0,1-.09863.47949Z"/>
    </g>
  </g>

        </g>
    </g>
</g>

<!-- ITEM 4 -->
<g>
    <defs>
        
        <clipPath id="clip-path-id-viewbox-item-4">
            <rect x="0.0" y="0.0" width="255.71484" height="154.81836"/>
        </clipPath>
    </defs>
    <g transform="translate(412.0 164.0) rotate(0.0 146.5 89.0) scale(1.1458075722159886 1.14973443718174)">
        <g clip-path="url(#clip-path-id-viewbox-item-4)" transform="translate(-0.0 -0.0)">

  
  <g>
    <path d="M244.39063,143.59082H12.72681a1.50023,1.50023,0,0,1-1.5-1.5V12.72656a1.50023,1.50023,0,0,1,1.5-1.5H244.39063a1.50024,1.50024,0,0,1,1.5,1.5V142.09082A1.50023,1.50023,0,0,1,244.39063,143.59082Zm-230.16382-3H242.89063V14.22656H14.22681Z"/>
    <g>
      <rect x="0.74989" y="0.7499" width="23.95405" height="23.95405" style="         fill: #e64337;       "/>
      <rect x="231.01085" y="0.7499" width="23.95405" height="23.95405" style="         fill: #f85750;       "/>
      <rect x="0.74989" y="130.11383" width="23.95405" height="23.95405" style="         fill: #f85750;       "/>
      <rect x="231.01085" y="130.11383" width="23.95405" height="23.95405" style="         fill: #ff736b;       "/>
    </g>
    <g>
      <path d="M24.70386,25.4541H.75a.75.75,0,0,1-.75-.75V.75A.75.75,0,0,1,.75,0H24.70386a.75.75,0,0,1,.75.75V24.7041A.75.75,0,0,1,24.70386,25.4541ZM1.5,23.9541H23.95386V1.5H1.5Z"/>
      <path d="M254.96484,25.4541h-23.9541a.75.75,0,0,1-.75-.75V.75a.75.75,0,0,1,.75-.75h23.9541a.75.75,0,0,1,.75.75V24.7041A.75.75,0,0,1,254.96484,25.4541Zm-23.2041-1.5h22.4541V1.5h-22.4541Z"/>
      <path d="M24.70386,154.81836H.75a.75.75,0,0,1-.75-.75v-23.9541a.75.75,0,0,1,.75-.75H24.70386a.75.75,0,0,1,.75.75v23.9541A.75.75,0,0,1,24.70386,154.81836ZM1.5,153.31836H23.95386v-22.4541H1.5Z"/>
      <path d="M254.96484,154.81836h-23.9541a.75.75,0,0,1-.75-.75v-23.9541a.75.75,0,0,1,.75-.75h23.9541a.75.75,0,0,1,.75.75v23.9541A.75.75,0,0,1,254.96484,154.81836Zm-23.2041-1.5h22.4541v-22.4541h-22.4541Z"/>
    </g>
  </g>

        </g>
    </g>
</g>

<!-- ITEM 5 -->
<g>
    <defs>
        
        <clipPath id="clip-path-id-viewbox-item-5">
            <rect x="0.0" y="0.0" width="16.81666" height="136.56299"/>
        </clipPath>
    </defs>
    <g transform="translate(234.0 479.0) rotate(0.0 10.0 81.0) scale(1.1892968044784162 1.1862657664422842)">
        <g clip-path="url(#clip-path-id-viewbox-item-5)" transform="translate(-0.0 -0.0)">

  
  <g>
    <g>
      <path d="M16.06658,18.848V129.47578A6.33908,6.33908,0,0,1,9.729,135.81335H7.08759A6.33908,6.33908,0,0,1,.75,129.47578V18.848Z" style="         fill: #334a5a;       "/>
      <path d="M11.51747,3.082l4.54911,15.766H.75L5.29913,3.082A3.23872,3.23872,0,0,1,11.51747,3.082Z" style="         fill: #4377a5;       "/>
    </g>
    <g>
      <path d="M9.729,136.563H7.08765A7.095,7.095,0,0,1,0,129.47607V18.84814a.75.75,0,0,1,1.5,0V129.47607A5.59334,5.59334,0,0,0,7.08765,135.063H9.729a5.59333,5.59333,0,0,0,5.58764-5.58692V18.84814a.75.75,0,0,1,1.5,0V129.47607A7.095,7.095,0,0,1,9.729,136.563Z"/>
      <path d="M16.06665,19.59814H.75a.75029.75029,0,0,1-.7207-.958L4.57837,2.874A3.90467,3.90467,0,0,1,8.40845,0,3.90421,3.90421,0,0,1,12.238,2.87354l4.54932,15.7666a.75029.75029,0,0,1-.72071.958Zm-14.31958-1.5H15.06958L10.79688,3.29A2.40964,2.40964,0,0,0,8.40845,1.5,2.41007,2.41007,0,0,0,6.01954,3.29053Z"/>
    </g>
  </g>

        </g>
    </g>
</g>

<!-- ITEM 6 -->
<g>
    <defs>
        
        <clipPath id="clip-path-id-viewbox-item-6">
            <rect x="0.0" y="0.0" width="479.82617" height="234.1377"/>
        </clipPath>
    </defs>
    <g transform="translate(227.0 427.0) rotate(0.0 275.5 135.0) scale(1.1483325305078713 1.1531675590902277)">
        <g clip-path="url(#clip-path-id-viewbox-item-6)" transform="translate(-0.0 -0.0)">

  
  <g>
    <path d="M473.09624,72.2701c4.65917,1.52248,5.97988,7.18136,5.97988,10.74911,0,4.008-6.58521,15.86685-18.34319,19.32455-1.14645.33934-2.2287.60532-3.2284.8071V103.16c-9.26331,1.91686-12.42751-1.4216-12.37248-5.69556.03669-2.38462.99053-4.76006,2.78816-7.65828a29.37562,29.37562,0,0,0,11.62041-5.16361C462.95246,82.26714,469.235,77.69968,473.09624,72.2701Z" style="         fill: #5e95ce;       "/>
    <path d="M470.31725,53.129c8.30946,6.29171,6.97041,13.23461,2.779,19.14112-3.86124,5.42958-10.14378,9.997-13.55562,12.37248a29.37562,29.37562,0,0,1-11.62041,5.16361c-3.43934.55946-6.63106.01834-9.09822-2.137-4.28313-3.76035-1.99023-10.43727,2.63225-14.70206l.00917-.00917a13.72269,13.72269,0,0,0,3.8429-.8071C451.43293,69.94051,466.08914,61.73194,470.31725,53.129Z" style="         fill: #5e95ce;       "/>
    <path d="M441.45424,72.96714c-4.62248,4.26479-6.91538,10.94171-2.63225,14.70206,2.46716,2.15533,5.65888,2.69645,9.09822,2.137-1.79763,2.89822-2.75147,5.27366-2.78816,7.65828-.055,4.274,3.10917,7.61242,12.37248,5.69556a62.61921,62.61921,0,0,1-2.50385,16.66478c-23.25.02752-28.918,23.516-45.09672,24.3781S392.4229,114.2118,392.4229,106.6544c0-22.663-4.0997-29.99111-15.53668-42.51033-8.28195-9.06154-3.21923-18.334,6.92455-15.31657s20.48934,14.8855,22.64467,17.04083c7.3923-6.77781,49.31566-38.04378,62.752-22.86479,2.834,3.20089,2.80651,6.69526,1.10977,10.12544-4.22811,8.603-18.88432,16.81153-25.01094,19.02189a13.72269,13.72269,0,0,1-3.8429.8071Z" style="         fill: #5e95ce;       "/>
    <path d="M409.904,144.20291c16.17869-.86213,21.84673-24.35058,45.09672-24.3781-13.29881,47.57306-77.79346,113.56268-153.64254,113.56268,13.81242,0,29.3491-6.90621,29.3491-27.19377V201.3878C365.596,178.523,392.4229,134.88457,392.4229,106.6544,392.4229,114.2118,393.72526,145.065,409.904,144.20291Z" style="         fill: #4377a5;       "/>
    <path d="M330.70724,201.3878v4.80592c0,20.28756-15.53668,27.19377-29.3491,27.19377H265.53389V216.54844h19.89319c.31184,0,.62367,0,.9355-.00917C301.63329,216.31,316.81228,210.49519,330.70724,201.3878Z" style="         fill: #fe9b19;       "/>
    <path d="M330.70724,27.94378v173.444c-13.895,9.10739-29.074,14.92218-44.34466,15.15147,19.38875-.42189,24.91922-14.06922,24.91922-20.01242V65.23549c0-14.94053-13.684-20.03077-25.85472-20.03077H180.08215v-14.06a7.66287,7.66287,0,0,0,0-15.32573V.75h121.276C324.2321.75,330.70724,19.74438,330.70724,27.94378Zm-22.56212-2.86153A9.71823,9.71823,0,1,0,294.40607,11.334l-4.89763,4.89763L284.033,21.7071a9.71822,9.71822,0,1,0,13.74822,13.73905l5.47544-5.47544Z" style="         fill: #ffd14a;       "/>
    <path d="M311.2818,65.23549V196.52685c0,5.9432-5.53047,19.59053-24.91922,20.01242-.31183.00917-.62366.00917-.9355.00917H265.53389V106.6544a25.462,25.462,0,0,0-25.46034-25.46034H205.5425a25.464,25.464,0,0,1-25.46035-25.46952V45.20472H285.42708C297.59779,45.20472,311.2818,50.295,311.2818,65.23549Z" style="         fill: #4377a5;       "/>
    <path d="M308.14512,11.334a9.72042,9.72042,0,0,1,0,13.74822l-4.88846,4.88846c-.1284,0-13.74822-13.739-13.74822-13.739l4.89763-4.89763a9.69832,9.69832,0,0,1,13.73905,0Z" style="         fill: #5e95ce;       "/>
    <path d="M303.25666,29.97071l-5.47544,5.47544A9.71822,9.71822,0,1,1,284.033,21.7071l5.47544-5.47544S303.12826,29.97071,303.25666,29.97071Z" style="         fill: #4377a5;       "/>
    <path d="M265.53389,216.54844v16.83905H55.34847c-23.31419,0-25.90058-11.65709-25.90058-25.03845V28.80591C29.44789,9.38048,39.37155.75,57.07273.75H180.08215V15.81894a7.66287,7.66287,0,1,0,0,15.32573V45.20472H68.66563c-20.5352,0-22.81893,8.58462-22.81893,18.43491V195.88484c0,14.30769,8.7497,20.6636,24.34141,20.6636H265.53389ZM72.81119,35.44615a9.70936,9.70936,0,0,0,0-13.73905l-5.47544-5.47544L62.44729,11.334A9.72146,9.72146,0,0,0,48.69907,25.08225l4.89763,4.88846,5.47544,5.47544A9.70936,9.70936,0,0,0,72.81119,35.44615Z" style="         fill: #fad86e;       "/>
    <path d="M134.83868,113.78073l14.11508-19.22366-18.4991,2.87071L156.44695,46.287V45.20472h23.6352V55.72454A25.464,25.464,0,0,0,205.5425,81.19406h34.53105a25.462,25.462,0,0,1,25.46034,25.46034v109.894H70.18811c-15.59171,0-24.34141-6.35591-24.34141-20.6636V63.63963c0-9.85029,2.28373-18.43491,22.81893-18.43491h47.31625L85.5597,121.7325l19.16863-3.91627L80.93722,187.181ZM215.25521,149.981a62.718,62.718,0,0,1-19.21448,1.13728,84.11759,84.11759,0,0,1-18.6-3.58609,72.53087,72.53087,0,0,1-15.48165-6.85118c-.91716-.54113-1.816-1.10976-2.70562-1.70592-7.218-4.81509-13.097.72456-15.37159,9.245-2.55888,9.566-.57781,22.88313,9.11656,29.58756,3.76953,2.60473,8.70385,4.21893,14.99556,4.21893,1.2932,0,2.5497-.03668,3.7787-.11923a48.00326,48.00326,0,0,0,22.14023-6.59437C206.01942,168.0674,212.11853,156.66711,215.25521,149.981Z" style="         fill: #5e95ce;       "/>
    <path d="M196.04073,151.11829a62.718,62.718,0,0,0,19.21448-1.13728c-3.60443,7.71332-12.60177,12.78521-23.09407,15.02308C192.28037,159.1893,193.83954,153.38368,196.04073,151.11829Z" style="         fill: #ffe4e9;       "/>
    <path d="M215.25521,149.981c-3.13668,6.6861-9.23579,18.08639-21.34229,25.332v-.00917a23.87985,23.87985,0,0,1-1.75178-10.2997C202.65344,162.76622,211.65078,157.69433,215.25521,149.981Z" style="         fill: #fed3d5;       "/>
    <path d="M193.91292,175.30379v.00917a48.00326,48.00326,0,0,1-22.14023,6.59437,44.78514,44.78514,0,0,1-1.14645-16.22455,62.17221,62.17221,0,0,0,21.5349-.67869A23.87985,23.87985,0,0,0,193.91292,175.30379Z" style="         fill: #fed3d5;       "/>
    <path d="M196.04073,151.11829c-2.20119,2.26539-3.76036,8.071-3.87959,13.8858a62.17221,62.17221,0,0,1-21.5349.67869c.853-7.77751,3.58609-14.4636,6.81449-18.15058A84.11759,84.11759,0,0,0,196.04073,151.11829Z" style="         fill: #ffe4e9;       "/>
    <path d="M180.08215,15.81894a7.66287,7.66287,0,1,1-7.66745,7.66745A7.66209,7.66209,0,0,1,180.08215,15.81894Z" style="         fill: #5e95ce;       "/>
    <path d="M177.44073,147.5322c-3.2284,3.687-5.96153,10.37307-6.81449,18.15058a43.201,43.201,0,0,1-17.80207-6.40177,38.92975,38.92975,0,0,1,9.13491-18.6A72.53087,72.53087,0,0,0,177.44073,147.5322Z" style="         fill: #ffe4e9;       "/>
    <path d="M170.62624,165.68278a44.78514,44.78514,0,0,0,1.14645,16.22455c-1.229.08255-2.4855.11923-3.7787.11923-6.29171,0-11.226-1.6142-14.99556-4.21893a52.25292,52.25292,0,0,1-.17426-18.52662A43.201,43.201,0,0,0,170.62624,165.68278Z" style="         fill: #fed3d5;       "/>
    <path d="M159.25346,138.9751c.88965.59616,1.78846,1.16479,2.70562,1.70592a38.92975,38.92975,0,0,0-9.13491,18.6,22.29361,22.29361,0,0,1-8.9423-11.06094C146.15642,139.69966,152.03542,134.16,159.25346,138.9751Z" style="         fill: #ffe4e9;       "/>
    <path d="M134.83868,113.78073,80.93722,187.181l34.18253-78.69228L99.152,109.947,126.034,45.20472h30.413V46.287L130.45466,97.42778l18.4991-2.87071Z" style="         fill: #f85750;       "/>
    <path d="M152.82417,159.281a52.25292,52.25292,0,0,0,.17426,18.52662c-9.69437-6.70443-11.67544-20.02159-9.11656-29.58756A22.29361,22.29361,0,0,0,152.82417,159.281Z" style="         fill: #fed3d5;       "/>
    <path d="M126.034,45.20472,99.152,109.947l15.96774-1.45829L80.93722,187.181l23.79111-69.36477L85.5597,121.7325l30.42218-76.52778Z" style="         fill: #2768ab;       "/>
    <path d="M72.81119,21.7071a9.715,9.715,0,0,1-13.739,13.73905L53.5967,29.97071c.11923,0,13.73905-13.739,13.73905-13.739Z" style="         fill: #4377a5;       "/>
    <path d="M62.44729,11.334l4.88846,4.89763S53.71593,29.97071,53.5967,29.97071l-4.89763-4.88846A9.72146,9.72146,0,1,1,62.44729,11.334Z" style="         fill: #5e95ce;       "/>
    <path d="M29.44789,95.70352v57.83607H7.86713A7.12,7.12,0,0,1,.75,146.41326V102.82068a7.118,7.118,0,0,1,7.11716-7.11716Z" style="         fill: #4377a5;       "/>
  </g>
  <g>
    <path d="M301.35815,234.1377H55.34839c-24.59107,0-26.65039-13.31153-26.65039-25.78907V28.80566C28.698,9.69141,38.24463,0,57.07275,0h244.2854c22.74195,0,30.09913,18.82617,30.09913,27.94336v178.25C331.45728,226.79688,315.90894,234.1377,301.35815,234.1377ZM57.07275,1.5C38.98877,1.5,30.198,10.43164,30.198,28.80566v179.543c0,12.79981,1.92358,24.28907,25.15039,24.28907H301.35815c13.82569,0,28.59913-6.94727,28.59913-26.44434v-178.25c0-8.62793-6.99073-26.44336-28.59913-26.44336Z"/>
    <path d="M285.427,217.04883H70.18823c-16.48364,0-24.84155-7.1211-24.84155-21.16406V63.63965c0-9.58106,1.80054-18.93457,23.31885-18.93457H285.427c12.74072,0,26.35474,5.39355,26.35474,20.53027v131.291c0,6.51269-6.2107,20.09472-25.4082,20.51269a.54752.54752,0,0,1-.47681-.31836A.50075.50075,0,0,1,285.427,217.04883ZM68.66553,45.70508c-20.59546,0-22.31885,8.85937-22.31885,17.93457V195.88477c0,13.56836,7.79858,20.16406,23.84155,20.16406H285.427a.49221.49221,0,0,0,.92456-.00977c19.9419-.43359,24.43018-14.58886,24.43018-19.51269V65.23535c0-14.39941-13.09741-19.53027-25.35474-19.53027Z"/>
    <path d="M265.53394,233.6377a.25017.25017,0,0,1-.25-.25V106.6543a25.239,25.239,0,0,0-25.21045-25.21h-34.531A25.74441,25.74441,0,0,1,179.832,55.72461V31.14453a.25.25,0,0,1,.5,0V55.72461a25.2436,25.2436,0,0,0,25.21045,25.21973h34.531a25.7392,25.7392,0,0,1,25.71045,25.71V233.3877A.25017.25017,0,0,1,265.53394,233.6377Z"/>
    <path d="M180.082,16.06934a.25017.25017,0,0,1-.25-.25V.75a.25.25,0,0,1,.5,0V15.81934A.25017.25017,0,0,1,180.082,16.06934Z"/>
    <path d="M180.082,31.89453a8.4126,8.4126,0,1,1,8.40845-8.4082A8.42193,8.42193,0,0,1,180.082,31.89453Zm0-15.32519a6.9126,6.9126,0,1,0,6.90845,6.917A6.92467,6.92467,0,0,0,180.082,16.56934Z"/>
    <path d="M167.9939,182.52637c-6.0022,0-11.14283-1.44922-15.27954-4.30762-10.074-6.96582-11.89063-20.501-9.31543-30.12793,1.49389-5.59668,4.37915-9.57227,7.91552-10.90625,2.57227-.97363,5.41333-.49414,8.21656,1.375.8999.60254,1.802,1.1709,2.68212,1.69043a71.90073,71.90073,0,0,0,15.377,6.80469,83.05255,83.05255,0,0,0,18.48926,3.56543,62.61035,62.61035,0,0,0,19.05688-1.124.49966.49966,0,0,1,.57153.69727c-2.04248,4.35352-8.25756,17.60059-21.53808,25.54785a48.71646,48.71646,0,0,1-22.36646,6.665C170.60815,182.4873,169.36108,182.52637,167.9939,182.52637ZM154.023,137.68652a6.63178,6.63178,0,0,0-2.35547.4336c-3.231,1.21875-5.89258,4.94726-7.30249,10.22851-2.56665,9.59571-.32764,22.6543,8.918,29.04785,3.96631,2.74024,8.91577,4.12989,14.71094,4.12989,1.34448,0,2.56933-.03907,3.74511-.11817a47.72742,47.72742,0,0,0,21.91651-6.52441c11.19092-6.69727,17.157-16.80664,20.70459-24.18359a65.236,65.236,0,0,1-18.35889.916,84.00524,84.00524,0,0,1-18.71045-3.60742,72.94419,72.94419,0,0,1-15.58813-6.89844c-.894-.52832-1.8125-1.10644-2.7273-1.71972A8.9681,8.9681,0,0,0,154.023,137.68652Z"/>
    <path d="M179.41748,166.55859a61.15858,61.15858,0,0,1-8.82739-.6289,43.40546,43.40546,0,0,1-17.906-6.44141,22.44011,22.44011,0,0,1-9.03833-11.18652.2503.2503,0,0,1,.15357-.31836.2529.2529,0,0,1,.3186.1543,21.95281,21.95281,0,0,0,8.84619,10.93652,42.91351,42.91351,0,0,0,17.69849,6.36133,62.37478,62.37478,0,0,0,21.44653-.67578c11.26831-2.40332,19.62207-7.82813,22.91943-14.88379a.25273.25273,0,0,1,.33252-.1211.24988.24988,0,0,1,.12061.332c-3.36426,7.2002-11.84522,12.72559-23.26831,15.16114A62.04032,62.04032,0,0,1,179.41748,166.55859Z"/>
    <path d="M152.99829,178.05762a.2498.2498,0,0,1-.24609-.208,52.98934,52.98934,0,0,1-.17383-18.61426,39.26991,39.26991,0,0,1,9.19018-18.7168.25009.25009,0,1,1,.38086.32422,38.78986,38.78986,0,0,0-9.07959,18.48438,52.5043,52.5043,0,0,0,.175,18.43848.24945.24945,0,0,1-.2041.28808A.21.21,0,0,1,152.99829,178.05762Z"/>
    <path d="M171.77246,182.15723a.2501.2501,0,0,1-.24145-.18653,45.27813,45.27813,0,0,1-1.15332-16.31543c.81958-7.4707,3.3894-14.30761,6.875-18.28808a.25015.25015,0,1,1,.376.33008c-3.36938,3.84765-5.95727,10.749-6.7539,18.01269a44.77476,44.77476,0,0,0,1.13964,16.13379.25093.25093,0,0,1-.178.30566A.28612.28612,0,0,1,171.77246,182.15723Z"/>
    <path d="M193.91309,175.55371a.24945.24945,0,0,1-.22657-.14355,24.11965,24.11965,0,0,1-1.77539-10.41211c.123-6.00684,1.74756-11.78711,3.95044-14.05371a.24966.24966,0,1,1,.3584.34765c-2.12183,2.18457-3.68823,7.8252-3.80884,13.7168a23.61666,23.61666,0,0,0,1.728,10.18848.25057.25057,0,0,1-.12012.333A.2565.2565,0,0,1,193.91309,175.55371Z"/>
    <path d="M210.79761,128.44336a15.59124,15.59124,0,0,1-9.677-3.18457c-3.54517-2.78906-5.82349-7.32617-6.41529-12.77441-.51025-4.78028.28345-9.58008.98364-13.81543a1.50015,1.50015,0,0,1,2.96.49023c-.66919,4.0459-1.42749,8.63281-.96094,13.00391.49634,4.56933,2.42383,8.48437,5.2876,10.73828,3.67236,2.88867,9.415,3.33886,14.28979,1.11621,5.42554-2.47266,8.87622-7.36231,10.81567-11.0293,2.54346-4.82715,4.01441-10.21387,5.437-15.42383a1.5001,1.5001,0,1,1,2.894.791c-1.46509,5.36523-2.98023,10.91308-5.678,16.0332-2.15869,4.08106-6.03052,9.53613-12.22461,12.35938A18.65258,18.65258,0,0,1,210.79761,128.44336Z"/>
    <path d="M144.16357,117.44727q-.36584,0-.73413-.01172a22.31723,22.31723,0,0,1-8.74145-2.05762c-.12134-.05371-.26514-.126-.41187-.20117l-.11157-.05664a26.26291,26.26291,0,0,1-4.87158-3.125,38.51012,38.51012,0,0,1-10.64624-14.49024,1.5,1.5,0,1,1,2.74121-1.21875,35.51709,35.51709,0,0,0,9.78467,13.37012,23.20231,23.20231,0,0,0,4.32763,2.77734l.13843.07032c.09839.05078.19409.09961.29444.14453a19.33346,19.33346,0,0,0,7.5896,1.78906,15.798,15.798,0,0,0,12.354-4.74609,17.13009,17.13009,0,0,0,4.023-11.43555,29.95042,29.95042,0,0,0-3.04834-12.39746,1.49991,1.49991,0,1,1,2.73144-1.24024,32.85445,32.85445,0,0,1,3.3169,13.63477,19.88112,19.88112,0,0,1-4.79737,13.4502A18.61644,18.61644,0,0,1,144.16357,117.44727Z"/>
    <path d="M122.91455,122.30664a1.50006,1.50006,0,0,1-1.17212-2.43457c3.04932-3.82617,6.39893-8.2207,7.01685-9.31836a1.50113,1.50113,0,0,1,2.42065-.8916c1.37207,1.11426.57251,2.15918-3.269,7.18359-1.887,2.46778-3.82227,4.89551-3.82227,4.89551A1.49632,1.49632,0,0,1,122.91455,122.30664Zm6.373-10.31641.00171.002Zm-.002-.001.00147.001Zm-.0017-.002.00122.001Zm-.002-.001.00122.001Zm-.00171-.00195.00122.001Zm-.00195-.002.00122.001Zm-.00171-.001.00122.001Zm-.00195-.002.00146.001Zm-.002-.001.00146.001Zm-.00391-.00391.00366.00293Zm-.00171-.001.00122.001Zm-.00171-.00195.001.001Zm-.00171-.001h0Zm-.00171-.00195.00074.001Zm-.00171-.001h0Zm-.00146-.001h0Z"/>
    <path d="M143.47827,127.167a1.50023,1.50023,0,0,1-1.5-1.5v-9.73047a1.5,1.5,0,0,1,3,0V125.667A1.50023,1.50023,0,0,1,143.47827,127.167Z"/>
    <path d="M163.739,120.21484a1.49673,1.49673,0,0,1-1.14819-.53418l-6.75024-8.01562a1.49982,1.49982,0,1,1,2.29492-1.93164l6.75024,8.01562a1.49975,1.49975,0,0,1-1.14673,2.46582Z"/>
    <path d="M80.937,187.68066a.49946.49946,0,0,1-.47265-.66211l23.50732-68.5371-18.31177,3.74121a.50013.50013,0,0,1-.5647-.67481l30.42212-76.52734a.49992.49992,0,1,1,.9292.36914l-30.08032,75.668,18.262-3.73145a.50032.50032,0,0,1,.573.65235L82.4729,184.24512l65.36157-89.00879-17.30322,2.68555a.49593.49593,0,0,1-.48145-.2002.50123.50123,0,0,1-.041-.52051l25.99243-51.14062a.50007.50007,0,0,1,.8916.45312l-25.55,50.27051L148.8772,94.0625a.49992.49992,0,0,1,.47973.79l-68.0166,92.624A.501.501,0,0,1,80.937,187.68066Z"/>
    <path d="M80.937,187.68066a.51313.51313,0,0,1-.199-.041.50062.50062,0,0,1-.25928-.6582L114.325,109.0625l-15.12744,1.38281a.50007.50007,0,0,1-.50708-.68945l26.88184-64.74219a.49978.49978,0,1,1,.92334.38281L99.93164,109.374l15.14258-1.38379a.5111.5111,0,0,1,.45068.20508.50012.50012,0,0,1,.05323.49219L81.39575,187.37988A.49963.49963,0,0,1,80.937,187.68066Z"/>
    <path d="M65.93848,39.044h-.0066A10.3777,10.3777,0,0,1,58.541,35.97559L48.16919,25.61328A10.47152,10.47152,0,1,1,62.97754,10.80371l10.364,10.37305A10.46729,10.46729,0,0,1,65.93848,39.044ZM55.5686,9.23145a8.97657,8.97657,0,0,0-6.33935,15.32031L59.60229,34.916A8.88868,8.88868,0,0,0,65.93286,37.544h.00562A8.96729,8.96729,0,0,0,72.281,22.2373l-5.47559-5.47558h-.00049L61.9165,11.86426A8.9174,8.9174,0,0,0,55.5686,9.23145Z"/>
    <path d="M53.59668,30.2207a.25021.25021,0,0,1-.13159-.46289c.50708-.4209,10.03979-10.0166,13.69311-13.70215a.24981.24981,0,1,1,.355.35157C53.82007,30.2207,53.73584,30.2207,53.59668,30.2207Z"/>
    <path d="M290.907,39.03809a10.46073,10.46073,0,0,1-7.40429-17.86133l10.373-10.37305A10.46806,10.46806,0,0,1,308.67529,25.6123L298.31152,35.97656A10.43967,10.43967,0,0,1,290.907,39.03809ZM301.27563,9.23145a8.909,8.909,0,0,0-6.33935,2.63281l-10.37305,10.373A8.9684,8.9684,0,0,0,297.251,34.916l10.36377-10.36426a8.97657,8.97657,0,0,0-6.33912-15.32031Z"/>
    <path d="M303.25659,30.2207c-.14013,0-.23266,0-13.92554-13.81347a.24981.24981,0,1,1,.355-.35157c3.65112,3.68262,13.17993,13.27442,13.6997,13.70118a.24987.24987,0,0,1-.12915.46386Z"/>
    <path d="M29.448,154.29H7.86719A7.8808,7.8808,0,0,1,0,146.41309V102.82031a7.87621,7.87621,0,0,1,7.86719-7.86718H29.448a.75.75,0,0,1,0,1.5H7.86719A6.37441,6.37441,0,0,0,1.5,102.82031v43.59278A6.379,6.379,0,0,0,7.86719,152.79H29.448a.75.75,0,1,1,0,1.5Z"/>
    <path d="M440.717,73.73926c-4.95581,0-9.11914-2.875-10.05615-7.04688-.4751-2.11523-.97656-9.43652,12.51367-14.84668a.75013.75013,0,0,1,.55811,1.39258c-9.84546,3.94824-12.45215,9.36914-11.6084,13.125.82373,3.668,4.72876,6.13477,9.28467,5.85449a.75926.75926,0,0,1,.79394.70411.75029.75029,0,0,1-.70312.79394Q441.10571,73.73926,440.717,73.73926Z"/>
    <path d="M330.708,202.1377a.74986.74986,0,0,1-.41187-1.377c33.26953-21.80371,61.37671-64.89844,61.37671-94.10644,0-22.93262-4.4397-30.07227-15.34033-42.00391-4.24365-4.64258-5.50122-10.01269-3.20361-13.67969,1.98828-3.17285,6.16333-4.27343,10.89575-2.8623,9.21582,2.74121,18.4834,12.51855,21.97241,16.19922.18189.1914.34741.36621.49561.52148,6.20947-5.4248,35.2207-27.583,53.44262-26.65527a13.50517,13.50517,0,0,1,9.83374,4.333c2.82666,3.19238,3.23731,6.87793,1.22022,10.95507-4.26148,8.67188-18.90113,17.03907-25.42847,19.39356a14.46752,14.46752,0,0,1-4.05273.85156.75036.75036,0,0,1-.08936-1.49805,12.96266,12.96266,0,0,0,3.63281-.76367c6.33521-2.28515,20.51661-10.35351,24.59253-18.64746,1.74536-3.52734,1.41846-6.56836-.998-9.29687a12.06542,12.06542,0,0,0-8.78882-3.8291c-17.07886-.92676-46.17945,20.59277-52.895,26.749a.74865.74865,0,0,1-1.03711-.02246c-.24146-.24121-.58423-.60254-1.0166-1.0586-3.41333-3.60156-12.48047-13.167-21.31153-15.79394-4.11938-1.22461-7.55761-.39551-9.197,2.22168-1.92969,3.0791-.73633,7.73926,3.04,11.87109,11.17969,12.23731,15.73291,19.55371,15.73291,43.01563,0,29.64648-28.41748,73.3164-62.05444,95.36035A.74756.74756,0,0,1,330.708,202.1377Z"/>
    <path d="M285.427,216.79883a.25017.25017,0,0,1-.25-.25.24087.24087,0,0,1,.25757-.25c.30689,0,.61353,0,.92017-.00977,14.3728-.21582,29.24755-5.2998,44.21557-15.11035a.24987.24987,0,0,1,.27393.418c-15.04834,9.86328-30.01294,14.97461-44.478,15.19238C286.05591,216.79883,285.7417,216.79883,285.427,216.79883Z"/>
    <path d="M301.35815,234.1377a.75.75,0,0,1,0-1.5c75.17017,0,139.728-65.82325,152.92017-113.01465a61.87065,61.87065,0,0,0,2.47632-16.46289.75.75,0,0,1,1.5,0,63.36747,63.36747,0,0,1-2.5315,16.86621c-7.01879,25.10742-27.06,53.14453-53.61059,74.999C371.47021,220.24707,335.68848,234.1377,301.35815,234.1377Z"/>
    <path d="M445.46216,90.76465a10.48418,10.48418,0,0,1-7.13355-2.53125,7.3129,7.3129,0,0,1-2.52465-5.55469c-.04151-3.36621,1.92871-7.29883,5.14184-10.26269a.75359.75359,0,0,1,1.05762.03027.74429.74429,0,0,1-.01709,1.04883l-.009.00879c-2.92456,2.69922-4.71,6.20214-4.67333,9.15625a5.7755,5.7755,0,0,0,2.01293,4.44531c2.13794,1.86816,4.99219,2.52637,8.48291,1.96094a28.36344,28.36344,0,0,0,11.31153-5.03907c2.3042-1.60351,9.31347-6.48339,13.37378-12.1914,5.00781-7.05762,4.15063-12.98145-2.62061-18.10938a.74972.74972,0,1,1,.90528-1.19531c7.34179,5.55859,8.35791,12.53516,2.938,20.17285C469.49609,78.626,462.32544,83.61816,459.969,85.25781a29.83459,29.83459,0,0,1-11.93066,5.28907A16.04586,16.04586,0,0,1,445.46216,90.76465Z"/>
    <path d="M452.6731,104.46582a9.32316,9.32316,0,0,1-6.08033-1.77637,6.40129,6.40129,0,0,1-2.21069-5.23437c.03687-2.38965.9314-4.86914,2.90088-8.04395a.75.75,0,1,1,1.27441.791c-1.84253,2.96973-2.64258,5.14551-2.67529,7.27441a4.89132,4.89132,0,0,0,1.66528,4.05567c1.83765,1.51757,5.18824,1.834,9.69312.916a.76511.76511,0,0,1,.11621-.0332c1.0166-.2041,2.08081-.4707,3.16357-.791,11.68409-3.43554,17.80591-15.16894,17.80591-18.60449,0-3.80664-1.43066-8.71875-5.46289-10.03613a.75.75,0,1,1,.46582-1.42578c4.79541,1.56738,6.49707,7.15429,6.49707,11.46191,0,4.20508-6.6167,16.43652-18.88159,20.04395-1.08374.32031-2.1521.58886-3.177.79882a.70448.70448,0,0,1-.11084.03223A24.86518,24.86518,0,0,1,452.6731,104.46582Zm4.83154-1.30566h0Z"/>
    <path d="M409.25049,144.4707a11.09225,11.09225,0,0,1-7.844-3.20605c-8.78857-8.333-9.23364-30.293-9.23364-34.61035a.25.25,0,1,1,.5,0c0,4.28125.43775,26.05566,9.07764,34.24707a10.581,10.581,0,0,0,8.14038,3.05176c7.15308-.38086,12.31348-5.32715,17.77661-10.56446,6.7478-6.46777,14.39551-13.79785,27.333-13.81347l.03686.25v.25c-12.77319.01464-20.344,7.27246-27.02368,13.6748-5.53222,5.30273-10.75781,10.31152-18.09619,10.70313Q409.5813,144.4707,409.25049,144.4707Z"/>
  </g>

        </g>
    </g>
</g>

<!-- ITEM 7 -->
<g>
    <defs>
        
        <clipPath id="clip-path-id-viewbox-item-7">
            <rect x="0.0" y="0.0" width="100.83742" height="100.83783"/>
        </clipPath>
    </defs>
    <g transform="translate(321.0 168.0) rotate(0.0 57.5 57.5) scale(1.140449646569696 1.1404450095762673)">
        <g clip-path="url(#clip-path-id-viewbox-item-7)" transform="translate(-0.0 -0.0)">

  
  <g>
    <g>
      <path d="M93.52067,7.30764l6.56686,6.56687s-27.579,32.76093-28.49614,62.97216c-9.80443-.35769-24.7633,2.4855-33.15531,10.87751-5.6497-5.64053-12.666-12.666-12.666-12.666L43.242,57.58632A9.0632,9.0632,0,0,0,56.06388,44.77361Z" style="         fill: #fad86e;       "/>
      <path d="M93.52067,7.30764l-37.45679,37.466h-.00917A9.06,9.06,0,1,0,43.242,57.58632L25.77011,75.05821l-12.666-12.666c8.392-8.392,11.2352-23.34171,10.87751-33.15531C54.19288,28.32894,86.963.75,86.963.75Z" style="         fill: #fcecb9;       "/>
      <path d="M38.43608,87.72418,26.08194,100.08749.75,74.75555,13.10414,62.39224l12.666,12.666S32.78638,82.08365,38.43608,87.72418Z" style="         fill: #4377a5;       "/>
    </g>
    <g>
      <path d="M26.08231,100.83783a.75046.75046,0,0,1-.53052-.21973l-25.332-25.332a.75.75,0,0,1-.00025-1.06055l12.354-12.36328a.75009.75009,0,0,1,1.061,1.06055l-11.824,11.833L26.08182,99.02728l11.82373-11.833a.75009.75009,0,0,1,1.061,1.06055l-12.354,12.36328A.74991.74991,0,0,1,26.08231,100.83783Z"/>
      <path d="M38.43607,88.47454a.74648.74648,0,0,1-.52979-.21972c-5.65015-5.64063-12.667-12.666-12.667-12.666l-12.66553-12.666a.74972.74972,0,0,1,0-1.06055c7.89575-7.89648,11.04248-22.06152,10.65845-32.59766a.75021.75021,0,0,1,.72705-.77734C53.55765,27.59759,86.15433.45013,86.48.1762a.74992.74992,0,0,1,1.01318.04346l13.12452,13.12451a.74972.74972,0,0,1,.04345,1.01319c-.27392.32568-27.42163,32.91406-28.32007,62.51172a.751.751,0,0,1-.2373.52539.68488.68488,0,0,1-.53979.20117c-10.53663-.38281-24.70215,2.76367-32.59766,10.65918A.74759.74759,0,0,1,38.43607,88.47454ZM14.15677,62.3847,26.30032,74.52826c.00049,0,6.59351,6.60156,12.14307,12.14355,8.10986-7.64941,21.87524-10.81152,32.42651-10.5957,1.24634-27.81348,24.69336-57.80713,28.207-62.15137L86.91263,1.76019C82.5701,5.27142,52.5679,28.72064,24.75247,29.95892,24.97,40.498,21.80569,54.27435,14.15677,62.3847Z"/>
      <path d="M49.65286,60.74212a9.56093,9.56093,0,1,1,6.70117-16.376.44807.44807,0,0,1,.06348.05371,9.5625,9.5625,0,0,1-6.76465,16.32226ZM49.64822,42.624a8.55573,8.55573,0,1,0,6.11353,2.55469.48287.48287,0,0,1-.06055-.05176A8.53242,8.53242,0,0,0,49.64822,42.624Z"/>
      <path d="M56.30154,45.28607a.75013.75013,0,0,1-.53051-1.28028L92.99026,6.77728a.7501.7501,0,0,1,1.061,1.06055L56.83206,45.06634A.74809.74809,0,0,1,56.30154,45.28607Z"/>
      <path d="M25.77005,75.30853a.25.25,0,0,1-.17676-.42676L43.06522,57.40912a.25.25,0,0,1,.35351.35351L25.94681,75.23529A.2492.2492,0,0,1,25.77005,75.30853Z"/>
    </g>
  </g>

        </g>
    </g>
</g>

<!-- ITEM 8 -->
<g>
    <defs>
        
        <clipPath id="clip-path-id-viewbox-item-8">
            <rect x="0.0" y="0.0" width="174.77734" height="53.86133"/>
        </clipPath>
    </defs>
    <g transform="translate(774.0 564.0) rotate(0.0 101.0 31.0) scale(1.155756232472699 1.1511041409486173)">
        <g clip-path="url(#clip-path-id-viewbox-item-8)" transform="translate(-0.0 -0.0)">

  
  <g>
    <rect x="0.75022" y="0.75011" width="173.27688" height="52.36145" rx="16" style="         fill: #ffedc5;       "/>
    <rect x="17.09724" y="12.93199" width="27.99769" height="27.99769" style="         fill: #fcecb9;       "/>
    <rect x="45.09493" y="12.93199" width="27.99769" height="27.99769" style="         fill: #ffd14a;       "/>
    <rect x="73.09262" y="12.93199" width="27.99769" height="27.99769" style="         fill: #fe9b19;       "/>
    <rect x="101.0903" y="12.93199" width="27.99769" height="27.99769" style="         fill: #5e95ce;       "/>
    <rect x="129.08799" y="12.93199" width="27.99769" height="27.99769" style="         fill: #2768ab;       "/>
    <path d="M158.02734,53.86133H16.75A16.76884,16.76884,0,0,1,0,37.11133V16.75A16.76884,16.76884,0,0,1,16.75,0H158.02734a16.76884,16.76884,0,0,1,16.75,16.75V37.11133A16.76884,16.76884,0,0,1,158.02734,53.86133ZM16.75,1.5A15.2672,15.2672,0,0,0,1.5,16.75V37.11133a15.2672,15.2672,0,0,0,15.25,15.25H158.02734a15.26719,15.26719,0,0,0,15.25-15.25V16.75a15.26719,15.26719,0,0,0-15.25-15.25Z"/>
    <g>
      <rect x="17.09724" y="12.93199" width="27.99769" height="27.99769" style="         fill: #ffe4e9;       "/>
      <path d="M45.09473,41.42969H17.09717a.49972.49972,0,0,1-.5-.5v-27.998a.49971.49971,0,0,1,.5-.5H45.09473a.49972.49972,0,0,1,.5.5V40.92969A.49972.49972,0,0,1,45.09473,41.42969Zm-27.49756-1H44.59473v-26.998H17.59717Z"/>
    </g>
    <path d="M73.09277,41.42969h-27.998a.49972.49972,0,0,1-.5-.5v-27.998a.49971.49971,0,0,1,.5-.5h27.998a.49971.49971,0,0,1,.5.5V40.92969A.49972.49972,0,0,1,73.09277,41.42969Zm-27.498-1h26.998v-26.998h-26.998Z"/>
    <path d="M101.09033,41.42969H73.09277a.49972.49972,0,0,1-.5-.5v-27.998a.49972.49972,0,0,1,.5-.5h27.99756a.49971.49971,0,0,1,.5.5V40.92969A.49972.49972,0,0,1,101.09033,41.42969Zm-27.49756-1h26.99756v-26.998H73.59277Z"/>
    <path d="M129.08789,41.42969H101.09033a.49972.49972,0,0,1-.5-.5v-27.998a.49971.49971,0,0,1,.5-.5h27.99756a.49971.49971,0,0,1,.5.5V40.92969A.49972.49972,0,0,1,129.08789,41.42969Zm-27.49756-1h26.99756v-26.998H101.59033Z"/>
    <path d="M157.08545,41.42969H129.08789a.49972.49972,0,0,1-.5-.5v-27.998a.49971.49971,0,0,1,.5-.5h27.99756a.49971.49971,0,0,1,.5.5V40.92969A.49972.49972,0,0,1,157.08545,41.42969Zm-27.49756-1h26.99756v-26.998H129.58789Z"/>
  </g>

        </g>
    </g>
</g>

<!-- ITEM 9 -->
<g>
    <defs>
        
        <clipPath id="clip-path-id-viewbox-item-9">
            <rect x="0.0" y="0.0" width="122.93789" height="176.73835"/>
        </clipPath>
    </defs>
    <g transform="translate(868.0 400.0) rotate(0.0 70.5 101.5) scale(1.146920611700754 1.148590557736903)">
        <g clip-path="url(#clip-path-id-viewbox-item-9)" transform="translate(-0.0 -0.0)">

  
  <g>
    <g>
      <path d="M117.7716,1.34189c7.56921,4.14722,7.20167,30.64723-15.37362,71.84576-10.72873,19.58778-26.25636,38.02454-39.59866,51.98567-3.80008-9.55025-12.06952-11.89842-20.07726-9.7846,4.569-18.94893,11.82889-42.46107,22.76716-62.42107C88.07568,11.76253,110.77633-2.49647,117.7716,1.34189Z" style="         fill: #4377a5;       "/>
      <path d="M47.93445,139.89768c6.20717,5.16965,6.38638,13.70187,2.60148,19.75434a31.0243,31.0243,0,0,1-4.29195,5.41041c-8.42438,2.51792-14.57267-.93177-14.744-7.76665-.17925-7.282-6.38091-12.28927-12.21354-11.04524a17.56455,17.56455,0,0,1,19.08984-10.46315,22.38223,22.38223,0,0,1,4.9706,1.40363A17.04056,17.04056,0,0,1,47.93445,139.89768Z" style="         fill: #8e614b;       "/>
      <path d="M62.79932,125.17332C57.31264,130.92,52.194,135.8996,47.93445,139.89768a17.04056,17.04056,0,0,0-4.58757-2.70666,22.38223,22.38223,0,0,0-4.9706-1.40363c1.04152-5.66056,2.47294-12.6508,4.34578-20.39867C50.7298,113.2749,58.99924,115.62307,62.79932,125.17332Z" style="         fill: #5e95ce;       "/>
      <path d="M31.5,157.29578c.17133,6.83488,6.31962,10.28457,14.744,7.76665-9.5366,9.66616-25.86548,13.86041-45.49385,8.80385,12.63443-5.809,16.27407-13.9446,17.45166-23.69949a14.426,14.426,0,0,1,1.08465-3.91625C25.11907,145.00651,31.32073,150.01373,31.5,157.29578Z" style="         fill: #fe9b19;       "/>
    </g>
    <g>
      <path d="M16.81746,176.73835a65.32448,65.32448,0,0,1-16.25439-2.1455.75026.75026,0,0,1-.12623-1.40821c13.242-6.08789,16.00586-14.70312,17.02027-23.10742a15.14757,15.14757,0,0,1,1.14111-4.125A18.19638,18.19638,0,0,1,38.494,135.047a23.17283,23.17283,0,0,1,5.136,1.45019,17.82576,17.82576,0,0,1,4.78662,2.82618c6.78369,5.64941,6.52149,14.7041,2.75537,20.72656a31.82915,31.82915,0,0,1-4.395,5.54C39.56722,172.89656,28.93807,176.73835,16.81746,176.73835ZM2.95052,173.628c17.33593,3.93067,33.20849.58887,42.75952-9.09179l.00244-.00293a30.38837,30.38837,0,0,0,4.18823-5.2793c3.42066-5.4707,3.6792-13.67871-2.44629-18.78027a16.34828,16.34828,0,0,0-4.38916-2.58692,21.676,21.676,0,0,0-4.80517-1.3584A16.7185,16.7185,0,0,0,19.9764,146.544a13.65036,13.65036,0,0,0-1.03052,3.7168C17.97835,158.27644,15.28084,167.25105,2.95052,173.628Z"/>
      <path d="M47.93465,140.64753a.74977.74977,0,0,1-.51343-1.29687c5.14551-4.83008,10.137-9.77442,14.83569-14.69531C79.505,106.60749,92.7889,89.17,101.74031,72.82722,114.55208,49.44636,119.09407,32.963,120.64851,23.252c2.11329-13.20362-.28662-19.63575-3.2373-21.25245-2.668-1.46533-9.35889-.02978-19.439,8.82715C90.46687,17.422,78.85286,30.14851,66.147,53.3282c-11.34863,20.708-18.606,45.27441-22.696,62.23633-1.64282,6.79687-3.102,13.64648-4.33715,20.35839a.74994.74994,0,0,1-1.4751-.27148c1.24-6.73828,2.70483-13.61523,4.35425-20.43848C46.10408,98.16218,53.40364,73.46,64.83162,52.60749,77.64241,29.2364,89.38606,16.37458,96.98225,9.70027,105.89363,1.87019,113.99861-1.58147,118.1324.68416c4.40234,2.4121,5.89673,10.9375,3.99707,22.80517-1.573,9.82813-6.15893,26.49024-19.07373,50.05859-9.01416,16.457-22.376,34.001-39.71411,52.14356-4.71753,4.94043-9.72852,9.9043-14.894,14.75293A.74734.74734,0,0,1,47.93465,140.64753Z"/>
      <path d="M62.81673,125.44148a.26664.26664,0,0,1-.22852-.13379c-3.37085-8.46-10.76465-12.06738-19.80249-9.67676a.256.256,0,0,1-.30542-.17871.25094.25094,0,0,1,.178-.30566c9.3042-2.45215,16.92065,1.25781,20.37329,9.93359a.24141.24141,0,0,1-.09912.332A.23374.23374,0,0,1,62.81673,125.44148Z"/>
      <path d="M40.99934,166.1407a10.601,10.601,0,0,1-6.32348-1.84961,8.51779,8.51779,0,0,1-3.42578-6.98926,11.57192,11.57192,0,0,0-4.3042-8.87207,9.22854,9.22854,0,0,0-7.60742-1.93555.24962.24962,0,1,1-.104-.48828,9.71381,9.71381,0,0,1,8.02124,2.03125,12.07236,12.07236,0,0,1,4.49439,9.25293,8.03558,8.03558,0,0,0,3.21948,6.59668c2.697,1.95606,6.67554,2.28809,11.20288.93653l.01953-.00489a.242.242,0,0,1,.12622-.00488.25022.25022,0,0,1-.00342.48926l-.00463.001A18.6697,18.6697,0,0,1,40.99934,166.1407Z"/>
    </g>
  </g>

        </g>
    </g>
</g>

<!-- ITEM 10 -->
<g>
    <defs>
        
        <clipPath id="clip-path-id-viewbox-item-10">
            <rect x="0.0" y="0.0" width="81.28236" height="17.50114"/>
        </clipPath>
    </defs>
    <g transform="translate(199.0 136.0) rotate(0.0 45.5 10.0) scale(1.1195541074348727 1.1427826987270544)">
        <g clip-path="url(#clip-path-id-viewbox-item-10)" transform="translate(-0.0 -0.0)">

  
  <g>
    <circle cx="8.75057" cy="8.75057" r="8.75057" style="         fill: #f85750;       "/>
    <circle cx="40.64118" cy="8.75057" r="8.75057" style="         fill: #ffd14a;       "/>
    <circle cx="72.53179" cy="8.75057" r="8.75057" style="         fill: #62b57f;       "/>
  </g>

        </g>
    </g>
</g>

<!-- ITEM 11 -->
<g>
    <defs>
        
        <clipPath id="clip-path-id-viewbox-item-11">
            <rect x="0.0" y="0.0" width="23.33936" height="17.25098"/>
        </clipPath>
    </defs>
    <g transform="translate(817.0 272.0) rotate(0.0 13.5 10.0) scale(1.1568440608482837 1.1593544250819374)">
        <g clip-path="url(#clip-path-id-viewbox-item-11)" transform="translate(-0.0 -0.0)">

  <g>
    <path d="M21.83936,3H1.5a1.5,1.5,0,0,1,0-3H21.83936a1.5,1.5,0,0,1,0,3Z"/>
    <path d="M21.83936,10.125H1.5a1.5,1.5,0,0,1,0-3H21.83936a1.5,1.5,0,0,1,0,3Z"/>
    <path d="M21.83936,17.251H1.5a1.5,1.5,0,1,1,0-3H21.83936a1.5,1.5,0,1,1,0,3Z"/>
  </g>

        </g>
    </g>
</g>

<!-- ITEM 12 -->
<g>
    <defs>
        
        <clipPath id="clip-path-id-viewbox-item-12">
            <rect x="0.0" y="0.0" width="54.10158" height="24.38604"/>
        </clipPath>
    </defs>
    <g transform="translate(969.0 135.0) rotate(0.0 29.5 13.5) scale(1.0905411634928222 1.1071908354123916)">
        <g clip-path="url(#clip-path-id-viewbox-item-12)" transform="translate(-0.0 -0.0)">

  
  <rect width="54.10158" height="24.38604" style="         fill: #ffedc5;       "/>

        </g>
    </g>
</g>

<!-- ITEM 13 -->
<g>
    <defs>
        
        <clipPath id="clip-path-id-viewbox-item-13">
            <rect x="0.0" y="0.0" width="54.10158" height="24.38604"/>
        </clipPath>
    </defs>
    <g transform="translate(970.0 352.0) rotate(0.0 29.5 13.5) scale(1.0905411634928222 1.1071908354123916)">
        <g clip-path="url(#clip-path-id-viewbox-item-13)" transform="translate(-0.0 -0.0)">

  
  <rect width="54.10158" height="24.38604" style="         fill: #ffedc5;       "/>

        </g>
    </g>
</g>

<!-- ITEM 14 -->
<g>
    <defs>
        
        <clipPath id="clip-path-id-viewbox-item-14">
            <rect x="0.0" y="0.0" width="54.10158" height="24.38604"/>
        </clipPath>
    </defs>
    <g transform="translate(970.0 310.0) rotate(0.0 29.5 13.5) scale(1.0905411634928222 1.1071908354123916)">
        <g clip-path="url(#clip-path-id-viewbox-item-14)" transform="translate(-0.0 -0.0)">

  
  <rect width="54.10158" height="24.38604" style="         fill: #5e95ce;       "/>

        </g>
    </g>
</g>

<!-- ITEM 15 -->
<g>
    <defs>
        
        <clipPath id="clip-path-id-viewbox-item-15">
            <rect x="0.0" y="0.0" width="54.10158" height="24.38604"/>
        </clipPath>
    </defs>
    <g transform="translate(969.0 268.0) rotate(0.0 29.5 13.5) scale(1.0905411634928222 1.1071908354123916)">
        <g clip-path="url(#clip-path-id-viewbox-item-15)" transform="translate(-0.0 -0.0)">

  
  <rect width="54.10158" height="24.38604" style="         fill: #ffedc5;       "/>

        </g>
    </g>
</g>

<!-- ITEM 16 -->
<g>
    <defs>
        
        <clipPath id="clip-path-id-viewbox-item-16">
            <rect x="0.0" y="0.0" width="54.10158" height="24.38604"/>
        </clipPath>
    </defs>
    <g transform="translate(969.0 225.0) rotate(0.0 30.0 13.5) scale(1.109024912026599 1.1071908354123916)">
        <g clip-path="url(#clip-path-id-viewbox-item-16)" transform="translate(-0.0 -0.0)">

  
  <rect width="54.10158" height="24.38604" style="         fill: #ffedc5;       "/>

        </g>
    </g>
</g>

<!-- ITEM 17 -->
<g>
    <defs>
        
        <clipPath id="clip-path-id-viewbox-item-17">
            <rect x="0.0" y="0.0" width="54.10158" height="24.38604"/>
        </clipPath>
    </defs>
    <g transform="translate(969.0 179.0) rotate(0.0 30.0 13.5) scale(1.109024912026599 1.1071908354123916)">
        <g clip-path="url(#clip-path-id-viewbox-item-17)" transform="translate(-0.0 -0.0)">

  
  <rect width="54.10158" height="24.38604" style="         fill: #ffedc5;       "/>

        </g>
    </g>
</g>

<!-- ITEM 18 -->
<g>
    <defs>
        
        <clipPath id="clip-path-id-viewbox-item-18">
            <rect x="0.0" y="0.0" width="143.88623" height="13.14941"/>
        </clipPath>
    </defs>
    <g transform="translate(549.0 694.0) rotate(0.0 80.5 8.0) scale(1.1189395955401709 1.2167846314017132)">
        <g clip-path="url(#clip-path-id-viewbox-item-18)" transform="translate(-0.0 -0.0)">

  <g>
    <path d="M143.13623,1.5H20.762a.75.75,0,0,1,0-1.5H143.13623a.75.75,0,0,1,0,1.5Z"/>
    <path d="M50.11108,13.14941H.75a.75.75,0,0,1,0-1.5H50.11108a.75.75,0,0,1,0,1.5Z"/>
  </g>

        </g>
    </g>
</g>

              </svg>