<?xml version="1.0" encoding="UTF-8"?><svg version="1.1" id="Layer_1" xmlns="http://www.w3.org/2000/svg" xmlns:xlink="http://www.w3.org/1999/xlink" x="0px" y="0px" width="328px" height="198px" viewBox="0 0 328 198" enable-background="new 0 0 328 198" xml:space="preserve">
<rect x="0" y="0" fill="#EEEEEE" width="328" height="198"/>
<linearGradient id="SVGID_1_" gradientUnits="userSpaceOnUse" x1="2.804" y1="17.9785" x2="323.629" y2="17.9785">
	<stop offset="0" style="stop-color:#B0CDFC"/>
	<stop offset="1" style="stop-color:#81AEF2"/>
</linearGradient>
<path fill="url(#SVGID_1_)" d="M323.629,34.49H2.804V14.275c0-7.073,5.734-12.807,12.807-12.807h308.018V34.49z"/>
<path fill="#78A9EF" d="M40.639,38.084H5.712V17.771c0-7.019,5.69-12.709,12.709-12.709h22.218V38.084z"/>
<rect x="14.175" y="12.573" fill="#89B3F4" width="18" height="18"/>
<linearGradient id="SVGID_2_" gradientUnits="userSpaceOnUse" x1="5.3333" y1="59" x2="64.8333" y2="59">
	<stop offset="0" style="stop-color:#EEEEEE"/>
	<stop offset="1" style="stop-color:#D6D7D8"/>
</linearGradient>
<rect x="5.333" y="52" fill="url(#SVGID_2_)" width="59.5" height="14"/>
<rect x="59.167" y="52" fill="#F2F2F2" width="59.5" height="14"/>
<linearGradient id="SVGID_3_" gradientUnits="userSpaceOnUse" x1="113" y1="59" x2="172.5" y2="59">
	<stop offset="0" style="stop-color:#EEEEEE"/>
	<stop offset="1" style="stop-color:#D6D7D8"/>
</linearGradient>
<rect x="113" y="52" fill="url(#SVGID_3_)" width="59.5" height="14"/>
<rect x="166.833" y="52" fill="#F2F2F2" width="59.5" height="14"/>
<linearGradient id="SVGID_4_" gradientUnits="userSpaceOnUse" x1="220.6667" y1="59" x2="280.1667" y2="59">
	<stop offset="0" style="stop-color:#EEEEEE"/>
	<stop offset="1" style="stop-color:#D6D7D8"/>
</linearGradient>
<rect x="220.667" y="52" fill="url(#SVGID_4_)" width="59.5" height="14"/>
<rect x="263.5" y="52" fill="#F2F2F2" width="59.5" height="14"/>
<path fill="#F7F7F7" d="M296,45.333H63.333c-3.3,0-6-2.7-6-6v-2.667c0-3.3,2.7-6,6-6H296c3.3,0,6,2.7,6,6v2.667
	C302,42.633,299.3,45.333,296,45.333z"/>
<circle fill="#23286B" cx="74.459" cy="41.238" r="1.5"/>
<circle fill="#23286B" cx="82.458" cy="41.238" r="1.5"/>
<circle fill="#23286B" cx="90.457" cy="41.238" r="1.5"/>
</svg>