<?xml version="1.0" encoding="UTF-8"?><svg version="1.1" xmlns="http://www.w3.org/2000/svg" xmlns:xlink="http://www.w3.org/1999/xlink" viewBox="0 0 1200 800" width="1200" height="800" x="0px" y="0px">
    
    
    <!-- ITEM 0 -->
    <g>
        <defs>
            <clipPath id="clip-path-id-viewbox-item-0">
                <rect x="0.0" y="0.0" width="67.7" height="220.35"/>
            </clipPath>
        </defs>
        <g transform="translate(435.0 129.0) rotate(0.0 79.5 257.0) scale(2.348596750369276 2.332652598139324)">
            <g clip-path="url(#clip-path-id-viewbox-item-0)" transform="translate(-0.0 -0.0)">
                <title>checklist</title><g id="Layer_2-i0" data-name="Layer 2"><g id="checklist-i0"><polygon points="60.7 208.05 60.7 12.15 5.4 44.85 5.4 189.55 60.7 208.05" fill="#05386b"/><path d="M67.7,1.15a1.1,1.1,0,0,0-.6-1,1.275,1.275,0,0,0-1.2,0L.6,39.05a1.326,1.326,0,0,0-.6,1v156.3a1.17,1.17,0,0,0,.8,1.1l65.3,22.8c.1,0,.3.1.4.1a1.854,1.854,0,0,0,.7-.2,1.193,1.193,0,0,0,.5-.9V102.35a1.2,1.2,0,0,0-2.4,0v115.2l-63-22V40.65l63-37.5v51.7a1.216,1.216,0,0,0,1.2,1.2,1.155,1.155,0,0,0,1.2-1.2V1.15Z" fill="#05386b"/><path d="M66.6,74.75a1.11,1.11,0,0,0-1.1,1.1v13.1a1.1,1.1,0,1,0,2.2,0V75.85A1.11,1.11,0,0,0,66.6,74.75Z" fill="#05386b"/><path d="M47.8,34.45a1.517,1.517,0,0,0-1.9.8L31.3,71.75,27,64.45a3.362,3.362,0,0,0-5.8,3.4l7.7,13.2.1.1a3.293,3.293,0,0,0,6-.7l13.6-44.3A1.337,1.337,0,0,0,47.8,34.45Z" fill="#1a1a1a"/><path d="M47.8,82.95a1.517,1.517,0,0,0-1.9.8l-14.6,36.5-4.3-7.3a3.362,3.362,0,0,0-5.8,3.4l7.7,13.2.1.1a3.293,3.293,0,0,0,6-.7l13.6-44.3A1.424,1.424,0,0,0,47.8,82.95Z" fill="#1a1a1a"/><path d="M47.8,134.55a1.517,1.517,0,0,0-1.9.8l-14.6,36.5-4.3-7.3a3.362,3.362,0,0,0-5.8,3.4l7.7,13.2.1.1a3.293,3.293,0,0,0,6-.7l13.6-44.3A1.38,1.38,0,0,0,47.8,134.55Z" fill="#1a1a1a"/></g></g>
            </g>
        </g>
    </g>
    
    <!-- ITEM 1 -->
    <g>
        <defs>
            <clipPath id="clip-path-id-viewbox-item-1">
                <rect x="0.0" y="0.0" width="67.7" height="220.35"/>
            </clipPath>
        </defs>
        <g transform="translate(785.0 132.0) rotate(0.0 -79.5 257.0) scale(-2.348596750369276 2.332652598139324)">
            <g clip-path="url(#clip-path-id-viewbox-item-1)" transform="translate(-0.0 -0.0)">
                <title>checklist</title><g id="Layer_2-i1" data-name="Layer 2"><g id="checklist-i1"><polygon points="60.7 208.05 60.7 12.15 5.4 44.85 5.4 189.55 60.7 208.05" fill="#05386b"/><path d="M67.7,1.15a1.1,1.1,0,0,0-.6-1,1.275,1.275,0,0,0-1.2,0L.6,39.05a1.326,1.326,0,0,0-.6,1v156.3a1.17,1.17,0,0,0,.8,1.1l65.3,22.8c.1,0,.3.1.4.1a1.854,1.854,0,0,0,.7-.2,1.193,1.193,0,0,0,.5-.9V102.35a1.2,1.2,0,0,0-2.4,0v115.2l-63-22V40.65l63-37.5v51.7a1.216,1.216,0,0,0,1.2,1.2,1.155,1.155,0,0,0,1.2-1.2V1.15Z" fill="#05386b"/><path d="M66.6,74.75a1.11,1.11,0,0,0-1.1,1.1v13.1a1.1,1.1,0,1,0,2.2,0V75.85A1.11,1.11,0,0,0,66.6,74.75Z" fill="#05386b"/><path d="M47.8,34.45a1.517,1.517,0,0,0-1.9.8L31.3,71.75,27,64.45a3.362,3.362,0,0,0-5.8,3.4l7.7,13.2.1.1a3.293,3.293,0,0,0,6-.7l13.6-44.3A1.337,1.337,0,0,0,47.8,34.45Z" fill="#1a1a1a"/><path d="M47.8,82.95a1.517,1.517,0,0,0-1.9.8l-14.6,36.5-4.3-7.3a3.362,3.362,0,0,0-5.8,3.4l7.7,13.2.1.1a3.293,3.293,0,0,0,6-.7l13.6-44.3A1.424,1.424,0,0,0,47.8,82.95Z" fill="#1a1a1a"/><path d="M47.8,134.55a1.517,1.517,0,0,0-1.9.8l-14.6,36.5-4.3-7.3a3.362,3.362,0,0,0-5.8,3.4l7.7,13.2.1.1a3.293,3.293,0,0,0,6-.7l13.6-44.3A1.38,1.38,0,0,0,47.8,134.55Z" fill="#1a1a1a"/></g></g>
            </g>
        </g>
    </g>
    
    <!-- ITEM 2 -->
    <g>
        <defs>
            <clipPath id="clip-path-id-viewbox-item-2">
                <rect x="0.0" y="0.0" width="206.144" height="105.0"/>
            </clipPath>
        </defs>
        <g transform="translate(443.0 254.0) rotate(335.25908174762395 53.0 27.0) scale(0.5142036634585533 0.5142857142857142)">
            <g clip-path="url(#clip-path-id-viewbox-item-2)" transform="translate(-0.0 -0.0)">
                <title>parallelogram_1</title><g id="Layer_2-i2" data-name="Layer 2"><g id="parallelogram_1-i2"><polygon points="203.822 1.5 48.322 1.5 2.322 103.5 157.822 103.5 203.822 1.5" fill="#5cdb95" stroke="#1a1a1a" stroke-miterlimit="10" stroke-width="3"/></g></g>
            </g>
        </g>
    </g>
    
    <!-- ITEM 3 -->
    <g>
        <defs>
            <clipPath id="clip-path-id-viewbox-item-3">
                <rect x="0.0" y="0.0" width="206.144" height="105.0"/>
            </clipPath>
        </defs>
        <g transform="translate(581.0 372.0) rotate(335.1357344703231 -52.5 -27.0) scale(-0.5093526855013971 -0.5142857142857142)">
            <g clip-path="url(#clip-path-id-viewbox-item-3)" transform="translate(-0.0 -0.0)">
                <title>parallelogram_1</title><g id="Layer_2-i3" data-name="Layer 2"><g id="parallelogram_1-i3"><polygon points="203.822 1.5 48.322 1.5 2.322 103.5 157.822 103.5 203.822 1.5" fill="#5cdb95" stroke="#1a1a1a" stroke-miterlimit="10" stroke-width="3"/></g></g>
            </g>
        </g>
    </g>
    
    <!-- ITEM 4 -->
    <g>
        <defs>
            <clipPath id="clip-path-id-viewbox-item-4">
                <rect x="0.0" y="0.0" width="33.2" height="25.5"/>
            </clipPath>
        </defs>
        <g transform="translate(477.0 424.0) rotate(0.0 28.5 22.5) scale(1.7168674698795179 1.7647058823529411)">
            <g clip-path="url(#clip-path-id-viewbox-item-4)" transform="translate(-0.0 -0.0)">
                

<path d="M9.2,24.9l-8.6-8.6c-0.8-0.8-0.8-2,0-2.8l0,0c0.8-0.8,2-0.8,2.8,0l7.1,7.1l19.2-20c0.8-0.8,2-0.8,2.8-0.1l0,0  c0.8,0.8,0.8,2,0.1,2.8L12,24.9C11.3,25.7,10,25.7,9.2,24.9z" style="fill:#edf5e1;"/>

            </g>
        </g>
    </g>
    
    <!-- ITEM 5 -->
    <g>
        <defs>
            <clipPath id="clip-path-id-viewbox-item-5">
                <rect x="0.0" y="0.0" width="338.442" height="476.945"/>
            </clipPath>
        </defs>
        <g transform="translate(199.0 306.0) rotate(0.0 142.5 200.5) scale(0.8420940663392841 0.8407678034154882)">
            <g clip-path="url(#clip-path-id-viewbox-item-5)" transform="translate(-0.0 -0.0)">
                <title>robot_doctor</title><g id="Layer_2-i5" data-name="Layer 2"><g id="robot_doctor-i5"><path d="M239.492,288.329s42.541,35.02,42.424,35.02,15.63,14.22,20.33,22.329,8.579,13.514,9.167,22.563.235,13.4-2.116,14.337-28.439,6.816-28.674,3.408c-.235-3.525,6.464-5.758,6.464-5.758s-3.643,0-2.821-1.88a4.833,4.833,0,0,1,2.821-2.468l.822-7.991-2.233-11.282-22.093-12.34-9.871-5.288-5.994-3.29-5.288-30.437Z" fill="#05386b"/><path d="M311.178,358.722a.432.432,0,0,0-.118-.353c-.235-.47-6.346-12.339-11.516-19.39a55.433,55.433,0,0,0-6.111-6.7c0-.117.117-.117.117-.235.235-.47.353-1.057.588-1.645a5.386,5.386,0,0,0,.117-2,3.266,3.266,0,0,0-.587-1.41,3.212,3.212,0,0,0-1.411-1.058,3,3,0,0,0-1.41-.117c-.47,0-.822.117-1.057.117a7.867,7.867,0,0,0-2,.823c-.47-.47-.94-.823-1.411-1.293v-.117a6.74,6.74,0,0,0,.588-1.645,4.141,4.141,0,0,0,.118-2.116,2.762,2.762,0,0,0-.588-1.527A3.09,3.09,0,0,0,284.854,319a3.331,3.331,0,0,0-1.528,0,4.15,4.15,0,0,0-1.175.235c-.7.235-1.41.588-2,.823-.47-.353-.823-.705-1.293-1.058.118-.353.353-.823.47-1.293a6.162,6.162,0,0,0,.235-2.233,2.8,2.8,0,0,0-.7-1.645l-.352-.352c-.118-.118-.353-.236-.47-.353a7.877,7.877,0,0,1-.94-.353,6.652,6.652,0,0,0-1.528,0h-.353l-.235.118c-.117,0-.352.117-.47.117-.587.235-1.057.471-1.527.706-14.808-12.692-30.2-24.679-31.26-25.619a1.34,1.34,0,1,0-1.645,2.115c.235.235,15.629,12.339,30.554,25.031-.822.588-1.528,1.175-2.233,1.763a64.006,64.006,0,0,0-4.935,4.818,61.129,61.129,0,0,0-4.231,5.406c-1.293,1.88-2.585,3.761-3.761,5.758a42.166,42.166,0,0,0-2,4l-5.524-3.173a1.29,1.29,0,0,0-1.293,2.233l5.759,3.29a16.591,16.591,0,0,0-.823,3.643,7.027,7.027,0,0,0,.235,2.586,1.909,1.909,0,0,0,.47.823c.118.117.235.352.353.47s.352.235.47.352a1.9,1.9,0,0,0,1.058.353H255a4.939,4.939,0,0,0,2.233-.823,16.92,16.92,0,0,0,1.528-1.058c.705-.587,1.292-1.175,1.88-1.762h0c0,.117,0,.117-.117.235a16.521,16.521,0,0,0-.823,3.643v1.175a3.541,3.541,0,0,0,.352,1.41,3.452,3.452,0,0,0,1.411,1.528,8.138,8.138,0,0,1,.94.352h.822a4.98,4.98,0,0,0,2.233-.7,17.127,17.127,0,0,0,1.528-1.057c.705-.588,1.41-1.176,2-1.763l.235.117c0,.118-.118.235-.118.353a10.547,10.547,0,0,0-.587,3.525,3.269,3.269,0,0,0,.117,1.058,4.893,4.893,0,0,0,.47,1.41,2.756,2.756,0,0,0,1.293,1.293,2.985,2.985,0,0,0,1.645.353,5.03,5.03,0,0,0,2.116-.588,6.687,6.687,0,0,0,1.527-.94,14.3,14.3,0,0,0,2-1.763l6.464,3.643,2,10.459c-.117.94-.117,2.115-.235,3.408h0a.906.906,0,0,0-.352.118c-2.938.705-3.878,1.175-4.231,1.88a1.373,1.373,0,0,0,0,1.175c.118.353.353.823,2.115,1.41a3.763,3.763,0,0,0-2,1.763,2.1,2.1,0,0,0,.117,1.88,3.065,3.065,0,0,0,2.351,1.293c-4.349,1.763-5.406,2.938-5.289,4.113a2.037,2.037,0,0,0,1.528,1.88,20.67,20.67,0,0,0,6.463.706c8.344,0,21.271-2.116,24.914-5.406C315.291,379.17,312.235,363.54,311.178,358.722Zm-19.978-29.5a.115.115,0,0,0,.117.118c-.117,0-.117,0-.117-.118C291.082,329.108,291.2,329.108,291.2,329.225Zm-.235.47a.432.432,0,0,1,.352-.117v.705l-.47-.47A.116.116,0,0,1,290.965,329.7Zm-20.213,17.158-4.466-2.586c.588-1.057,1.175-2.233,1.88-3.29,1.058-1.763,2.233-3.408,3.408-5.053a87.8,87.8,0,0,1,7.874-9.4c.705-.7,1.293-1.293,2-1.88,1.41,1.175,2.7,2.468,3.995,3.643a13.239,13.239,0,0,0-1.527,1.175,31.361,31.361,0,0,0-4.466,4.348,49.77,49.77,0,0,0-3.878,4.818,40.189,40.189,0,0,0-3.291,5.289A13.948,13.948,0,0,0,270.752,346.853Zm13.162-24.562a.115.115,0,0,0,.117.118l-.117-.118Zm-.118.588a.434.434,0,0,1,.353-.117v.7l-.47-.47A.115.115,0,0,1,283.8,322.879Zm-7.4-6.816a.362.362,0,0,0,.118.235v-.117C276.275,316.063,276.392,316.063,276.392,316.063Zm.118.588Zm-16.452,19.038c1.175-1.763,2.35-3.526,3.643-5.289,2.585-3.408,5.288-6.816,8.108-9.871.7-.7,1.528-1.528,2.233-2.116l.235-.235c1.293,1.058,2.586,2.233,3.761,3.291a18.44,18.44,0,0,0-1.763,1.41,45.416,45.416,0,0,0-4.818,4.7c-1.41,1.645-2.821,3.408-4.113,5.171a54.764,54.764,0,0,0-3.526,5.523c-.587,1.175-1.175,2.233-1.763,3.525l-4.23-2.467C258.53,338.274,259.235,336.981,260.058,335.689Zm-4.936,8.343Zm2.115-.7a6.33,6.33,0,0,1-1.293.588h0a8.232,8.232,0,0,1,.705-2l1.528.823A6.532,6.532,0,0,1,257.237,343.327Zm6.464,5.524Zm2-.588a8.136,8.136,0,0,1-1.175.47h-.117v-.117a11,11,0,0,1,.7-2.116l1.763.94A5.443,5.443,0,0,1,265.7,348.263Zm6.816,5.406h0Zm2-.588c-.352.118-.822.353-1.175.47H273.1v-.117c.117-.47.353-1.175.588-1.88l1.88,1.057A4.655,4.655,0,0,0,274.512,353.081ZM286.5,378.818a7.383,7.383,0,0,1-1.88-.235,9.1,9.1,0,0,1,1.645-.588A2.969,2.969,0,0,1,286.5,378.818Zm23.386,1.762c-1.88,1.763-7.874,3.408-15.16,4.231-6.111.705-10.694.588-12.692.117a42.809,42.809,0,0,1,6.7-2.82,5.458,5.458,0,0,0,2.468.588,3.984,3.984,0,0,0,1.175-.118,4.887,4.887,0,0,0,3.408-2.585c4.466-1.293,8.344-2.233,8.344-2.233a1.575,1.575,0,0,0,.94-.823,1.393,1.393,0,0,0-.118-1.175l-6.7-10.459h0a.116.116,0,0,0-.118-.118c-.117,0,0,0-.117-.117l-.118-.118a.115.115,0,0,1-.117-.117H296.37l-.117.117a.116.116,0,0,0-.118.118l-.117.117a.116.116,0,0,1-.118.118v.587c-.117,2.116-.47,4.819-.822,7.286h0a30.27,30.27,0,0,1-1.058,4.936.434.434,0,0,0-.117.353,2.682,2.682,0,0,1-1.881,1.527,3,3,0,0,1-2.115-.47c-.823-.7-1.058-6.111-.47-11.516v-.353l-2.115-11.282h0v-.352a.116.116,0,0,0-.118-.118c-.118,0,0,0-.118-.117a.115.115,0,0,0-.117-.118l-.118-.117a.115.115,0,0,1-.117-.117h0L275.1,348.851c.47-.941,1.057-1.881,1.645-2.938,1.058-1.646,2.115-3.173,3.173-4.7a65.752,65.752,0,0,1,7.4-8.7c.588-.471,1.176-1.058,1.763-1.528a81.576,81.576,0,0,1,8.814,9.4c4.7,6.464,10.459,17.51,11.164,18.921C311.06,370.944,311.178,379.405,309.885,380.58Zm-11.047-9.166-1.175.353c.118-.588.118-1.176.235-1.763Zm-1.527,3.173,3.173-.823,1.292,2c-1.175.353-2.938.7-4.818,1.293A9.616,9.616,0,0,1,297.311,374.587Z" fill="#1a1a1a"/><path d="M39.947,365.421s-12.457,30.907,4.7,63.929,52.3,42.659,69.453,45.245,59.582.352,92.252-36.2,33.14-87.551,33.14-87.551-1.058-55.586-4.231-74.271-18.1-63.695-36.078-83.438S164.4,160.117,140.659,166.11L64.743,320.764Z" fill="#05386b"/><path d="M145.713,164.112s51.472-2.7,72.861,87.316l5.17-16.687s-13.514-42.189-44.3-60.757C159.11,161.762,145.713,164.112,145.713,164.112Z" fill="#edf5e1"/><path d="M206.352,438.282c32.67-36.548,33.14-87.551,33.14-87.551s-1.058-55.586-4.231-74.272a181.7,181.7,0,0,0-4.583-18.567l-10.342-.118s17.981,56.879-14.572,144.43C183.671,461.55,114.1,474.477,114.1,474.477,131.14,477.18,173.682,474.947,206.352,438.282Z" fill="#edf5e1"/><path d="M141.247,166.58c-9.989,0-14.925,2.116-24.209,11.987-9.4,9.989-21.623,48.418-21.623,48.418s-22.681,45.949-38.428,64.047c-17.158,19.743-53,55.351-53,55.351L36.068,361.9s25.619,19.391,51.121,34.785c25.619,15.395,44.3,16.805,44.3,16.805s22.328-17.157,37.488-38.193c15.042-21.036,21.153-38.311,24.561-47.125,0,0,5.641-62.4,2.468-89.783s-16.57-61.932-38.781-68.748C157.112,169.636,145.36,166.58,141.247,166.58Z" fill="#edf5e1"/><path d="M81.313,291.149c.235,2.586.587,5.171-.47,7.521-1.058,2.233-4.348,3.761-6.229,2.116a8.711,8.711,0,0,1-1.41-1.528c-4.7-7.169-13.4-1.058-16.335,8.579-1.528,5.406-1.175,11.046-4.466,15.512-2.82,3.643-7.756,4.936-12.339,5.288-14.807,1.176-20.095,4.466-24.209,6.464,4.584-3.408,13.28-12.574,17.04-16.805,13.75-15.63,25.619-27.264,37.371-44.422,2.938-4.231,11.047-19.273,14.455-22.8C80.373,261.887,80.255,279.4,81.313,291.149Z" fill="#05386b"/><path d="M175.562,181.858c-10.341-11.635-21.388-15.16-27.146-16.218-1.528-.352-9.872-1.528-19.861,3.056q-15.336,7.05-22.916,25.736c-3.408,8.461-5.758,15.277-7.991,21.976-5.053,15.16-9.519,28.2-24.561,50.768C47.82,305.6,5.4,342.857,3.516,344.62a8.5,8.5,0,0,0-3.291,4.818c-.7,3.173.236,6.816,2.938,10.812,4.231,6.228,10.93,12.692,19.978,19.273a122.435,122.435,0,0,0,12.34,7.873,1.054,1.054,0,0,0,.587.118,1.335,1.335,0,0,0,.706-2.468,12.133,12.133,0,0,1-1.176-.7c.118-2.585,1.881-9.636,2.116-10.577.47-1.88,1.88-4.818,2.115-7.051a394.583,394.583,0,0,0,40.779,27.735c15.63,9.166,37.135,20.213,50.885,20.33h0a2.172,2.172,0,0,0,.823-.235,204.506,204.506,0,0,0,25.736-24.091c12.574-13.867,29.144-35.843,36.666-61.932a1.34,1.34,0,0,0-2.586-.7c-7.4,25.619-23.738,47.242-36.078,60.874a211.755,211.755,0,0,1-25.031,23.5c-23.386-.7-75.212-34.786-95.542-52.3C21.966,348.145,12.33,345.207,7.512,344.5c9.519-8.578,45.361-41.836,67.807-75.916,15.395-22.8,19.743-35.961,24.914-51.356,2.233-6.581,4.466-13.514,7.874-21.858,4.818-11.752,12.1-19.978,21.623-24.326,7.169-3.291,14.337-3.643,18.333-2.82,5.406,1.057,15.865,4.348,25.619,15.394,12.457,14.1,19.86,36.078,21.976,65.34a1.3,1.3,0,0,0,2.585-.235C196.128,218.876,188.489,196.43,175.562,181.858Z" fill="#1a1a1a"/><path d="M149,333.1h0c-3.643-2.585-7.4-5.171-11.282-7.521-1.88-1.175-3.76-2.35-5.758-3.526l-5.758-3.408c-3.878-2.233-7.757-4.465-11.635-6.581s-7.638-4.113-11.4-6.111c-10.224,14.1-20.565,28.322-30.672,42.659h0a1.293,1.293,0,0,0,.353,1.763l45.949,28.91a1.3,1.3,0,0,0,1.763-.353l28.557-43.952A1.216,1.216,0,0,0,149,333.1Zm-29.732,43.364-43.6-27.5c6.228-8.814,12.457-17.628,18.568-26.559l38.546,24.326a1.663,1.663,0,0,0,.705.235,1.234,1.234,0,0,0,1.057-.587,1.294,1.294,0,0,0-.352-1.763L95.768,320.294c2.7-3.878,5.405-7.756,8.108-11.752,3.761,2.585,7.286,5.053,10.929,7.4s7.169,4.7,10.695,6.933l5.405,3.291c1.763,1.057,3.643,2.115,5.406,3.173,3.291,1.88,6.581,3.643,9.989,5.4Z" fill="#1a1a1a"/><path d="M159.11,164.935s35.49,0,66.162,64.752l-3.76,2.351s-3.643-10.812-15.983-29.967S174.034,166.228,159.11,164.935Z" fill="#1a1a1a"/><path d="M239.962,278.34a1.592,1.592,0,0,0-1.058-1.058,1.266,1.266,0,0,0-1.292.705l-3.408,6.464a1.989,1.989,0,0,0-.118.822c0,.235,4.583,26.794,4.7,52.413.117,25.5-8.814,54.646-8.932,55a1.35,1.35,0,0,0,.47,1.41c5.406,4,17.276,6.463,17.863,6.581h.235a2.19,2.19,0,0,0,.823-.235,1.07,1.07,0,0,0,.47-.94C255.239,342.975,240.079,278.927,239.962,278.34Z" fill="#1a1a1a"/><path d="M179.675,44.949c-6.111-1.292-26.441-2.468-37.488,24.091s-8.579,53.471,9.519,65.81c18.1,12.222,37.371,4.819,45.832-15.629l9.166-44.54S207.409,50.943,179.675,44.949Z" fill="#05386b"/><path d="M179.675,44.949c-6.111-1.292-26.441-2.468-37.488,24.091s-8.579,53.471,9.519,65.81a37.378,37.378,0,0,0,7.4,3.879,42.781,42.781,0,0,1-13.632-22.211c-3.643-14.573.352-47.83,17.157-60.287,21.976-16.217,41.014,5.758,41.014,5.758h0C200.358,55.291,193.542,47.887,179.675,44.949Z" fill="#edf5e1"/><path d="M192.015,76.562a19.837,19.837,0,0,0-4.584,5.288,40.759,40.759,0,0,0-5.993,19.038c-.235,4.23.235,8.7,2.468,12.339s6.581,6.111,10.694,5.171a13.5,13.5,0,0,0,5.641-3.173,28.119,28.119,0,0,0,9.049-12.692,51.418,51.418,0,0,0,1.293-6.111,35.112,35.112,0,0,0,.705-7.874c-.353-4.348-2.468-9.636-5.994-12.456C201.651,73.389,195.54,73.976,192.015,76.562Z" fill="#edf5e1"/><ellipse cx="197.443" cy="96.402" rx="13.867" ry="8.814" transform="translate(51.72 260.846) rotate(-74.478)" fill="#1a1a1a"/><circle cx="192.602" cy="92.191" r="5.171" fill="#edf5e1"/><path d="M207.88,76.209a1.5,1.5,0,0,0,.117-.7c-.705-10.577-5.053-24.326-21.623-30.085.94-19.743-7.874-32.317-10.342-35.49a5.887,5.887,0,0,0,1.058-2.82,6.283,6.283,0,1,0-11.164,3.055,5.943,5.943,0,0,0,4.113,2.35h.822a5.9,5.9,0,0,0,3.173-.94c2.351,3.173,10.224,14.925,9.637,32.905a38.286,38.286,0,0,0-16.57-.352,32.3,32.3,0,0,0-20.683,13.632c-4.113,5.876-7.4,14.219-9.519,22.8a1.2,1.2,0,0,0-.235,1.058q-.882,4.055-1.41,8.109c-1.176,10.224-1.058,24.8,7.051,36.665,5.64,8.344,13.162,13.4,21.623,14.925a25.259,25.259,0,0,0,5.053.47,32.19,32.19,0,0,0,18.215-5.641c7.287-5.406,11.635-14.925,13.162-18.685h0c4.819-3.291,9.049-9.4,11.047-16.923C214.226,90.9,212.58,81.262,207.88,76.209Zm-2.586-2.115a25.035,25.035,0,0,0-2.585-1.175c-4.231-1.176-8.814.235-13.045,4a31.9,31.9,0,0,0-8.814,15.16c-.352,1.41-.7,2.82-.94,4.231a66.894,66.894,0,0,1-14.454-1.411c5.758-35.373,20.683-45.362,22.328-46.3C198.126,53.176,204,61.637,205.294,74.094ZM148.768,59.4c10.342-15.16,28.087-13.985,35.02-12.1a2.6,2.6,0,0,1-.117.94c-5.288,4.465-16.1,16.805-20.918,46.067-13.985-3.761-21.506-11.4-23.034-13.28A68.09,68.09,0,0,1,148.768,59.4Zm-4.231,65.81c-7.638-11.282-8.343-26.794-5.64-40.661,3.29,3.29,10.811,9.519,23.386,12.692v.235c-3.643,25.619,2.7,37.605,5.993,41.836a19.462,19.462,0,0,1-3.761-.352C156.524,137.671,149.826,132.97,144.537,125.214Zm41.132,9.049a29.06,29.06,0,0,1-13.632,5.053l-.118-.117c-.117-.118-11.4-9.637-6.816-41.249h0a71.257,71.257,0,0,0,13.985,1.41h.47c-.7,10.107,3.173,18.685,9.989,20.683a11.589,11.589,0,0,0,2.82.353,10.834,10.834,0,0,0,4.231-.823C194.835,123.686,191.075,130.267,185.669,134.263ZM208.82,99.948c-3.173,11.4-11.4,19.155-18.333,17.275-5.876-1.645-9.049-9.637-7.874-19.038h0a25.775,25.775,0,0,1,1.058-5.053,29.878,29.878,0,0,1,7.991-13.867c2.7-2.468,5.523-3.761,8.226-3.761a6.632,6.632,0,0,1,2.116.353C208.82,77.619,211.875,88.548,208.82,99.948Z" fill="#1a1a1a"/><path d="M169.921,191.729c-12.1-19.39-31.259-17.51-40.543-13.162-5.524,2.586-27.735,16.335-17.511,56.761,9.4,36.9,24.914,74.154,40.9,86.493l34.432-66.28C186.256,228.512,179.793,207.477,169.921,191.729Z" fill="#05386b"/><path d="M114.805,246.375s-3.173-33.61,3.173-46.89c7.169-15.159,24.209-20.8,41.719-9.871,10.812,6.816,20.213,27.852,27.147,59.229,0,0-3.408-40.309-16.923-57.114s-30.319-19.86-44.656-10.694-17.746,25.736-15.043,45.362C112.69,246.022,114.805,246.375,114.805,246.375Z" fill="#edf5e1"/><path d="M171.1,191.024c-5.523-8.814-13.162-14.337-22.21-16.1a33.713,33.713,0,0,0-19.861,2.468h0c-4.936,2.35-28.909,16.1-18.215,58.289a323.868,323.868,0,0,0,17.98,52.648c7.639,16.687,15.63,28.557,23.386,34.433A1.7,1.7,0,0,0,153,323a1.277,1.277,0,0,0,1.057-.47,1.325,1.325,0,0,0-.235-1.881c-7.286-5.641-15.159-17.157-22.563-33.492a235.068,235.068,0,0,1-10.107-25.972A68.788,68.788,0,0,1,145.125,240.5c4.583,14.22,9.4,27.264,14.337,38.9a1.413,1.413,0,0,0,1.175.823.707.707,0,0,0,.47-.117,1.342,1.342,0,0,0,.706-1.763c-4.936-11.634-9.754-24.8-14.338-39.016a60.19,60.19,0,0,1,14.573-4.818,76.038,76.038,0,0,1,21.858-1.411,187.057,187.057,0,0,1,2.233,22.211,1.3,1.3,0,0,0,1.292,1.293h0a1.334,1.334,0,0,0,1.293-1.41C187.667,229.922,181.791,208.3,171.1,191.024Zm-51.237,67.22c-2.468-7.4-4.7-15.277-6.7-23.268-9.4-36.783,8.7-50.768,15.4-54.411.47,2.233,1.528,6.7,2.938,12.809a16.989,16.989,0,0,0,.705,31.26h0a17.8,17.8,0,0,0,6.229,1.175,8.925,8.925,0,0,0,1.762-.117c1.293,4.23,2.468,8.344,3.761,12.339A74.632,74.632,0,0,0,119.859,258.244Zm33.022-49.357a14.319,14.319,0,0,1-14.337,14.337,13.52,13.52,0,0,1-3.878-.47l11.4-26.089A14.215,14.215,0,0,1,152.881,208.887ZM132.2,221.7a14.466,14.466,0,0,1-7.991-12.809,14.319,14.319,0,0,1,14.337-14.337,15.468,15.468,0,0,1,5.171.94Zm29.144,10.342a71.209,71.209,0,0,0-14.924,4.936c-1.175-3.761-2.468-7.757-3.643-11.752a17.014,17.014,0,0,0,3.173-31.73h-.118a17.172,17.172,0,0,0-7.4-1.763,18.575,18.575,0,0,0-4.465.588c-1.528-6.464-2.586-11.164-3.056-13.045a31.212,31.212,0,0,1,17.393-1.88c8.344,1.528,15.277,6.581,20.448,14.925a109.2,109.2,0,0,1,14.337,38.075A81.821,81.821,0,0,0,161.342,232.038Z" fill="#1a1a1a"/><path d="M237.964,366.361a283.051,283.051,0,0,0,1.058-61.7v-.235c-.588-6.816-1.41-13.632-2.468-20.331-4.818-30.907-14.337-58.876-25.854-76.739-11.987-18.568-25.5-32.082-38.9-39.016-15.278-7.991-30.085-7.639-44.187.94a1.29,1.29,0,1,0,1.293,2.233c13.162-7.991,27.146-8.344,41.6-.823,12.339,6.464,24.8,18.686,36.2,35.373a85.831,85.831,0,0,0-16.1-1.41c-.94-1.528-1.88-3.055-2.938-4.583a1.352,1.352,0,1,0-2.232,1.528c17.98,27.146,36.783,74.153,24.678,144.312-.235,1.175-.47,2.467-.7,3.643a152.955,152.955,0,0,0-21.976-6.111,1.314,1.314,0,0,0-.47,2.585,157.206,157.206,0,0,1,21.976,6.111c-4.466,23.033-11.282,43.247-20.448,60.4A210.13,210.13,0,0,0,149.121,396.8a1.3,1.3,0,1,0-.823,2.468,211.935,211.935,0,0,1,38.781,15.512c-.353.7-.705,1.293-1.058,2-8.814,15.63-19.625,28.439-32.082,38.076-17.628,13.749-33.728,17.392-38.664,18.215,3.056-36.313,8.579-60.287,8.579-60.522a1.268,1.268,0,0,0-2.468-.587c0,.235-5.523,24.326-8.7,60.756-13.279-5.288-23.974-13.044-31.73-23.033A71.466,71.466,0,0,1,67.681,420.3a97.035,97.035,0,0,1-1.293-29.967c2.233-.117,4.466-.235,6.934-.235a1.333,1.333,0,0,0,1.292-1.41,1.3,1.3,0,0,0-1.292-1.293h0c-2.233,0-4.466.118-6.464.236.353-2.116.588-3.291.588-3.409a1.314,1.314,0,0,0-2.586-.47c0,.118-.352,1.646-.7,4.114a206.772,206.772,0,0,0-27.029,3.29c.235-14.69,3.878-25.266,4-25.384a1.3,1.3,0,0,0-2.468-.822c-.353,1.057-9.049,25.383-.353,52.883,5.053,16.1,16.1,30.789,31.26,41.366a101.021,101.021,0,0,0,43.952,16.805h.7c3.878.47,7.874.823,11.869.94H128.2c21.976,0,45.245-8.461,64.165-23.386,22.094-17.51,36.9-42.424,42.894-71.8.94-4.7,1.763-9.4,2.468-14.22C237.964,366.948,238.082,366.713,237.964,366.361Zm-25.149-20.213c11.282-65.105-4-110.7-20.565-139.024,9.4.235,15.042,1.528,16.57,2,11.281,17.51,20.448,45.009,25.266,75.329.94,5.758,1.645,11.517,2.233,17.275a37.2,37.2,0,0,0-10.459-4.7,1.3,1.3,0,0,0-.823,2.468c7.169,2.233,10.577,4.818,11.517,5.758a277.948,277.948,0,0,1-.823,58.642c-6.7-5.876-15.277-10.224-23.621-13.515A28.991,28.991,0,0,1,212.815,346.148ZM71.089,456.849c-14.69-10.224-25.384-24.443-30.2-39.956a79.986,79.986,0,0,1-3.643-23.033,217.633,217.633,0,0,1,26.794-3.291,99.3,99.3,0,0,0,1.41,30.2A76.22,76.22,0,0,0,79.08,451.326a72.868,72.868,0,0,0,24.091,19.861A99.038,99.038,0,0,1,71.089,456.849Zm119.75-5.523c-18.332,14.572-41.013,22.8-62.519,22.8h-2.115c-1.058,0-2.116-.118-3.173-.118a97.889,97.889,0,0,0,32.552-16.922c12.81-9.872,23.739-23.034,32.788-38.9.352-.7.822-1.41,1.175-2.115a190.021,190.021,0,0,1,21.858,13.749A110.218,110.218,0,0,1,190.839,451.326Zm22.329-23.621a214.562,214.562,0,0,0-22.211-13.985c9.166-17.275,15.982-37.605,20.566-60.756,8.578,3.29,17.275,7.991,23.738,13.984-.7,4.7-1.41,9.4-2.35,13.985A125.607,125.607,0,0,1,213.168,427.705Z" fill="#1a1a1a"/><path d="M327.513,189.849c-1.881-.47-3.761-1.058-5.759-1.528l.588-1.41c9.754-8.344,16.217-20.448,14.572-21.858-1.763-1.528-13.4,12.456-27.381,19.978-4.466,2.35-22.8,9.636-39.486,18.45A756.357,756.357,0,0,0,202,245.2c-18.333,12.927-41.484,30.084-49.828,47.83a33.274,33.274,0,0,0-1.528,24.326c2.468,7.051,11.987,19.39,33.963,14.219,24.561-5.758,50.65-48.417,62.52-65.34s28.086-32.9,42.776-45.361c11.634-9.989,19.978-12.1,22.8-12.575a4.718,4.718,0,0,1-.353,1.763,12.052,12.052,0,0,1-1.88,3.408,25.358,25.358,0,0,0-1.176,2.585,2.3,2.3,0,0,0,0,1.763,1.275,1.275,0,0,0,1.411.588,5.924,5.924,0,0,0,1.527-.588,25.289,25.289,0,0,0,7.4-6.7,29.239,29.239,0,0,1,.823,3.055,2.5,2.5,0,0,0,.822,1.41,1.8,1.8,0,0,0,2.233-.235,5.868,5.868,0,0,0,1.293-2l1.058-2.468c.117-.117.117-.352.352-.47.118-.117.47,0,.7,0a3.555,3.555,0,0,0,3.173-1.057,8.7,8.7,0,0,0,1.763-3.056,38.018,38.018,0,0,0,1.88-6.228c.47-2.35.823-5.053-.587-7.051C331.978,191.142,329.628,190.436,327.513,189.849Z" fill="#05386b"/><path d="M152.764,321.821s-4.584-19.39,13.514-37.958,39.486-35.02,77.327-58.524c37.958-23.386,61.932-28.086,63.225-39.016,0,0-15.983,8.462-17.276,8.344-1.41,0-31.847,15.042-49.827,26.207s-54.646,36.9-54.646,36.9S159.932,276.342,155,288.329C149.826,300.433,147.005,305.251,152.764,321.821Z" fill="#edf5e1"/><circle cx="172.977" cy="304.664" r="12.574" fill="#05386b"/><path d="M323.752,187.381a63.064,63.064,0,0,0,10.342-11.869c2.7-4.113,4.348-7.757,4.348-9.637a2.074,2.074,0,0,0-.7-1.763c-1.645-1.41-3.878.47-9.284,5.171-5.053,4.466-11.987,10.459-19.626,14.572-1.527.823-4.818,2.233-8.931,4-4,1.763-9.049,4-14.572,6.463,0-.117-.118-.235-.235-.352A12.551,12.551,0,0,0,283.8,192.9a4.09,4.09,0,0,0-1.763-.822,2.809,2.809,0,0,0-1.41,0,3.432,3.432,0,0,0-1.41.822,3.125,3.125,0,0,0-.705,1.175q-.177.529-.353,1.058a9.559,9.559,0,0,0,0,2.586,10.831,10.831,0,0,0-1.645.822c0-.117-.118-.235-.235-.352a12.932,12.932,0,0,0-1.293-1.176,5.61,5.61,0,0,0-1.88-.94,3.359,3.359,0,0,0-1.528,0,2.8,2.8,0,0,0-1.528,1.058c-.352.47-.47.94-.7,1.293-.117.352-.117.822-.235,1.057a9.964,9.964,0,0,0,.118,2.7c-.47.235-.823.47-1.293.705a6.162,6.162,0,0,0-1.293-1.175,8.935,8.935,0,0,0-1.88-1.058,3.888,3.888,0,0,0-1.645,0,2.29,2.29,0,0,0-1.528,1.176,3.618,3.618,0,0,0-.587,1.41c0,.235-.118.352-.118.587v.588a17.287,17.287,0,0,0,.118,2.468c-17.511,9.754-41.954,24.679-59.464,37.018-7.169,5.053-14.22,10.224-20.8,15.512-.118,0-.118.118-.235.118-12.927,10.459-23.856,21.388-29.262,32.67-3.643,7.756-4.348,17.51-1.528,25.384a23.818,23.818,0,0,0,10.224,12.339,28.087,28.087,0,0,0,15.16,4,46.794,46.794,0,0,0,10.224-1.293c22.093-5.171,44.774-38.663,58.289-58.641,1.88-2.821,3.525-5.171,4.936-7.286,8.461-12.105,18.92-23.269,28.439-32.435a16.412,16.412,0,0,0,2.585,1.762c.353.118.706.353,1.058.471a4.4,4.4,0,0,0,1.41.235,3.442,3.442,0,0,0,2-.706,2.389,2.389,0,0,0,.7-.822,1.75,1.75,0,0,0,.353-.823,4.091,4.091,0,0,0,.117-2.35c-.117-.705-.235-1.293-.352-1.88-.235-.823-.588-1.646-.823-2.468h0a.921.921,0,0,0,.353.235,12.5,12.5,0,0,0,3.055,2c.118.117.353.117.47.235l.235.117.353.118c.117,0,.47.117.7.117h1.175c.118,0,.353-.117.47-.117a5.17,5.17,0,0,0,.823-.47,4.185,4.185,0,0,0,.94-1.411,5.336,5.336,0,0,0,.235-2.233,4.713,4.713,0,0,0-.353-1.762,23.456,23.456,0,0,0-1.175-3.056h.118c.235.235.587.47.822.7a9.511,9.511,0,0,0,3.056,1.763l1.058.353a2.833,2.833,0,0,0,1.41,0,3.649,3.649,0,0,0,1.527-.705,2.23,2.23,0,0,0,.823-1.293,3.464,3.464,0,0,0,.235-2.115,9.027,9.027,0,0,0-.235-1.763,19.768,19.768,0,0,0-.94-2.821,44.316,44.316,0,0,1,12.222-5.758c-4,6.934-2.7,7.991-2.115,8.461a3.435,3.435,0,0,0,2.232.94h.353c2.115-.235,4.466-2.467,7.639-6.933,0,2.7.587,3.76.94,4.113a2.112,2.112,0,0,0,1.762.823c1.176,0,2-1.058,2.586-1.763a17.689,17.689,0,0,0,1.88-3.408c.235.117.47.352.7.352a1.485,1.485,0,0,0,.705.118,2.453,2.453,0,0,0,1.763-.705c2.233-1.763,6.581-12.34,4.818-17.98C333.741,190.671,328.1,188.556,323.752,187.381Zm-41.131,8.109c.117,0,.235.117.352.117-.352.118-.587.353-.94.47v-.7h0A1.274,1.274,0,0,1,282.621,195.49Zm-.94-.118h0Zm-8.109,4.348c.118.118.353.118.47.235-.352.118-.7.353-1.058.47a1.061,1.061,0,0,0-.117-.587v-.353A1.265,1.265,0,0,1,273.572,199.72Zm-1.058-.235h0Zm-7.521,4.936c.118,0,.118.118.235.118a2.553,2.553,0,0,0-.587.352V204.3A.436.436,0,0,1,264.993,204.421Zm-.94-.235h0Zm-2.82,5.523a8.8,8.8,0,0,0,.587,1.881,40.941,40.941,0,0,0,2.586,6.228c.47,1.058,1.057,2.115,1.645,3.173-2.233,1.175-5.758,3.173-10.342,5.993a43.566,43.566,0,0,1-4.583-11.4C254.652,213.47,258.06,211.472,261.233,209.709ZM248.776,217a47.157,47.157,0,0,0,4.7,11.4c-5.876,3.76-13.28,8.814-21.624,15.277-2.233,1.763-4.583,3.643-7.051,5.758a74.177,74.177,0,0,1-6.7-13.279C228.093,229.335,238.787,222.754,248.776,217Zm-45.95,29.262c4-2.82,8.462-5.758,12.927-8.813a81.362,81.362,0,0,0,6.934,13.632,352.073,352.073,0,0,0-31.142,29.849,79.18,79.18,0,0,1-8.814-19.743C189.077,256.011,195.893,251.076,202.826,246.257Zm-50.885,70.629a32.355,32.355,0,0,1,1.528-23.386c4.936-10.459,14.925-20.684,27.029-30.555a80.451,80.451,0,0,0,6.816,15.982c.705,1.293,1.528,2.586,2.468,4-2.938,3.29-5.876,6.581-8.932,10.224-.117-.117-.352-.235-.47-.352a14.048,14.048,0,0,0-14.689.117h0a13.19,13.19,0,0,0-4.348,4.466,13.682,13.682,0,0,0-1.646,10.459,14.268,14.268,0,0,0,4.113,7.051c-2.232,3.173-4.465,6.346-6.7,9.636A19.332,19.332,0,0,1,151.941,316.886Zm16.218-22.446a11.5,11.5,0,0,1,4.818-1.058,10.883,10.883,0,0,1,5.876,1.645h0a10.883,10.883,0,0,1,5.053,6.934,10.688,10.688,0,0,1-1.41,8.461,10.522,10.522,0,0,1-1.763,2.233Zm10.576,19.86a9.491,9.491,0,0,1-3.173,1.293,10.688,10.688,0,0,1-8.461-1.41,10.88,10.88,0,0,1-5.053-6.934,10.684,10.684,0,0,1,1.41-8.461,10.368,10.368,0,0,1,2.585-2.938Zm5.641,15.983c-12.692,2.938-20.566,0-25.5-3.878,2.232-3.408,4.583-6.7,6.933-9.872a13.253,13.253,0,0,0,7.169,2,15.663,15.663,0,0,0,3.29-.353,13.3,13.3,0,0,0,8.579-6.228,13.687,13.687,0,0,0,1.645-10.459,12.794,12.794,0,0,0-3.76-6.581c2.82-3.291,5.641-6.581,8.344-9.637A69.8,69.8,0,0,0,215.166,307.6C205.529,318.648,194.835,327.815,184.376,330.283ZM241.137,272.7c-6.346,9.4-14.807,21.858-24.209,32.787a69.626,69.626,0,0,1-24.091-22.328,355.264,355.264,0,0,1,31.143-29.967,75.965,75.965,0,0,0,17.627,18.568C241.607,272.111,241.372,272.346,241.137,272.7Zm5.053-7.286c-.822,1.293-1.88,2.7-2.938,4.23a74.075,74.075,0,0,1-17.04-18.215c2.468-2.115,4.936-4,7.169-5.758a236.209,236.209,0,0,1,21.388-15.042A54.471,54.471,0,0,0,265.111,242.5,210.759,210.759,0,0,0,246.19,265.413Zm20.8-24.914a52.9,52.9,0,0,1-9.871-11.4c4.7-2.938,8.226-4.818,10.341-5.994.118.118.118.235.235.353a56.982,56.982,0,0,0,3.878,5.406,48.648,48.648,0,0,0,3.291,3.643C272.162,235.211,269.576,237.8,266.991,240.5Zm14.337-7.286h0c0-.118,0-.118.118-.118A.116.116,0,0,0,281.328,233.213Zm.118-.823h0a5.521,5.521,0,0,1-1.41-1.057,11.13,11.13,0,0,0,1.175-1.176c0,.236.117.588.117.823A3.1,3.1,0,0,1,281.446,232.39Zm-3.173-2.938a37.933,37.933,0,0,1-2.7-3.408c-1.175-1.645-2.35-3.408-3.408-5.17a97.826,97.826,0,0,1-5.876-10.93,21.087,21.087,0,0,1-.94-2.467c1.528-.823,3.055-1.646,4.466-2.351a7.572,7.572,0,0,0,.47,1.528,45.688,45.688,0,0,0,2.467,5.993q1.411,2.822,3.173,5.641a52.737,52.737,0,0,0,3.761,5.171c.7.94,1.528,1.763,2.35,2.7C280.741,227.22,279.565,228.277,278.273,229.452Zm10.694-2.232a.115.115,0,0,1,.117-.118A.115.115,0,0,1,288.967,227.22Zm.235-.823v.117a.115.115,0,0,1-.118-.117,18.046,18.046,0,0,1-1.88-1.528c.588-.47,1.175-1.057,1.763-1.528.117.588.117,1.176.235,1.763A4.763,4.763,0,0,1,289.2,226.4Zm-.118-6.581c-1.175,1.058-2.467,2.115-3.643,3.173a21.53,21.53,0,0,1-2-2.586c-1.176-1.527-2.233-3.29-3.291-4.935a81.254,81.254,0,0,1-5.523-10.459,14.282,14.282,0,0,0-.823-2c1.645-.823,3.291-1.645,4.818-2.468.118.47.235.823.353,1.293a48.512,48.512,0,0,0,2.233,5.758,46.324,46.324,0,0,0,2.938,5.288,47.1,47.1,0,0,0,3.525,4.936c.47.588,1.058,1.175,1.645,1.88C289.319,219.581,289.2,219.7,289.084,219.816Zm7.639.94v-.117h0C296.841,220.639,296.841,220.756,296.723,220.756Zm.235-.705v.352a.115.115,0,0,1-.117-.117,15.415,15.415,0,0,1-1.763-1.41l-.235-.235c.7-.47,1.41-1.058,2.115-1.528a8.861,8.861,0,0,1,.118,1.763A3.984,3.984,0,0,1,296.958,220.051Zm31.377-10.224h0a.525.525,0,0,1-.352-.47c2.115-5.053,3.76-11.4,2.938-13.985a5.478,5.478,0,0,0-2.938-2.938c-4.231-2.115-12.81-2.7-13.515-2.468a1.271,1.271,0,0,0,.588,2.468c2.585,0,12.574,1.175,13.4,3.643.352,1.175-.118,4.819-2,10.107a30.3,30.3,0,0,1-4,8.226,18.633,18.633,0,0,1,.236-5.523,1.737,1.737,0,0,0-.118-.823c1.528-2.35,2.468-4.466,1.88-6.463-.47-1.881-2.233-4.114-7.756-4.349a27.936,27.936,0,0,0-5.758.471,1.314,1.314,0,1,0,.47,2.585c2.468-.47,9.519-1.293,10.341,1.88.353,1.528-1.41,4.113-3.29,6.816-.353.47-.588.94-.94,1.41-3.526,5.171-5.171,6.111-5.994,6.111a.432.432,0,0,1-.352-.117c.117-1.175,1.88-4.466,3.878-7.756a.115.115,0,0,1,.117-.118l1.411-2.115a1.353,1.353,0,0,0-2.233-1.528c-.353.588-.823,1.175-1.175,1.763-2.233.352-9.637,1.763-20.213,9.871-.471-.587-1.058-1.292-1.528-1.88q-1.587-2.115-3.173-4.583a69.943,69.943,0,0,1-5.053-9.754q-.354-.882-.706-1.763c6.934-3.29,13.515-6.111,18.333-8.344,4.348-1.88,7.521-3.29,9.167-4.113,7.991-4.23,15.042-10.341,20.213-14.925a58.581,58.581,0,0,1,5.406-4.465c-.941,3.29-6.111,12.1-14.22,19.155-.235.118-.353.47-.47.7a10.108,10.108,0,0,1-1.528-.352,1.314,1.314,0,1,0-.47,2.585c8.461,1.645,12.809,4.466,13.28,5.876C333.741,199.25,329.746,208.652,328.335,209.827Z" fill="#1a1a1a"/></g></g>
            </g>
        </g>
    </g>
    
    <!-- ITEM 6 -->
    <g>
        <defs>
            <clipPath id="clip-path-id-viewbox-item-6">
                <rect x="-328.399" y="673.391" width="38.197" height="48.004"/>
            </clipPath>
        </defs>
        <g transform="translate(368.0 336.0) rotate(18.726428572518937 -22.5 28.5) scale(-1.1781029923816007 1.1874010499125074)">
            <g clip-path="url(#clip-path-id-viewbox-item-6)" transform="translate(328.399 -673.391)">
                
<circle fill="#1a1a1a" cx="-300.898" cy="712.899" r="8.496"/>
<g>
	<path fill="#1a1a1a" d="M-295.16,708.774l-2.832-0.991c0.5-1.428,1-2.754,1.479-4.026c1.491-3.958,2.779-7.375,3.215-11.726   c0.736-7.363-2.826-12.619-9.277-14.84c-10.562-3.636-19.726,4.89-19.726,4.89c-1.969,1.006-4.237,2.354-6.098,4.172   c2.96-9.614,15.724-15.168,26.672-11.941c7.919,2.334,12.292,9.237,11.414,18.017c-0.475,4.742-1.826,8.33-3.393,12.485   C-294.177,706.066-294.669,707.369-295.16,708.774z"/>
</g>
<circle fill="#322a1b" cx="-300.898" cy="712.899" r="5.64"/>

            </g>
        </g>
    </g>
    
    <!-- ITEM 7 -->
    <g>
        <defs>
            <clipPath id="clip-path-id-viewbox-item-7">
                <rect x="0.0" y="0.0" width="89.5" height="316.9"/>
            </clipPath>
        </defs>
        <g transform="translate(762.0 204.0) rotate(0.0 -54.5 191.0) scale(-1.217877094972067 1.205427579678132)">
            <g clip-path="url(#clip-path-id-viewbox-item-7)" transform="translate(-0.0 -0.0)">
                

<line x1="78" y1="454.1" x2="95" y2="465.1" style="fill:none;"/>
<g id="Layer_2_1_-i7">
	<g id="checklist-i7">
		<polygon points="89.5,316.9 89.5,0 0,52.9 0,287   " style="fill:#edf5e1;"/>
	</g>
</g>

            </g>
        </g>
    </g>
    
    <!-- ITEM 8 -->
    <g>
        <defs>
            <clipPath id="clip-path-id-viewbox-item-8">
                <rect x="0.0" y="0.0" width="177.12" height="177.11"/>
            </clipPath>
        </defs>
        <g transform="translate(669.0 526.0) rotate(0.0 19.0 19.0) scale(0.2145438121047877 0.21455592569589518)">
            <g clip-path="url(#clip-path-id-viewbox-item-8)" transform="translate(-0.0 -0.0)">
                <title>gear_1</title><g id="Layer_2-i8" data-name="Layer 2"><g id="gear_1-i8"><path d="M170.89,104.91a8.84,8.84,0,0,0,5.78-7.41,89.13,89.13,0,0,0,0-17.89,8.84,8.84,0,0,0-5.78-7.42c-8.4-3-15.89-6.21-17.64-10.42s1.17-12,4.92-20.08a8.83,8.83,0,0,0-1.2-9.31,89.12,89.12,0,0,0-12.25-12.24A8.83,8.83,0,0,0,135.41,19c-8.11,3.74-15.71,6.71-20.06,4.91-4.2-1.75-7.37-9.24-10.42-17.63A8.84,8.84,0,0,0,97.52.45,89.43,89.43,0,0,0,79.6.45a8.84,8.84,0,0,0-7.41,5.78c-3,8.39-6.22,15.88-10.42,17.63-4.35,1.8-12-1.17-20.06-4.91a8.85,8.85,0,0,0-9.32,1.19A89,89,0,0,0,20.15,32.38,8.83,8.83,0,0,0,19,41.69c3.74,8.11,6.72,15.72,4.91,20.08C22.11,66,14.63,69.14,6.23,72.18A8.84,8.84,0,0,0,.45,79.6a89.33,89.33,0,0,0,0,17.91,8.84,8.84,0,0,0,5.78,7.41c8.39,3,15.88,6.22,17.63,10.42s-1.17,12-4.91,20.07a8.81,8.81,0,0,0,1.2,9.31A88.57,88.57,0,0,0,32.39,157a8.85,8.85,0,0,0,9.32,1.19c8.11-3.74,15.71-6.71,20.06-4.91,4.2,1.75,7.37,9.24,10.42,17.63a8.84,8.84,0,0,0,7.41,5.78,89.43,89.43,0,0,0,17.92,0,8.84,8.84,0,0,0,7.41-5.78c3-8.39,6.22-15.88,10.42-17.63,4.35-1.8,12,1.17,20.06,4.91a8.85,8.85,0,0,0,9.32-1.19A88.57,88.57,0,0,0,157,144.72a8.81,8.81,0,0,0,1.2-9.31c-3.75-8.11-6.73-15.72-4.92-20.07S162.49,108,170.89,104.91ZM88.56,136.76a48.21,48.21,0,1,1,48.2-48.21A48.27,48.27,0,0,1,88.56,136.76Z" style="fill:#1a1a1a;"/></g></g>
            </g>
        </g>
    </g>
    
    <!-- ITEM 9 -->
    <g>
        <defs>
            <clipPath id="clip-path-id-viewbox-item-9">
                <rect x="0.0" y="0.0" width="118.5" height="39.7"/>
            </clipPath>
        </defs>
        <g transform="translate(710.0 524.0) rotate(312.51200554255615 25.5 8.5) scale(0.43037974683544306 0.4282115869017632)">
            <g clip-path="url(#clip-path-id-viewbox-item-9)" transform="translate(-0.0 -0.0)">
                <title>wrench_2</title><g id="Layer_2-i9" data-name="Layer 2"><g id="wrench_2-i9"><path d="M118.5,19.85a19.85,19.85,0,0,1-37.79,8.5H8.5a8.5,8.5,0,0,1,0-17H80.71A19.84,19.84,0,0,1,98.65,0a19.61,19.61,0,0,1,6.78,1.19L94.51,12.1A8.4,8.4,0,0,0,106.39,24l10.92-10.91A19.77,19.77,0,0,1,118.5,19.85Z" style="fill:#1a1a1a;"/></g></g>
            </g>
        </g>
    </g>
    
    <!-- ITEM 10 -->
    <g>
        <defs>
            <clipPath id="clip-path-id-viewbox-item-10">
                <rect x="0.0" y="0.0" width="1560.593" height="457.384"/>
            </clipPath>
        </defs>
        <g transform="translate(662.0 391.0) rotate(0.0 39.0 11.5) scale(0.04998100081187087 0.05028597414863659)">
            <g clip-path="url(#clip-path-id-viewbox-item-10)" transform="translate(-0.0 -0.0)">
                
<g>
	<path style="fill:#1a1a1a;" d="M510.621,55H27.5C12.313,55,0,42.688,0,27.5S12.313,0,27.5,0h483.121   c15.188,0,27.5,12.312,27.5,27.5S525.809,55,510.621,55z"/>
	<path style="fill:#1a1a1a;" d="M835.725,256.167H27.5c-15.188,0-27.5-12.312-27.5-27.5s12.313-27.5,27.5-27.5h808.225   c15.188,0,27.5,12.312,27.5,27.5S850.912,256.167,835.725,256.167z"/>
	<path style="fill:#1a1a1a;" d="M774.131,55h-153.56c-15.188,0-27.5-12.312-27.5-27.5S605.384,0,620.571,0h153.56   c15.188,0,27.5,12.312,27.5,27.5S789.318,55,774.131,55z"/>
	<path style="fill:#1a1a1a;" d="M1533.093,55H890.581c-15.188,0-27.5-12.312-27.5-27.5S875.394,0,890.581,0h642.512   c15.188,0,27.5,12.312,27.5,27.5S1548.28,55,1533.093,55z"/>
	<path style="fill:#1a1a1a;" d="M350.013,457.384H27.5c-15.188,0-27.5-12.312-27.5-27.5s12.313-27.5,27.5-27.5h322.513   c15.188,0,27.5,12.312,27.5,27.5S365.2,457.384,350.013,457.384z"/>
	<path style="fill:#1a1a1a;" d="M966.581,457.384H465.5c-15.188,0-27.5-12.312-27.5-27.5s12.313-27.5,27.5-27.5h501.081   c15.188,0,27.5,12.312,27.5,27.5S981.769,457.384,966.581,457.384z"/>
</g>

            </g>
        </g>
    </g>
    
    <!-- ITEM 11 -->
    <g>
        <defs>
            <clipPath id="clip-path-id-viewbox-item-11">
                <rect x="0.0" y="0.0" width="139.4" height="139.4"/>
            </clipPath>
        </defs>
        <g transform="translate(661.0 325.0) rotate(0.0 23.0 23.0) scale(0.3299856527977044 0.3299856527977044)">
            <g clip-path="url(#clip-path-id-viewbox-item-11)" transform="translate(-0.0 -0.0)">
                <path d="M69.7,0a69.7,69.7,0,1,0,69.7,69.7A69.821,69.821,0,0,0,69.7,0Z" fill="#1a1a1a"/><circle cx="69.7" cy="55.8" r="19.3" fill="#ffffff"/><path d="M92.2,103H47.3V97.6A22.534,22.534,0,0,1,69.8,75.1h0A22.534,22.534,0,0,1,92.3,97.6l-.1,5.4Z" fill="#ffffff"/>
            </g>
        </g>
    </g>
    
    <!-- ITEM 12 -->
    <g>
        <defs>
            <clipPath id="clip-path-id-viewbox-item-12">
                <rect x="0.0" y="0.0" width="411.438" height="451.7"/>
            </clipPath>
        </defs>
        <g transform="translate(1074.0 291.0) rotate(0.0 -173.0 190.5) scale(-0.8409529503837759 0.8434801859641355)">
            <g clip-path="url(#clip-path-id-viewbox-item-12)" transform="translate(-0.0 -0.0)">
                <title>robot_4</title><g id="Layer_2-i12" data-name="Layer 2"><g id="robot_4-i12"><path d="M274.653,144.8s12.3-16.8,24.5-30.3c12.2-13.6,40.3-35.5,40.3-35.5s10.1,15.3,15,18.6c0,0-8.5,12.4-11.5,21.3-3,8.8-13.4,32.1-24.9,46.7s-22,21.5-28.6,22.3-19.5-9.6-19.7-20.9C269.853,155.5,271.253,150.6,274.653,144.8Z" fill="#05386b"/><path d="M339.453,79s-28.1,21.9-40.3,35.5-24.5,30.3-24.5,30.3a49.312,49.312,0,0,0-2.3,4.6c5.9.1,12.4.1,12.4.1l1-2.7s27.1-47,55.7-64.7v-.2C340.253,80.1,339.453,79,339.453,79Z" fill="#edf5e1"/><path d="M350.953,70s14.1-5.9,14.4-6,5.2-2.2,5.2-2.2l5-6.2s5.4-10.6,7.3-9.7,1.1,7.4-.4,10.2l2.5-.7,5-4.3s9.8-8.6,11.1-6.3c1.3,2.2-3,7.1-3,7.1l-5.4,6s16.6-6.8,17.5-4.2-6.9,7.8-11.3,9.9-24.2,6.9-23.6,12.6,14,11.3,17,13.9,4.6,5.7,3,7.1-13.4-4.4-13.4-4.4-6.3-3-8-3-7.3-.8-9.9.2Z" fill="#05386b"/><path d="M383.853,60s16-10.7,15.7-14.5c0,0-10.2,6.4-10.3,6.5a8.6,8.6,0,0,1-1.2.7l-3.1,2.6-1.8.4c-4.1,2.6-8.7,5.6-8.7,5.6Z" fill="#edf5e1"/><path d="M370.753,61.5l4.2-.9c4.4-4.2,7.1-10.9,8.3-14.4a1.38,1.38,0,0,0-.4-.3c-.8-.4-2.3,1.4-3.8,3.6-1.2,2.2-3.1,5.8-3.1,5.8l-1,1Z" fill="#edf5e1"/><path d="M353.553,73.3s11.6-6.3,20.1-7.5a96.01,96.01,0,0,0,34.7-11.9l-15.6,3.8-13,3.4s-14.6,2.2-20.2,5.2c-5.7,2.9-9,4.6-9,4.6Z" fill="#edf5e1"/><path d="M339.453,73.7c-1.7,2.5,2.8,8.8,6.8,14.3,3.9,5.5,10.1,12.5,12.9,10.4s-2-9.2-7.4-15.9C346.453,75.7,341.553,70.4,339.453,73.7Z" fill="#edf5e1"/><path d="M345.753,75s-2.8-2.8-1.2-5c2.2-3.2,5.9-.4,14.3,8.9,8.5,9.2,7.3,11.5,5.9,12.8-1.3,1.2-4.9,1.1-8.8-3.9C351.953,82.7,345.753,75,345.753,75Z" fill="#edf5e1"/><path d="M411.253,53.2a1.641,1.641,0,0,0-.9-1c-1.7-.8-6.2.4-14.3,3.2,3.2-2.8,6.6-6.4,6.8-9.1a3.108,3.108,0,0,0-.9-2.5c-1.8-1.7-5.3.8-12.9,6.9-1.8,1.5-3.5,2.8-4.7,3.6l-.9.6c1.5-2.8,2.3-6.1,1.6-8.3a2.911,2.911,0,0,0-2-1.9c-2.5-.5-4,2.4-6,6a44.94,44.94,0,0,1-2.4,4.2,25.1,25.1,0,0,1-7.7,7.2,1.024,1.024,0,0,0-.5.6c-5.2,1.6-14,5.3-16.4,6.2a5.966,5.966,0,0,0-3.8-1.3,3.842,3.842,0,0,0-2.8,1.7,4.116,4.116,0,0,0-.6,2.8,5.34,5.34,0,0,0-2-.5,3,3,0,0,0-2.5,1.5c-.9,1.3-.7,3,.2,5.2a331.882,331.882,0,0,0-37.5,32.3c-18.2,18.5-27.5,33-27.6,33.1a1.1,1.1,0,0,0,.3,1.5,1.421,1.421,0,0,0,.6.2,1.05,1.05,0,0,0,.9-.5,4.574,4.574,0,0,1,.4-.6l2.2.5,3.8-.6c-3.9-1-2.3-4.8-1.3-6.5,2.6-3.5,6.2-8,10.9-13.3a83.542,83.542,0,0,1,13.6,10.4c-3.7,5.7-7.5,12.1-11.3,18.9a1.129,1.129,0,0,0,.4,1.5,1.268,1.268,0,0,0,.6.1,1.1,1.1,0,0,0,1-.6c3.7-6.7,7.4-12.8,11-18.4a106.169,106.169,0,0,1,16.5,20.3l-2.4,3.6c-1.6,2.4-3.4,4.6-5.1,6.7-16.4,13.8-17.5-5-17.5-5s-1.5-.9-1.2,7.2c.3,7.2-5.8,16.3-7.2,18.2a13.355,13.355,0,0,1-1.8.7,1.068,1.068,0,0,0-.6,1.5,1.2,1.2,0,0,0,1,.7.6.6,0,0,0,.4-.1c12.3-4.7,23.7-14.3,33.7-28.6,7.9-11.2,14.9-25,21.6-42.3,5.2-13.5,10.8-20.1,10.8-20.2s.1-.1.1-.2a7.866,7.866,0,0,0,2.2.9h.6a3.292,3.292,0,0,0,1.9-.6,3.048,3.048,0,0,0,1.2-2.2,9.1,9.1,0,0,0-1-4.4,6.345,6.345,0,0,0,2.5.7h.3a3.62,3.62,0,0,0,2.7-1,3.858,3.858,0,0,0,1.1-1.7c4.8-1.5,11.8,1.8,17.5,4.4,4,1.8,7.2,3.4,9.6,3.4a3.653,3.653,0,0,0,1.5-.3,2.778,2.778,0,0,0,1.7-1.8c1.6-4.1-4.6-8-11.2-12.1-4.3-2.7-9.3-5.8-9.6-7.8-.1-.6.3-2.2,5.8-5.2a138.42,138.42,0,0,1,13.4-5.9,85.737,85.737,0,0,0,8.1-3.5C409.153,58.7,412.253,56.2,411.253,53.2Zm-25.7,3c1.2-.8,2.9-2.2,4.8-3.7,3-2.4,8.5-6.8,10.1-6.9.1.1.1.3.1.6-.2,2.8-6.8,8.5-11,11.5a105.881,105.881,0,0,1-11,2.4A47.433,47.433,0,0,0,385.553,56.2Zm-9.1-.1a40.365,40.365,0,0,0,2.5-4.4c1.2-2.2,2.7-5,3.6-4.8.1,0,.3.3.3.4.6,1.7-.4,6.2-3.6,9.9l-.1.1c-2.1,1.1-4.4,2.1-6.2,2.9A17.615,17.615,0,0,0,376.453,56.1ZM344.053,87a186.463,186.463,0,0,0-17.8,18.7,49.116,49.116,0,0,0-10-6.6c11.2-10,20.7-17.1,23.3-19A79.4,79.4,0,0,0,344.053,87Zm-51.2,35.8c2.9-3.3,6.3-6.9,9.9-10.7,3.9-4,7.9-7.8,11.7-11.2a43.543,43.543,0,0,1,10.3,6.7,291.787,291.787,0,0,0-18.7,25.4A76.048,76.048,0,0,0,292.853,122.8Zm15,11.7a307.17,307.17,0,0,1,18.7-25.5,74.891,74.891,0,0,1,13,15.8,193.242,193.242,0,0,1-15.1,29.9A105.974,105.974,0,0,0,307.853,134.5Zm45.4-36.8c-.2.3-5.9,6.9-11.2,20.9-.5,1.2-1,2.5-1.5,3.7a75.353,75.353,0,0,0-12.6-15c.7-.9,1.4-1.7,2.1-2.5a165.488,165.488,0,0,1,15.3-15.9c1.7,2.2,4.8,6.3,7.9,8.8Zm5.5-.9a.72.72,0,0,1-.4.7c-.1.1-.3.2-.7.1-2.2-.3-6.3-4.4-10.6-10.3-3-4.2-8-11.1-6.8-13,.3-.4.5-.5.7-.5,1.9-.1,5.8,4.4,8.4,7.5.6.8,1.3,1.6,2,2.5C357.753,92,358.953,95.4,358.753,96.8Zm5.2-6a1.692,1.692,0,0,1-1.3.3c-.8,0-3.1-.6-5.9-4.1-1.2-1.5-2.5-3.1-3.8-4.8-.1-.1-.2-.3-.4-.4-.4-.6-.9-1.1-1.3-1.6-2.5-3.2-4.6-5.8-4.7-5.8s0,0-.1-.1c0,0-2.1-2.2-1.1-3.6a1.779,1.779,0,0,1,1.1-.8h.1a5.074,5.074,0,0,1,2.7,1.2l.1.1a75.038,75.038,0,0,1,8.6,8.5c5.4,5.8,6.6,8.5,6.5,9.9a1.268,1.268,0,0,0-.1.6C364.353,90.4,364.053,90.7,363.953,90.8Zm38.2-30.7a59.832,59.832,0,0,1-7.8,3.4c-12.1,4.9-21.4,9-20.5,13.6.6,3,5.2,5.9,10.6,9.3,5,3.1,11.3,7,10.3,9.4a1.082,1.082,0,0,1-.4.5c-1.5.6-5.5-1.3-9.3-3.1-5.8-2.7-12.8-6-18.4-4.7-.5-2.3-2.5-5.5-7-10.3a77.4,77.4,0,0,0-7.5-7.6c3.9-1.6,13-5.2,16.8-6.2,2.7-.7,6.1-1.3,9.4-1.8a72.789,72.789,0,0,0,12-2.6c.8-.3,1.9-.7,3.1-1.1,3.7-1.3,13.5-4.9,15.6-4.6C409.253,55.8,405.453,58.1,402.153,60.1Z" fill="#000000"/><path d="M182.753,187.3c7.7-3.4,64-33.4,72.2-37,8.2-3.5,28.6-11.6,39.2,4.3s-6.9,36.8-14.9,44.6-32.3,28.7-71.7,43.3-55.1,6.2-59.7-11.2C143.153,214,152.753,200.5,182.753,187.3Z" fill="#05386b"/><path d="M288.753,149c-11.1-7.9-26.8-1.6-33.7,1.4-8.2,3.5-64.6,33.6-72.2,37-1,.4-2,.9-2.9,1.3,4,2.3,7.3,4.2,7.6,4.1.7-.2,11.9-3.7,11.9-3.7s28.4-15.3,42.7-23.3C256.053,157.9,274.653,146.7,288.753,149Z" fill="#edf5e1"/><path d="M293.353,151.5c-7.2-8.9-18.8-10.3-34.4-4.3-9.8,3.8-84.3,43-94.6,48.8-9.8,5.6-15,11.6-17.6,20a29.291,29.291,0,0,0,3.5,23.4c4.4,6.7,11.7,10.8,21.1,11.9,1.1.1,2.3.2,3.5.2,13.1,0,34.5-6.7,56.1-17.7,26.7-13.5,48.7-30.9,60.5-47.7C304.453,167.8,296.253,155,293.353,151.5Zm-33.5-2.1a43.839,43.839,0,0,1,16.1-3.5c6.6,0,11.9,2.4,15.8,7.1.3.3.6.8,1,1.3-1.1.8-2.8,2.2-5.2,3.9a11.146,11.146,0,0,0-19.7,6.3,11.009,11.009,0,0,0,1.5,6.5c-2.1,1.4-4.3,2.9-6.6,4.4a65.4,65.4,0,0,0-7.7-10.3,42.986,42.986,0,0,0-10.3-8.5C252.153,152.9,257.753,150.2,259.853,149.4Zm-17.5,8.4a43.4,43.4,0,0,1,11.2,8.9,65.277,65.277,0,0,1,7.3,9.9c-8.4,5.4-17.8,11.3-27.9,16.9-1.8-3-3.7-5.7-5.4-8.1a96.5,96.5,0,0,0-12.1-13.8C225.053,166.6,234.553,161.7,242.353,157.8Zm-4.8,70.2c-18.1,8.3-18.7-8.2-18.7-8.2l.2,9.3,1.1,7.6c-17.8,8-34.4,12.7-45.1,12.7-1.2,0-2.4-.1-3.4-.2-8.9-1-15.4-4.7-19.5-10.9a27.069,27.069,0,0,1-3.2-21.5c2.4-7.9,7.4-13.5,16.6-18.7,6-3.4,27-14.6,47.7-25.3a106.02,106.02,0,0,1,17.6,21.9c-5.9,3.2-11.9,6.4-18.1,9.4a1.056,1.056,0,0,0-.5,1.5,1.1,1.1,0,0,0,1,.6,1.087,1.087,0,0,0,.5-.1c6.2-3,12.3-6.2,18.3-9.5a82.318,82.318,0,0,1,10.3,28.1.52.52,0,0,0,.2.4C240.853,226.1,239.153,227,237.553,228Zm6.9-4a84.948,84.948,0,0,0-10.5-28.5c10.1-5.6,19.6-11.5,27.9-16.9a95.149,95.149,0,0,1,9.7,25.9A183.317,183.317,0,0,1,244.453,224Zm45.3-39a113.574,113.574,0,0,1-16.2,17.8,93.207,93.207,0,0,0-9.7-25.5c2.4-1.5,4.6-3.1,6.8-4.5a11.476,11.476,0,0,0,7.4,3.7,11.126,11.126,0,0,0,12-10.3,10.548,10.548,0,0,0-1.3-6.1c2.3-1.7,4-2.9,5.1-3.8C296.653,161.5,299.153,171.6,289.753,185Z" fill="#000000"/><path d="M188.653,183.6c-9.8-2.2-22.9-2-34.8,9.4s-29.4,45.5-44.2,60.6-42.8,31.5-69.1,36.5c0,0,16.2,35.6,62.6,78.6,46.5,42.9,61.6,44.2,61.6,44.2s27-27.8,42-82.3C222.653,273.5,230.353,193.2,188.653,183.6Z" fill="#05386b"/><path d="M185.853,336.8s-15.5,44.4-43.5,64.4l-3.2-1.6s15.8-11.9,26.1-28.7,18.8-38.4,18.8-38.4l2.7,2.2Z" fill="#edf5e1"/><path d="M103.253,368.7l2.7,2.6s23.2-18.3,37.7-39.6c16.9-24.7,22.7-44.3,22.7-44.3l-2.7-1.9s-3.2,19.4-26.7,49.5C113.453,365,103.253,368.7,103.253,368.7Z" fill="#edf5e1"/><path d="M66.253,329.1a154.125,154.125,0,0,0,46.5-35.6c21.3-24.3,36.6-54.5,38.1-69.1l-5.2,5.8s-11,32.5-34.5,58.4-47.5,36.4-47.5,36.4Z" fill="#edf5e1"/><path d="M175.453,182.6s-23.9,7.8-34,35.5c-10.1,27.6-12.6,36.7-37.6,56.7-23.5,18.8-54.4,30.7-54.4,30.7l-9-15.4s29-6.8,52.7-22.8c17.5-11.8,25.9-22,30.8-31.7S150.253,185.8,175.453,182.6Z" fill="#edf5e1"/><path d="M45.453,300.1s-9.3,9.6-15.7,12.6c0,0,7.7,25.1,44.9,64.5,37.2,39.3,58.5,49.4,60,50,0,0,13.9-10.8,18.6-18.4,0,0-25-14.8-61.7-52C54.753,319.5,45.853,301.3,45.453,300.1Z" fill="#05386b"/><path d="M45.353,300.9s3.1,3.4,2.7,3.7a94.014,94.014,0,0,1-16.6,12.5l-1.3-4s8-5.2,10.3-7.2C42.553,303.9,45.353,300.9,45.353,300.9Z" fill="#edf5e1"/><path d="M146.353,429.9s-8.8,14-45.7,19.8c-37,5.8-63.1-12.9-70.4-18.9s-28-23-29.7-61.4,26.5-66.4,26.5-66.4-1.5,11.6,23,43.7,52.3,59,63.1,67S136.653,429.5,146.353,429.9Z" fill="#05386b"/><path d="M27.053,317a109.331,109.331,0,0,0,20.2,33l2.9-3.4s-14.2-18.1-18.7-29.6Z" fill="#edf5e1"/><path d="M47.453,351.6a361.052,361.052,0,0,0,50.3,54c31.1,27.4,46.8,26.6,46.8,26.6s2.9-1.6,2.4-1.9c-.5-.4-16.3-1.7-41.4-23.4s-54.8-59.2-54.8-59.2Z" fill="#edf5e1"/><path d="M120.953,419.3l3.6,2.2s-18,12.7-37,17.2-32.2,4.2-41.3,2.1c0,0,23.8-.4,43.6-6.6S120.953,419.3,120.953,419.3Z" fill="#edf5e1"/><path d="M88.753,391.4s-27.5,33.1-57.5,39.2c.1-.6,19.3-7.5,30.2-17.3s24.4-24.5,24.4-24.5Z" fill="#edf5e1"/><path d="M51.553,349s-15.3,14.3-21.8,35.7c-6.1,20.2.6,44.4.6,44.4s-11.7-22.1-3.7-47.4,22.3-36.1,22.3-36.1Z" fill="#edf5e1"/><path d="M32.353,319.5l-.2-.5a62.2,62.2,0,0,1-3.1-7.2l-.3-.8v-.2c-1.9-5.5-1.6-7.9-1.6-7.9s-28.2,28-26.5,66.4c1.6,37,20.9,54.1,28.8,60.7h.3s-14.7-21.5-16-57.9C12.453,335.9,32.353,319.5,32.353,319.5Z" fill="#edf5e1"/><path d="M155.553,306.2a1.087,1.087,0,0,1-.5-.1,1.056,1.056,0,0,1-.5-1.5c1.1-2.4,2.5-5.5,3.7-8.4a131.174,131.174,0,0,0,6.9-20.3,1,1,0,0,1,1.3-.8,1.038,1.038,0,0,1,.8,1.3,139.084,139.084,0,0,1-7.1,20.6c-1.2,2.9-2.6,6-3.7,8.5A.961.961,0,0,1,155.553,306.2Z" fill="#05386b"/><path d="M72.453,350.2a4.751,4.751,0,0,0-2.4.6c-8.8-9.3-20-26.2-22.5-29.8a5.061,5.061,0,0,0,1.6-3.7,5.2,5.2,0,1,0-5.2,5.2,5.663,5.663,0,0,0,1.8-.3c2.4,3.6,13.7,20.6,22.7,30.1a5.167,5.167,0,0,0-1.1,3.2,5.2,5.2,0,0,0,10.4,0A5.4,5.4,0,0,0,72.453,350.2Zm-28.6-29.9a3.009,3.009,0,0,1-3-3,2.946,2.946,0,0,1,3-3,3.009,3.009,0,0,1,3,3A2.946,2.946,0,0,1,43.853,320.3Zm28.6,38.1a3,3,0,1,1,0-6,2.946,2.946,0,0,1,3,3A3.009,3.009,0,0,1,72.453,358.4Z" fill="#000000"/><path d="M219.553,224.6c-2.9-21.6-11.1-34.8-25.2-40.3-19-7.4-35.9-1.2-50.3,18.3-4.4,6-8.1,12.1-12.1,18.6-10.7,17.7-21.8,36.1-48.1,50.8-19.4,10.8-43.5,17-43.8,17.1a1.275,1.275,0,0,0-.7.5,1.412,1.412,0,0,0-.1.9c.1.3,1.1,3.6,4.9,10.1a47.056,47.056,0,0,1-5.5,4.9c-1.6-1.8-6-5.9-9.1-5.2a7.6,7.6,0,0,0-1.1.4.55.55,0,0,0-.5.3,85.643,85.643,0,0,0-15.5,19.7,91.151,91.151,0,0,0-12,55.2,81.355,81.355,0,0,0,26.8,53.6,92.852,92.852,0,0,0,13.8,10.2c.1,0,.1.1.2.1a82.307,82.307,0,0,0,28.9,10.8,101.333,101.333,0,0,0,14.9,1.1,118.2,118.2,0,0,0,28.2-3.4c15.6-3.8,28.3-10.3,35.6-18.4h0a3.483,3.483,0,0,0,1-2.8c-.1-2.9-3.1-6-4.4-7.3a124.673,124.673,0,0,0,8.5-9.4c7.4,4,10.8,4.3,11.2,4.3h.1a1.222,1.222,0,0,0,.9-.4c.1-.1,9-10.8,19.1-28.7,9.4-16.5,21.8-42.6,27.7-73.7C220.053,273.8,222.253,245.2,219.553,224.6Zm-134.6,49.3a109.377,109.377,0,0,0,31.1-25.4,136.542,136.542,0,0,0,7.8,15.9c.6,1.1,1.3,2.2,2,3.5a166.374,166.374,0,0,1-23.1,28.4c-3,2.9-6,5.7-9.2,8.3a283.933,283.933,0,0,1-17.3-26.2C79.153,277,82.153,275.5,84.953,273.9Zm43.8,73.6q4.65,4.2,9.3,8.1a215.118,215.118,0,0,0,24.7,17.5,107.967,107.967,0,0,1-23.2,25.5,346.786,346.786,0,0,1-34.7-29.9A149.923,149.923,0,0,0,128.753,347.5Zm-25.6,19.5c-2-2-4-3.9-5.8-5.7-9.6-9.6-21.7-22.4-32.6-35.7a142.339,142.339,0,0,0,28.3-17.7c3,4.1,6.4,8.4,10.1,12.8a276.325,276.325,0,0,0,23.9,25.3A132.624,132.624,0,0,1,103.153,367Zm36.3-13.2c-3.1-2.5-6.2-5.2-9.2-8a173.59,173.59,0,0,0,25.3-38.3c1,1.1,2.1,2.2,3.2,3.4a128.836,128.836,0,0,0,20.8,30.2,179.624,179.624,0,0,1-15.5,30A186.28,186.28,0,0,1,139.453,353.8Zm-10.9-9.5a270.357,270.357,0,0,1-23.6-25.1c-3.7-4.4-7.1-8.7-10.1-12.8,3.2-2.7,6.4-5.6,9.5-8.5a168.193,168.193,0,0,0,22.8-27.8,234.594,234.594,0,0,0,26.2,35.1l.6.6A172.638,172.638,0,0,1,128.553,344.3Zm-86.7-53.4a239.068,239.068,0,0,0,32.4-11.6,262.351,262.351,0,0,0,17.6,26.7,133.4,133.4,0,0,1-28.4,17.7c-4.5-5.6-8.8-11.3-12.5-16.9C45.053,298.3,42.653,293,41.853,290.9Zm-27.5,31a85.653,85.653,0,0,1,12.2-16.4c.1,4.7,3.2,12.4,8.9,21.8a205.876,205.876,0,0,0,12.2,18,84.132,84.132,0,0,0-16.5,23.3,79.4,79.4,0,0,0-4.5,11.4,229.327,229.327,0,0,1-22.1-32.7A84.685,84.685,0,0,1,14.353,321.9Zm104.8,97.3a124.875,124.875,0,0,1-30.7,14.7,170.407,170.407,0,0,1-21.2-13.8c-2.2-1.7-4.4-3.4-6.6-5.2a124.039,124.039,0,0,0,25.6-24.6C99.553,404,110.453,413.1,119.153,419.2Zm-60.4-5.9a231.069,231.069,0,0,1-26.3-26.1c-1.5-1.7-2.9-3.4-4.3-5.1a76.5,76.5,0,0,1,4.8-12.5,84.854,84.854,0,0,1,15.9-22.5c8.1,10.7,18.1,22.5,29.6,35.1,2.1,2.2,4.1,4.4,6,6.4A116.157,116.157,0,0,1,58.753,413.3Zm-28.4,15.4a73.188,73.188,0,0,1-4.7-32.7,62.456,62.456,0,0,1,1.9-11.2c1,1.3,2.1,2.6,3.2,3.8a246.13,246.13,0,0,0,26.1,26A124.908,124.908,0,0,1,30.353,428.7Zm-27.7-53.1a92.478,92.478,0,0,1,1-25,243.028,243.028,0,0,0,22.1,32,73.6,73.6,0,0,0-2.4,13.1,75.535,75.535,0,0,0,3.8,30.7A79.35,79.35,0,0,1,2.653,375.6Zm29.3,54.9a122.123,122.123,0,0,0,17.7-8.5,86.264,86.264,0,0,0,9.1-5.9c2.4,1.9,4.7,3.8,7.2,5.7a194.3,194.3,0,0,0,19.6,12.9,111.633,111.633,0,0,1-19.8,3.7c-13.3,1.2-22.2-.5-23.6-.8A74.094,74.094,0,0,1,31.953,430.5Zm38.4,17.8a76.92,76.92,0,0,1-22.7-7.6c2.3.2,5.2.4,8.7.4,2.8,0,6-.1,9.4-.4a117.4,117.4,0,0,0,22.5-4.4,153.189,153.189,0,0,0,22.8,10.2C97.353,449.5,82.653,450.2,70.353,448.3Zm44.7-2.9c-.1,0-.1-.1-.2-.1a151.956,151.956,0,0,1-23.7-10.1,125.8,125.8,0,0,0,30-14.8,90.86,90.86,0,0,0,13,7.4.367.367,0,0,0,.3.1c5.1,2.2,8.3,2.8,10,2.9C137.653,437.1,127.453,442.1,115.053,445.4Zm19.6-19.7a57.7,57.7,0,0,1-5.5-2.8l4.6-5a5.45,5.45,0,0,0,2.2.5,5.083,5.083,0,1,0-4-1.8l-4.8,5.2c-1.1-.7-2.2-1.4-3.4-2.2-10-6.5-21.2-15.9-33.3-28.1l8-8.8a1.4,1.4,0,0,0,.3-.9,1.234,1.234,0,0,0-.4-.8c-1.2-.9-5.6-5.2-7.8-7.3a5.467,5.467,0,0,0,.9-2.8,5.228,5.228,0,0,0-5.2-5.2,5.3,5.3,0,0,0-5.2,5.2,5.228,5.228,0,0,0,5.2,5.2,5.376,5.376,0,0,0,2.8-.8c1.4,1.4,5.1,5,7.1,6.8l-7.1,7.8c-2.9-2.9-5.8-6-8.7-9.2-31.6-34.3-44.6-55.6-49.3-67.1a123.131,123.131,0,0,0,12.8-9.4c4.1,6.1,39.3,57.3,88.1,96.5l-4.5,5-13.3-10.5a5.376,5.376,0,0,0,.8-2.8,5.2,5.2,0,1,0-5.2,5.2,5.376,5.376,0,0,0,2.8-.8l14.3,11.3a1.445,1.445,0,0,0,.7.2.909.909,0,0,0,.8-.4l5.3-5.9c4.9,3.8,9.8,7.5,14.9,11A80.53,80.53,0,0,1,134.653,425.7Zm-1.6-12.5a3.009,3.009,0,0,1,3-3,3,3,0,0,1,0,6A3.009,3.009,0,0,1,133.053,413.2Zm-43.9-42.3a3.009,3.009,0,0,1-3,3,3,3,0,1,1,3-3Zm23.5,21.5a3.009,3.009,0,0,1-3,3,2.946,2.946,0,0,1-3-3,3.009,3.009,0,0,1,3-3A2.946,2.946,0,0,1,112.653,392.4Zm70.5-7.9a204,204,0,0,1-18.6,27.9c-1.5-.3-6.3-1.7-14.9-7a97.858,97.858,0,0,1-8.2-5.5,111.509,111.509,0,0,0,23.3-25.7,145.549,145.549,0,0,0,19,9.4A2.361,2.361,0,0,0,183.153,384.5Zm1.6-2.9a150.938,150.938,0,0,1-18.9-9.4,193.153,193.153,0,0,0,15.3-29.3,153.248,153.248,0,0,0,15.5,14.1A248.989,248.989,0,0,1,184.753,381.6Zm25.9-70c-.9,4.7-10.5-14.3-10.5-14.3l-28.4-43.3-23.9-24.3s-8.5,34.6,7.4,73.4c-.1.2-.1.3-.2.5a232.608,232.608,0,0,1-26.5-35.7,26.06,26.06,0,0,0,1.7-2.8,181.427,181.427,0,0,0,18-38.4,1.14,1.14,0,0,0-2.2-.6c0,.2-5,17.4-17.7,38-.3.6-.7,1.1-1,1.7-.5-.8-.9-1.6-1.3-2.4a125.6,125.6,0,0,1-8.2-16.9c6.4-7.9,11.3-16.1,16.2-24.2,3.9-6.5,7.6-12.5,11.9-18.4,7.8-10.6,16.4-17.1,25.6-19.4,6.9-1.8,14.4-1.1,22.2,1.9,13.3,5.2,21.1,17.8,23.8,38.5C220.053,245.3,217.853,273.6,210.653,311.6Z" fill="#000000"/><circle cx="155.053" cy="293.4" r="1.7" fill="#05386b"/><circle cx="163.853" cy="304.4" r="1.7" fill="#05386b"/><circle cx="177.553" cy="334.2" r="1.7" fill="#05386b"/><circle cx="181.653" cy="323.9" r="1.7" fill="#05386b"/><circle cx="190.653" cy="330" r="1.7" fill="#05386b"/><circle cx="186.153" cy="340.7" r="1.7" fill="#05386b"/><circle cx="127.253" cy="257.8" r="1.7" fill="#000000"/><circle cx="119.453" cy="267.5" r="1.7" fill="#000000"/><circle cx="127.253" cy="280.4" r="1.7" fill="#000000"/><circle cx="148.153" cy="306.9" r="1.7" fill="#000000"/><circle cx="157.253" cy="317.2" r="1.7" fill="#000000"/><circle cx="173.153" cy="371.7" r="1.7" fill="#000000"/><circle cx="161.853" cy="364.5" r="1.7" fill="#000000"/><circle cx="155.553" cy="374.5" r="1.7" fill="#000000"/><circle cx="167.353" cy="381.5" r="1.7" fill="#000000"/><circle cx="136.953" cy="345.8" r="1.7" fill="#000000"/><circle cx="128.153" cy="336.8" r="1.7" fill="#000000"/><circle cx="118.753" cy="346.6" r="1.7" fill="#000000"/><circle cx="128.453" cy="355.8" r="1.7" fill="#000000"/><circle cx="68.053" cy="415.5" r="1.7" fill="#000000"/><circle cx="58.653" cy="406.1" r="1.7" fill="#000000"/><circle cx="49.553" cy="413.7" r="1.7" fill="#000000"/><circle cx="59.153" cy="422" r="1.7" fill="#000000"/><circle cx="25.053" cy="369.8" r="1.7" fill="#000000"/><circle cx="41.453" cy="343.3" r="1.7" fill="#000000"/><circle cx="48.853" cy="354" r="1.7" fill="#000000"/><circle cx="78.253" cy="388.2" r="1.7" fill="#000000"/><circle cx="86.653" cy="397.7" r="1.7" fill="#000000"/><circle cx="110.753" cy="418.9" r="1.7" fill="#000000"/><circle cx="121.153" cy="426.5" r="1.7" fill="#000000"/><circle cx="19.253" cy="383.7" r="1.7" fill="#000000"/><circle cx="30.653" cy="393.9" r="1.7" fill="#000000"/><circle cx="34.353" cy="381.3" r="1.7" fill="#000000"/><circle cx="88.653" cy="429.6" r="1.7" fill="#000000"/><circle cx="88.653" cy="440.8" r="1.7" fill="#000000"/><circle cx="101.353" cy="436.4" r="1.7" fill="#000000"/><circle cx="77.953" cy="433.8" r="1.7" fill="#000000"/><circle cx="134.353" cy="269.1" r="1.7" fill="#000000"/><circle cx="94.053" cy="298.2" r="1.7" fill="#000000"/><circle cx="101.853" cy="308.4" r="1.7" fill="#000000"/><circle cx="92.953" cy="315.4" r="1.7" fill="#000000"/><circle cx="84.653" cy="305.5" r="1.7" fill="#000000"/><path d="M200.753,343.3c-6.2-4.1-11.2-7.7-15.5-10.9,4.4-12.3,6.3-21.1,6.4-21.1a1.118,1.118,0,0,0-2.2-.4,199.3,199.3,0,0,1-6,20.2c-8.5-6.6-14.3-12.4-22.5-20.9a1.131,1.131,0,0,0-1.6,1.6c8.4,8.8,14.4,14.7,23.3,21.6q-1.2,3.3-2.7,6.9a1.179,1.179,0,0,0,.6,1.5c.1,0,.3.1.4.1a1.087,1.087,0,0,0,1-.7q1.35-3.3,2.4-6.3c4.2,3.2,9,6.6,15,10.6a1.421,1.421,0,0,0,.6.2,1.05,1.05,0,0,0,.9-.5C201.353,344.3,201.253,343.7,200.753,343.3Z" fill="#05386b"/><path d="M160.953,199.6c-5.9,3.1-18.5,15.7-12.1,36,6.3,20.3,22.6,48.3,34.9,66.4s36,37.5,50.4,39.4,30.9-8,24.8-29.7c-5.2-18.4-34-59.5-34.2-60.1s-26.2-48.5-39-52.3C172.953,195.7,169.353,195.2,160.953,199.6Z" fill="#05386b"/><polygon points="160.453 200.3 168.153 215.7 165.353 215.7 157.453 201.8 160.453 200.3" fill="#edf5e1"/><path d="M178.053,239.1s27.6,53.5,47.8,67.2l.5-1.8s-10-12.2-26.6-36.8c-16.7-24.6-18.9-32.1-18.9-32.1Z" fill="#edf5e1"/><path d="M191.553,204.3s33.9,63.2,56.5,90.1l-.5-4.7-41.1-67S193.753,202.5,191.553,204.3Z" fill="#edf5e1"/><path d="M205.353,324.5c-54.8-68.7-57.5-104-45.1-117.2,11.5-12.2,28.6-6.2,28.6-6.2h0a10.631,10.631,0,0,0-3.2-1.6c-12.8-3.7-16.4-4.2-24.8.2-5.9,3.1-18.5,15.7-12.1,36,5.7,18.4,19.5,43,31.2,60.9C195.853,317.6,205.353,324.5,205.353,324.5Z" fill="#edf5e1"/><path d="M256.653,302.3c-4.6-9.5-49.3-80.8-55.8-90.6-6.3-9.3-12.7-14.1-21.3-16.1a29.45,29.45,0,0,0-23,5.2c-6.3,4.9-9.9,12.5-10.3,21.9-.5,12.5,8.1,35.4,21.9,58.2a216.563,216.563,0,0,0,24.4,33.1v.5a1.087,1.087,0,0,0,1,.7h0c8.8,9.5,17.8,17.2,26.6,22.4a35.966,35.966,0,0,0,18.2,5.3c7.5,0,13.6-2.8,16.6-6.2C263.053,328,263.453,316.7,256.653,302.3Zm-86.3-21.8a157.232,157.232,0,0,0,27.5-13.9c7,10.8,14.7,22,22.6,32.3a131.975,131.975,0,0,1-26.2,13.9A225.491,225.491,0,0,1,170.353,280.5Zm29.5-15.1a124.212,124.212,0,0,0,21.3-17.4c6.7,10.7,13.8,22.2,19.7,31.9a82.646,82.646,0,0,1-18.4,17.6C214.553,287.3,206.853,276.1,199.853,265.4Zm-20.9-67.5c8,1.8,14,6.3,19.9,15.1,3.1,4.5,11.5,17.9,21,33.1a129.112,129.112,0,0,1-21.3,17.4c-5.4-8.4-10.3-16.4-14.6-23.5a2.092,2.092,0,0,0-.4-.6,16.7,16.7,0,0,0-10.6-29.6,15.553,15.553,0,0,0-5.7,1c-3-5.5-5-9.3-5.7-10.6a28,28,0,0,1,12.3-2.9A34.081,34.081,0,0,1,178.953,197.9Zm-30.5,25.1c.3-8.9,3.5-15.8,9.4-20.3a13.735,13.735,0,0,1,2-1.3c.7,1.3,2.7,5.1,5.6,10.5a16.673,16.673,0,1,0,16.6,28.9c.1.1.2.3.3.4,4.2,7.1,9.2,15.2,14.6,23.6a151.781,151.781,0,0,1-27.5,13.8C156.153,256.6,147.953,234.9,148.453,223Zm104.9,112.4c-1.9,2.1-6.1,4.6-12.1,5.3-4.6.5-11.7,0-19.9-4.8-.1-.1-.2-.1-.3-.2l-2-7.6-1.2-4.2s-.4,6-4.9,6.3h0a127.4,127.4,0,0,1-17-15.6,135.227,135.227,0,0,0,26-13.9c3.1,4,6.3,7.9,9.4,11.5a.975.975,0,0,0,.9.4.908.908,0,0,0,.7-.3,1.116,1.116,0,0,0,.1-1.6c-3.1-3.6-6.2-7.4-9.3-11.3a85.8,85.8,0,0,0,18.3-17.4q1.95,3.15,3.6,6l-.3-.4s4.2,8.1-3.5,9.8l7.4,1.5,3.4,1.1q1.2,2.25,1.8,3.3C261.153,316.9,260.753,327.1,253.353,335.4Z" fill="#000000"/><path d="M165.653,237.4a1.922,1.922,0,0,1-1.2-.4,1.88,1.88,0,0,1-.3-2.6l14.6-18.2a1.851,1.851,0,1,1,2.9,2.3l-14.5,18.2A1.8,1.8,0,0,1,165.653,237.4Z" fill="#05386b"/><path d="M233.853,145.5c-12.1,15.1-27.8,14.3-34.8,10.5s-22.7-21.8-10.1-55.7c12.3-33,33.4-37.5,45.1-34.1,6.4,1.9,18.8,10.5,18.2,31.2" fill="#05386b"/><path d="M242.453,94.2c.1,2.7-1,5.6-3.4,6.8a9.459,9.459,0,0,1-5,.8,13.394,13.394,0,0,1-4.9-1,6.155,6.155,0,0,1-3.4-3.5c-.4-1.3-.3-2.7-.7-4-.9-2.7-4-4.6-4-7.5.2-5.2,9.7-9.3,13.9-6.9C239.053,81.3,242.253,90,242.453,94.2Z" fill="#8ee4af"/><path d="M237.153,70.4a18.762,18.762,0,0,1,5.6,2.7,27.638,27.638,0,0,0-7.2-6.4c-.6-.2-1.1-.4-1.6-.6-11.6-3.4-32.7,1.1-45.1,34.1-10,26.7-2.4,43.5,4.7,51.4-5.8-9-9.9-24.5-1.5-47.1C204.453,71.5,225.553,67,237.153,70.4Z" fill="#edf5e1"/><ellipse cx="242.726" cy="121.818" rx="24.599" ry="7.4" transform="translate(34.213 295.823) rotate(-66.496)" fill="#edf5e1"/><ellipse cx="206.052" cy="102.422" rx="14.301" ry="9.8" transform="translate(35.424 256.803) rotate(-68.569)" fill="#edf5e1"/><ellipse cx="206.052" cy="102.422" rx="5.3" ry="3.7" transform="translate(35.424 256.803) rotate(-68.569)" fill="#05386b"/><path d="M256.253,79.1a5.314,5.314,0,0,0-4.6-.5,7.572,7.572,0,0,0-1.8.9,38.144,38.144,0,0,0-3.3-5.5,28.685,28.685,0,0,0-6.6-6.2,4.751,4.751,0,0,0,.6-2.4,5.134,5.134,0,0,0-4-4.9,80.265,80.265,0,0,0-8.6-29.1,7.47,7.47,0,0,0-4.7-13.3,7.042,7.042,0,0,0-3.8,1.1,17.969,17.969,0,0,0-1.9-2c-.7-.7-1.3-1.3-2-1.9a6.084,6.084,0,0,0-5.3-9.1,5.807,5.807,0,0,0-4.4,1.9,36.775,36.775,0,0,0-5.2-2.5V4.9a4.9,4.9,0,1,0-4.9,4.9,5.021,5.021,0,0,0,4.1-2.2,45.79,45.79,0,0,1,4.7,2.3,5.867,5.867,0,0,0-.4,2.3,6.124,6.124,0,0,0,6.1,6.1,6.01,6.01,0,0,0,3.9-1.4c.6.6,1.3,1.2,1.9,1.9.5.6,1.1,1.1,1.6,1.8a7.392,7.392,0,0,0-1.9,5,7.555,7.555,0,0,0,7.5,7.5,7.635,7.635,0,0,0,2.7-.5,76.763,76.763,0,0,1,8.3,28,5.083,5.083,0,0,0-3.5,3.6,30.83,30.83,0,0,0-19.7,4.3c-9.8,5.7-17.7,16.3-23.3,31.3-3.8,10.3-7.4,25.6-2.4,39.9,3.2,9.3,9,15.1,13,17.2a23.229,23.229,0,0,0,10.8,2.4,35.136,35.136,0,0,0,5.5-.5c5.2-1,12.8-4,19.7-12.4.2,0,.4-.1.6-.1a10.2,10.2,0,0,0,2.1-.9,11.906,11.906,0,0,0,2.9-2.5,44,44,0,0,0,4.3-5.6,83.47,83.47,0,0,0,6.4-12.2,95.34,95.34,0,0,0,4.6-13,38.243,38.243,0,0,0,1.2-6.9,12.312,12.312,0,0,0-.2-3.8,5.786,5.786,0,0,0-.7-2.1,3.827,3.827,0,0,0-.8-1.1c-.1-.2-.4-.3-.6-.5a4.348,4.348,0,0,0-.7-.4h-.1v-.1a42.666,42.666,0,0,0-1.7-13.6,3.291,3.291,0,0,1,1.5-1,.972.972,0,0,1,.9.1c1.3.8,1.1,3.9.8,5.2a2.256,2.256,0,0,0,4.4,1C259.253,88.3,260.553,81.7,256.253,79.1Zm-66.3,21.5c5.3-14.3,13.1-24.7,22.3-30.1s17.2-4.4,20.8-3.5c-4.2,1.9-12.5,7.3-20.2,21.4-.3-.2-.7-.3-1-.5-2.8-1.1-6.1-.6-9.1,1.5a19.88,19.88,0,0,0-6.8,8.9,19.155,19.155,0,0,0-1.1,11.2c.8,3.6,2.9,6.2,5.7,7.3h0l1.3.7c-6,21.5-4.6,32.3-3.2,36.8C191.653,149.9,178.053,132.5,189.953,100.6Zm20.8-10.2c4.4,1.7,5.8,8.5,3.2,15.2s-8.3,10.7-12.6,9a7.336,7.336,0,0,1-4.1-5.5,17.874,17.874,0,0,1,6.9-17.4,8.3,8.3,0,0,1,4.7-1.6A3.194,3.194,0,0,1,210.753,90.4Zm5.6,16.1c2-5,1.9-10.2.1-13.8,3.5,1.7,4,7.5,1.3,14.3a20.85,20.85,0,0,1-5.9,8.5c-2.2,1.8-4.4,2.4-6.2,1.7h-.1C210.053,116,214.153,112,216.353,106.5Zm-14.8,49.4h0c-.1-.1-5.6-9,2.2-37.3l1,.6h.1a6.051,6.051,0,0,0,2.4.4,9.875,9.875,0,0,0,6.1-2.5,23.722,23.722,0,0,0,6.6-9.4c3.3-8.4,2.1-15.4-2.9-17.4l-2.2-.9c10-18.4,21.3-21.2,21.4-21.2h0a23.94,23.94,0,0,1,8.6,7.1,34.787,34.787,0,0,1,3.4,5.6,30.293,30.293,0,0,0-4.6,7.4,2.173,2.173,0,0,0,1.2,2.9,2.769,2.769,0,0,0,.9.1,2.26,2.26,0,0,0,2.1-1.4,27.934,27.934,0,0,1,2.2-4.1,39.4,39.4,0,0,1,1.2,11.1,1.268,1.268,0,0,0-.6.1,5.277,5.277,0,0,0-2.2.8,9.908,9.908,0,0,0-1.7,1.1l-1.5,1.2a40.368,40.368,0,0,0-4.8,5.4,63.8,63.8,0,0,0-6.9,12.2,68.537,68.537,0,0,0-4.2,13.3,41.85,41.85,0,0,0-.7,7.2,12.1,12.1,0,0,0,.1,1.9,17.658,17.658,0,0,0,.4,2,6.353,6.353,0,0,0,.9,2.1,2.836,2.836,0,0,0,.9,1,2.092,2.092,0,0,0,.6.4c.1.1.3.1.4.2C221.553,157.9,208.853,158.5,201.553,155.9Zm50.9-44.2a58.442,58.442,0,0,1-1.8,6.9c.6-3,.4-5.2-.7-5.7-1.8-.8-5.5,3.5-8.2,9.7s-3.4,11.8-1.5,12.6c.9.4,2.1-.3,3.4-1.8-.5.8-1.1,1.6-1.7,2.4a28.32,28.32,0,0,1-4.3,4.8,11.8,11.8,0,0,1-2.4,1.7,7.6,7.6,0,0,1-1.1.4.4.4,0,0,1-.5-.1,1.866,1.866,0,0,1-.3-.4,6.214,6.214,0,0,1-.3-1,24.391,24.391,0,0,1-.1-2.8,35.172,35.172,0,0,1,1.1-6.2,93.206,93.206,0,0,1,4.3-12.2,89.373,89.373,0,0,1,6-11.5,38.637,38.637,0,0,1,3.8-5,18.031,18.031,0,0,1,2.1-1.9,9.013,9.013,0,0,1,.9-.5,1.577,1.577,0,0,1,.4-.1c.1,0,.2.1.4.3a2.321,2.321,0,0,1,.4,1,9.246,9.246,0,0,1,.4,2.9A20.443,20.443,0,0,1,252.453,111.7Z" fill="#000000"/><ellipse cx="232.452" cy="88.192" rx="2.8" ry="4.6" transform="translate(-16.123 92.906) rotate(-21.863)" fill="#edf5e1"/><path d="M354.253,343.4a182.4,182.4,0,0,1-29.6-8.7c-15.2-6-58.5-29.6-58.5-29.6s-20.6-11.6-35.4-3.2c-14.7,8.3-14.3,27-6.3,39.8s37.6,19.8,37.6,19.8,22.8,2.5,40.9,2.1c18.2-.4,44.7,1.4,50,3.5C353.053,367,351.453,350.4,354.253,343.4Z" fill="#05386b"/><path d="M270.453,308.4s40.6,34.5,83.6,38.1l.3-3.1s-24-5.6-35.7-11.8C306.853,325.3,270.453,308.4,270.453,308.4Z" fill="#edf5e1"/><path d="M239.353,347.7c-15.8-9.3-19.4-29-19.4-29l-.6.3c-1.1,7.6,1,15.9,5.2,22.7,8,12.8,37.6,19.8,37.6,19.8s22.8,2.5,40.9,2.1c2.7-.1,5.7-.1,8.7,0l.6-.4C312.253,363.1,270.553,366,239.353,347.7Z" fill="#edf5e1"/><path d="M367.353,341.2l7-7.2.3-11.6V311s2.9-2.1,4.2.8,4,11.6,4,11.6l4.7-9.3,8.4-21.5,4.1-8.7s4.9-.7,3.7,7.2c-1.2,7.8-7.2,23.3-7.2,23.3s1.9-.7,3.4,4.4a29.054,29.054,0,0,1,.8,10.5l.6,9.8-3.5,4.1s.3,5.4-.7,6.6-10.5,7.3-10.5,7.3a4.836,4.836,0,0,1,.2-5.4,29.172,29.172,0,0,1,4.3-4.6l-1.5-7.8-4.6,4.8s-4.9,16.6-15.7,19.2l-.4-13.3Z" fill="#05386b"/><path d="M376.353,310.6s2,14,.9,20.3l-2.8,3.1s.9-19.4.3-23.1C374.653,311,375.453,309.5,376.353,310.6Z" fill="#edf5e1"/><path d="M401.453,285.1s-7,26.2-15.4,40.5c-6.4,10.9-13.4,17.4-18,19l-.7-3.4s14.6-14.6,17.5-21.5c3-7,14.7-35.8,14.7-35.8Z" fill="#edf5e1"/><path d="M364.153,339.9c-1.6.1-3.4,2.5-3.4,2.5s-1.6-3.5-3.5-2.9-4,6.4-4.2,15.8c-.1,9.3.6,15.5,3.2,15.5s4.7-5.7,4.7-5.7,1.9,4.9,4.9,4.1,3.4-5.6,3.4-5.6l-.9-15.8C368.253,347.8,367.953,339.6,364.153,339.9Z" fill="#edf5e1"/><path d="M403.453,284.9a5.609,5.609,0,0,0-3.7-2.1,1.126,1.126,0,0,0-1.1.7c-3.5,9.3-11.5,29-15.7,37.4-.5-1.9-1.3-4.7-2.2-7.6-.8-2.3-1.9-3.7-3.4-4.1a3.9,3.9,0,0,0-3.6,1,1.086,1.086,0,0,0-.4.9c0,.1,1.5,16.6-.3,22.8v.1c-2.4,2.6-4.6,4.9-5.7,6a4.741,4.741,0,0,0-1-1,3.556,3.556,0,0,0-3.2-.4,3.651,3.651,0,0,0-2.2,1.8,3.006,3.006,0,0,0-1.3-1.6,3.1,3.1,0,0,0-2.8-.4c-1.4.4-2.4,1.8-3,3.8-14.1-1.8-44-14.5-76.6-32.6-30.6-17-39.5-12.4-46-9-5.5,2.9-10.3,9.5-12.2,17a27.423,27.423,0,0,0,3.8,22.5c10.4,15.5,32.3,24.1,61.5,24.1,38.2,0,64.2,1.4,68.1,3.6a.6.6,0,0,0,.4.1,7.482,7.482,0,0,0,1.5,3.1,2.948,2.948,0,0,0,2.2,1.1h.1a3.1,3.1,0,0,0,2.2-.9,7.833,7.833,0,0,0,2-4.1,7.4,7.4,0,0,0,1.5,2.2,4.4,4.4,0,0,0,2.7,1.2h.3c2.2-.2,3.8-1.4,4.4-5.7,4.7-1.3,9.1-5.2,12.6-11.3a42.688,42.688,0,0,0,3.9-9l2.5-2.8.9,5.6c-3.2,2.6-4.9,5.2-5,7.5a5,5,0,0,0,1,3.3,1.234,1.234,0,0,0,.8.4,1.268,1.268,0,0,0,.6-.1c1.7-1,10-5.9,11.3-8.3.5-1,.6-3.1.5-5.2.2-.2,2.5-3.4,3.1-4.4.6-.9.3-4.6,0-6.9l.1-.1c1.7-3.5.6-15-2.3-18.2a3.754,3.754,0,0,0-2.1-1.2,110.451,110.451,0,0,0,7-22.5C405.053,288.7,404.653,286.5,403.453,284.9Zm-71,53.8a41.826,41.826,0,0,0-3.7,12.5,328.174,328.174,0,0,1-48.4-10.5c2.9-12.8,8.4-19.5,10-21.2A415.1,415.1,0,0,0,332.453,338.7Zm-56.2,23.1c-24.5-1.4-42.7-9.4-51.8-22.9a25.032,25.032,0,0,1-3.5-20.7,18.285,18.285,0,0,1,.8-2.5,63.933,63.933,0,0,0,6.1,4.3,15.1,15.1,0,0,0-.8,4.8,14.6,14.6,0,0,0,26.4,8.6c6.6,2.8,14.7,5.9,24.3,8.9A81.266,81.266,0,0,0,276.253,361.8Zm-21.7-30.4a14.56,14.56,0,0,0-25.8-13.5c-3.2-2.1-5.3-3.7-6.1-4.3,2.2-4.8,5.7-8.9,9.4-10.9,6-3.2,14.3-7.5,43.9,9,4,2.2,8.1,4.4,12.5,6.7-2.2,2.5-7.3,9.3-10.2,21.7C268.853,337.1,260.953,334.1,254.553,331.4Zm23.9,30.5a77.844,77.844,0,0,1,1.4-19,332.688,332.688,0,0,0,48.5,10.5,67.009,67.009,0,0,0-.6,9.5c-15.2-.7-33.3-.8-43.7-.8C282.153,362,280.353,362,278.453,361.9Zm51.6,1a82.248,82.248,0,0,1,.6-9.3c6.7.9,13.8,1.7,21.2,2.3a52.311,52.311,0,0,0,.3,9.5C348.553,364.2,340.053,363.5,330.053,362.9Zm22-9.2c-7.4-.6-14.4-1.3-21.1-2.2a42.958,42.958,0,0,1,3.6-12c7.1,2.6,13.5,4.4,18.4,5A69.765,69.765,0,0,0,352.053,353.7Zm7.7,1.2c-.2,10.5-1.5,13.8-2.5,14.8a.879.879,0,0,1-1.4-.1c-1.5-1.6-2.1-7.4-1.7-14.7.3-5.1.9-13.7,3-14.4a1.165,1.165,0,0,1,.9.1c1.5,1.1,1.7,7.1,1.7,11Zm5.2,13.5a1.935,1.935,0,0,1-1.2-.6c-.6-.6-2-2.4-1.9-6.9,0-1.8.1-3.8.1-5.8v-3c0-4.1.1-7.4.1-7.5v-.1s-.2-3.1,1.4-3.5a1.952,1.952,0,0,1,.7-.1,1.445,1.445,0,0,1,.7.2c1.8,1.3,2.4,8.2,2.7,14.9C368.253,368.1,365.953,368.3,364.953,368.4Zm11.7-56.9c.7.2,1.3,1.1,1.8,2.6,1.5,4.5,2.5,8.5,2.8,9.8a68.4,68.4,0,0,1-5.6,7.2c.7-6.7,0-16.7-.2-19.3A1.676,1.676,0,0,1,376.653,311.5Zm25.6-20.4a116.944,116.944,0,0,1-7.2,22.9,12.232,12.232,0,0,0-5.4,2.4,1.151,1.151,0,0,0,1.3,1.9c1.3-.9,5.4-3.1,7-1.4,1.3,1.4,2.2,5.6,2.5,9.3a11.152,11.152,0,0,0-1.6-3.8c-2.9-4.1-10.6,0-11.5.5a1.1,1.1,0,1,0,1.1,1.9c2.2-1.2,7.3-3.1,8.6-1.2,2.1,2.9,3.3,14,2.9,15.8-.3.4-.8,1.2-1.4,2,0-.4-.1-.8-.1-1.1-.2-1.8-.9-8-2.3-10.1-1.1-1.6-3.4-1.9-7.1-1a26.91,26.91,0,0,0-4.7,1.6,1.142,1.142,0,1,0,.9,2.1c3.7-1.6,8.3-2.6,9.1-1.4,1.6,2.4,2.8,15.8,1.9,17.7-.6,1.1-5,4.2-9.3,6.8a2.134,2.134,0,0,1,0-.8c.1-1.3,1-3.4,4.7-6.3a1.1,1.1,0,0,0,.4-1l-1.3-8.2,1.5-2.5a1.1,1.1,0,0,0-1.9-1.1l-1.7,2.8-4.2,4.7a.758.758,0,0,0-.2.4c0,.1-4.6,15.3-14.2,18.7a51.753,51.753,0,0,0-.1-6.7c-.3-6.7-.8-10.9-1.6-13.4,1.8-1.8,11.8-11.8,15.3-17.7,3.8-6.3,13.4-30.1,16.9-39.4a3.79,3.79,0,0,1,1.3,1C402.453,287.4,402.653,289,402.253,291.1Z" fill="#000000"/><path d="M246.153,335.5a1.781,1.781,0,0,1-1.6-1l-9.3-17.8a1.856,1.856,0,1,1,3.3-1.7l9.3,17.7a1.824,1.824,0,0,1-.8,2.5A2.3,2.3,0,0,1,246.153,335.5Z" fill="#05386b"/></g></g>
            </g>
        </g>
    </g>
    
    <!-- ITEM 13 -->
    <g>
        <defs>
            <clipPath id="clip-path-id-viewbox-item-13">
                <rect x="0.0" y="0.0" width="49.0" height="49.0"/>
            </clipPath>
        </defs>
        <g transform="translate(685.0 238.0) rotate(346.6409237318281 7.5 7.5) scale(0.30612244897959184 0.30612244897959184)">
            <g clip-path="url(#clip-path-id-viewbox-item-13)" transform="translate(-0.0 -0.0)">
                

<g>
	<g>
		<path d="M44,49c-1.3,0-2.6-0.5-3.5-1.5l-39-39c-2-2-2-5.1,0-7.1c2-2,5.1-2,7.1,0l39,39c2,2,2,5.1,0,7.1    C46.6,48.5,45.3,49,44,49z" style="fill:#1a1a1a;"/>
	</g>
</g>
<g id="Isolation_Mode-i13">
</g>

            </g>
        </g>
    </g>
    
    <!-- ITEM 14 -->
    <g>
        <defs>
            <clipPath id="clip-path-id-viewbox-item-14">
                <rect x="0.0" y="0.0" width="49.0" height="49.0"/>
            </clipPath>
        </defs>
        <g transform="translate(661.0 228.0) rotate(10.66178106457817 8.5 8.5) scale(0.3469387755102041 0.3469387755102041)">
            <g clip-path="url(#clip-path-id-viewbox-item-14)" transform="translate(-0.0 -0.0)">
                

<g>
	<g>
		<path d="M44,49c-1.3,0-2.6-0.5-3.5-1.5l-39-39c-2-2-2-5.1,0-7.1c2-2,5.1-2,7.1,0l39,39c2,2,2,5.1,0,7.1    C46.6,48.5,45.3,49,44,49z" style="fill:#1a1a1a;"/>
	</g>
</g>
<g id="Isolation_Mode-i14">
</g>

            </g>
        </g>
    </g>
    
    <!-- ITEM 15 -->
    <g>
        <defs>
            <clipPath id="clip-path-id-viewbox-item-15">
                <rect x="0.0" y="0.0" width="49.0" height="49.0"/>
            </clipPath>
        </defs>
        <g transform="translate(678.0 229.0) rotate(0.0 -8.0 8.0) scale(-0.32653061224489793 0.32653061224489793)">
            <g clip-path="url(#clip-path-id-viewbox-item-15)" transform="translate(-0.0 -0.0)">
                

<g>
	<g>
		<path d="M44,49c-1.3,0-2.6-0.5-3.5-1.5l-39-39c-2-2-2-5.1,0-7.1c2-2,5.1-2,7.1,0l39,39c2,2,2,5.1,0,7.1    C46.6,48.5,45.3,49,44,49z" style="fill:#1a1a1a;"/>
	</g>
</g>
<g id="Isolation_Mode-i15">
</g>

            </g>
        </g>
    </g>
    
    <!-- ITEM 16 -->
    <g>
        <defs>
            <clipPath id="clip-path-id-viewbox-item-16">
                <rect x="0.0" y="0.0" width="49.0" height="49.0"/>
            </clipPath>
        </defs>
        <g transform="translate(481.0 495.0) rotate(0.0 16.5 16.5) scale(0.673469387755102 0.673469387755102)">
            <g clip-path="url(#clip-path-id-viewbox-item-16)" transform="translate(-0.0 -0.0)">
                

<g>
	<g>
		<path d="M44,49c-1.3,0-2.6-0.5-3.5-1.5l-39-39c-2-2-2-5.1,0-7.1c2-2,5.1-2,7.1,0l39,39c2,2,2,5.1,0,7.1    C46.6,48.5,45.3,49,44,49z" style="fill:#edf5e1;"/>
	</g>
</g>
<g id="Isolation_Mode-i16">
</g>

            </g>
        </g>
    </g>
    
    <!-- ITEM 17 -->
    <g>
        <defs>
            <clipPath id="clip-path-id-viewbox-item-17">
                <rect x="0.0" y="0.0" width="49.0" height="49.0"/>
            </clipPath>
        </defs>
        <g transform="translate(516.0 493.0) rotate(0.0 -16.5 16.5) scale(-0.673469387755102 0.673469387755102)">
            <g clip-path="url(#clip-path-id-viewbox-item-17)" transform="translate(-0.0 -0.0)">
                

<g>
	<g>
		<path d="M44,49c-1.3,0-2.6-0.5-3.5-1.5l-39-39c-2-2-2-5.1,0-7.1c2-2,5.1-2,7.1,0l39,39c2,2,2,5.1,0,7.1    C46.6,48.5,45.3,49,44,49z" style="fill:#ffffff;"/>
	</g>
</g>
<g id="Isolation_Mode-i17">
</g>

            </g>
        </g>
    </g>
    
    <!-- ITEM 18 -->
    <g>
        <defs>
            <clipPath id="clip-path-id-viewbox-item-18">
                <rect x="0.0" y="0.0" width="669.557" height="762.897"/>
            </clipPath>
        </defs>
        <g transform="translate(865.0 367.0) rotate(341.65120451322997 24.5 27.5) scale(0.07318271633333681 0.0720936115884582)">
            <g clip-path="url(#clip-path-id-viewbox-item-18)" transform="translate(-0.0 -0.0)">
                
<g>
	<path style="fill:#1a1a1a;" d="M418.226,94.368C444.174,41.844,495.306-7.341,553.306,0.91   c31.611,4.497,59.056,25.928,76.645,52.575c17.589,26.648,26.393,58.142,31.945,89.585c10.379,58.781,10.211,119.407-0.493,178.13   c-9.033,49.555-27.573,100.672-67.618,131.229c-82.722,63.123-145.033-11.512-177.172-82.042   C377.299,284.109,375.991,179.859,418.226,94.368z"/>
	<path style="fill:#1a1a1a;" d="M506.561,173.559c3.197-7.478,7.018-14.4,11.494-20.509c28.53-38.931,75.569-29.756,89.397,14.223   c14.17,45.069,6.239,245.396-82.713,164.206c-13.27-12.112-21.096-29.166-25.72-46.528   C490.415,252.643,492.089,207.41,506.561,173.559z"/>
	<path style="fill:#1a1a1a;" d="M176.727,713.936c-17.842,0-35.685-1.3-53.371-3.953l6.081-40.521   c15.737,2.363,31.63,3.519,47.508,3.519c91.402,0.004,182.769-38.293,246.902-105.463c75.462-79.038,111.316-195.995,93.57-305.23   l40.443-6.57c19.763,121.647-20.233,251.962-104.378,340.093C381.653,671.044,279.232,713.936,176.727,713.936z"/>
	<path style="fill:#1a1a1a;" d="M0,687.953c-0.087-22.815,17.569-42.679,38.294-52.218c20.726-9.539,44.155-10.838,66.942-11.985   c29.38-1.479,59.771-2.806,87.223,7.765c27.452,10.571,51.303,36.433,49.825,65.812C237.325,795.896,0.334,775.558,0,687.953z"/>
	<path style="fill:#1a1a1a;" d="M562.867,350.626c5.444-44.185,5.444-104.28,5.444-121.352s10.926-8.878,9.561,25.267   c-1.366,34.145-0.683,55.997,3.414,60.778c4.097,4.78,18.108,6.048,14.517,22.828S562.867,350.626,562.867,350.626z"/>
</g>

            </g>
        </g>
    </g>
    
    <!-- ITEM 19 -->
    <g>
        <defs>
            <clipPath id="clip-path-id-viewbox-item-19">
                <rect x="0.0" y="0.0" width="779.359" height="560.266"/>
            </clipPath>
        </defs>
        <g transform="translate(314.0 376.0) rotate(27.206275377189783 28.5 20.5) scale(0.07313702671041201 0.07317952543970187)">
            <g clip-path="url(#clip-path-id-viewbox-item-19)" transform="translate(-0.0 -0.0)">
                
<g>
	<path style="fill:#1a1a1a;" d="M8.763,265.588c-24.489-80.567,3.426-175.577,70.254-226.809s168.819-52.37,234.294,0.58   c35.604,28.794,59.21,70.443,72.599,114.232c21.638,70.77,16.222,153.022-28.796,211.758   C251.478,503.178,51.559,406.383,8.763,265.588z"/>
	<path style="fill:#1a1a1a;" d="M141.449,171.901c21.736-21.491,56.214-28.975,84.904-18.43   c26.202,9.631,45.88,32.406,57.829,57.636c8.34,17.609,13.49,37.463,9.974,56.627C271.428,391.642,35.84,276.319,141.449,171.901z"/>
	<path style="fill:#1a1a1a;" d="M609.513,525.007c-87.084,0-173.602-24.973-247.209-71.887   c-84.471-53.836-149.939-135.292-184.345-229.362l42.264-15.455c31.032,84.844,90.08,158.31,166.268,206.868   c76.181,48.551,167.715,71.067,257.733,63.354l3.834,44.841C635.228,524.462,622.358,525.007,609.513,525.007z"/>
	<path style="fill:#1a1a1a;" d="M551.035,506.512c-0.595-21.926,12.686-42.515,30.343-55.529   c17.657-13.013,39.23-19.521,60.664-24.175c22.513-4.889,45.827-7.992,68.567-4.3c22.741,3.691,45.026,14.91,58.072,33.898   c13.046,18.988,14.94,46.253,1.199,64.744c-10.148,13.656-26.747,20.819-43.008,25.821   C683.695,560.251,553.071,581.54,551.035,506.512z"/>
	<path style="fill:#1a1a1a;" d="M227.593,321.451c-12.501-18.691-34.767-68.694-42.268-89.945c-7.5-21.251-8.018,2.756,2.608,30.882   s25.019,43.247,12.237,39.356c-12.782-3.891,3.296,26.642,3.296,26.642L227.593,321.451z"/>
</g>

            </g>
        </g>
    </g>
    
</svg>